G04 #@! TF.GenerationSoftware,KiCad,Pcbnew,(5.1.2-1)-1*
G04 #@! TF.CreationDate,2019-05-25T13:38:43+02:00*
G04 #@! TF.ProjectId,XoomFloppy Pro,586f6f6d-466c-46f7-9070-792050726f2e,1.1*
G04 #@! TF.SameCoordinates,Original*
G04 #@! TF.FileFunction,Soldermask,Top*
G04 #@! TF.FilePolarity,Negative*
%FSLAX46Y46*%
G04 Gerber Fmt 4.6, Leading zero omitted, Abs format (unit mm)*
G04 Created by KiCad (PCBNEW (5.1.2-1)-1) date 2019-05-25 13:38:43*
%MOMM*%
%LPD*%
G04 APERTURE LIST*
%ADD10C,3.900000*%
%ADD11C,2.700000*%
%ADD12R,8.655000X2.305000*%
%ADD13R,2.200000X2.200000*%
%ADD14C,2.200000*%
%ADD15C,1.908000*%
%ADD16C,4.616000*%
%ADD17O,2.100000X2.100000*%
%ADD18R,2.100000X2.100000*%
%ADD19R,0.850000X1.700000*%
%ADD20O,1.850000X2.400000*%
%ADD21O,1.550000X2.200000*%
%ADD22O,1.200000X1.200000*%
G04 APERTURE END LIST*
D10*
X147025000Y-123775000D03*
X147025000Y-80575000D03*
X192125000Y-123775000D03*
X192125000Y-80575000D03*
D11*
X177763000Y-94599000D03*
X172763000Y-92099000D03*
X182763000Y-92099000D03*
X170263000Y-89599000D03*
X177763000Y-89599000D03*
X185263000Y-89599000D03*
X182763000Y-79899000D03*
X172763000Y-79899000D03*
D12*
X200477000Y-124092200D03*
X200477000Y-120129800D03*
X200477000Y-116167400D03*
X200477000Y-112205000D03*
X200477000Y-108242600D03*
X200477000Y-104280200D03*
X200477000Y-100317800D03*
X200477000Y-96355400D03*
X200477000Y-92393000D03*
X200477000Y-88433140D03*
X200477000Y-84468200D03*
X200477000Y-80505800D03*
D13*
X172720000Y-99695000D03*
D14*
X170180000Y-99695000D03*
D15*
X170935000Y-116455000D03*
D16*
X152900000Y-117875000D03*
X186200000Y-117875000D03*
D15*
X168165000Y-116455000D03*
X165395000Y-116455000D03*
X162625000Y-116455000D03*
X159855000Y-116455000D03*
X173705000Y-116455000D03*
X176475000Y-116455000D03*
X179245000Y-116455000D03*
X169550000Y-119295000D03*
X166780000Y-119295000D03*
X164010000Y-119295000D03*
X161240000Y-119295000D03*
X172320000Y-119295000D03*
X175090000Y-119295000D03*
X177860000Y-119295000D03*
D12*
X138705000Y-80257800D03*
X138705000Y-84220200D03*
X138705000Y-88182600D03*
X138705000Y-92145000D03*
X138705000Y-96107400D03*
X138705000Y-100069800D03*
X138705000Y-104032200D03*
X138705000Y-107994600D03*
X138705000Y-111957000D03*
X138705000Y-115916860D03*
X138705000Y-119881800D03*
X138705000Y-123844200D03*
D17*
X151306000Y-82724000D03*
X153846000Y-82724000D03*
X151306000Y-85264000D03*
X153846000Y-85264000D03*
X151306000Y-87804000D03*
X153846000Y-87804000D03*
X151306000Y-90344000D03*
X153846000Y-90344000D03*
X151306000Y-92884000D03*
X153846000Y-92884000D03*
X151306000Y-95424000D03*
X153846000Y-95424000D03*
X151306000Y-97964000D03*
X153846000Y-97964000D03*
X151306000Y-100504000D03*
X153846000Y-100504000D03*
X151306000Y-103044000D03*
X153846000Y-103044000D03*
X151306000Y-105584000D03*
X153846000Y-105584000D03*
X151306000Y-108124000D03*
X153846000Y-108124000D03*
X151306000Y-110664000D03*
D18*
X153846000Y-110664000D03*
D19*
X163416000Y-82545000D03*
X162766000Y-82545000D03*
X162116000Y-82545000D03*
X161466000Y-82545000D03*
X160816000Y-82545000D03*
D20*
X165841000Y-82495000D03*
X158391000Y-82495000D03*
D21*
X165991000Y-78695000D03*
X158241000Y-78695000D03*
D22*
X164616000Y-81445000D03*
X159616000Y-81445000D03*
M02*
