G04 #@! TF.GenerationSoftware,KiCad,Pcbnew,(5.1.2-1)-1*
G04 #@! TF.CreationDate,2019-05-25T13:38:43+02:00*
G04 #@! TF.ProjectId,XoomFloppy Pro,586f6f6d-466c-46f7-9070-792050726f2e,1.1*
G04 #@! TF.SameCoordinates,Original*
G04 #@! TF.FileFunction,Profile,NP*
%FSLAX46Y46*%
G04 Gerber Fmt 4.6, Leading zero omitted, Abs format (unit mm)*
G04 Created by KiCad (PCBNEW (5.1.2-1)-1) date 2019-05-25 13:38:43*
%MOMM*%
%LPD*%
G04 APERTURE LIST*
%ADD10C,0.150000*%
%ADD11C,0.050000*%
G04 APERTURE END LIST*
D10*
X134391400Y-78234540D02*
G75*
G02X135737600Y-76888340I1346200J0D01*
G01*
X135735060Y-127708660D02*
G75*
G02X134388860Y-126362460I0J1346200D01*
G01*
X204797600Y-126375183D02*
G75*
G02X203451460Y-127708660I-1346140J12723D01*
G01*
X203454000Y-76888340D02*
G75*
G02X204800200Y-78247300I0J-1346260D01*
G01*
X135735060Y-127708660D02*
X203451460Y-127708660D01*
X135737600Y-76888340D02*
X203454000Y-76888340D01*
X134880000Y-85370000D02*
G75*
G02X134380000Y-84870000I0J500000D01*
G01*
X142530000Y-85370000D02*
G75*
G02X143030000Y-85870000I0J-500000D01*
G01*
X143030000Y-86530000D02*
G75*
G02X142530000Y-87030000I-500000J0D01*
G01*
X134380000Y-87530000D02*
G75*
G02X134880000Y-87030000I500000J0D01*
G01*
X134880000Y-113110000D02*
G75*
G02X134380000Y-112610000I0J500000D01*
G01*
X142530000Y-113110000D02*
G75*
G02X143030000Y-113610000I0J-500000D01*
G01*
X143030000Y-114270000D02*
G75*
G02X142530000Y-114770000I-500000J0D01*
G01*
X134380000Y-84870000D02*
X134391400Y-78234540D01*
X142530000Y-85370000D02*
X134880000Y-85370000D01*
X143030000Y-86530000D02*
X143030000Y-85870000D01*
X134880000Y-87030000D02*
X142530000Y-87030000D01*
X134380000Y-112610000D02*
X134380000Y-87530000D01*
X142530000Y-113110000D02*
X134880000Y-113110000D01*
X143030000Y-114270000D02*
X143030000Y-113610000D01*
X134880000Y-114770000D02*
X142530000Y-114770000D01*
X134388860Y-126362460D02*
X134380000Y-115270000D01*
X134380000Y-115270000D02*
G75*
G02X134880000Y-114770000I500000J0D01*
G01*
X204300000Y-122940000D02*
G75*
G02X204800000Y-123440000I0J-500000D01*
G01*
X196650000Y-122940000D02*
G75*
G02X196150000Y-122440000I0J500000D01*
G01*
X196150000Y-121780000D02*
G75*
G02X196650000Y-121280000I500000J0D01*
G01*
X204800000Y-120780000D02*
G75*
G02X204300000Y-121280000I-500000J0D01*
G01*
X204300000Y-87280000D02*
G75*
G02X204800000Y-87780000I0J-500000D01*
G01*
X196650000Y-87280000D02*
G75*
G02X196150000Y-86780000I0J500000D01*
G01*
X196150000Y-86120000D02*
G75*
G02X196650000Y-85620000I500000J0D01*
G01*
X204800000Y-85120000D02*
G75*
G02X204300000Y-85620000I-500000J0D01*
G01*
X204800000Y-85120000D02*
X204800200Y-78247240D01*
X196650000Y-85620000D02*
X204300000Y-85620000D01*
X196150000Y-86780000D02*
X196150000Y-86120000D01*
X204300000Y-87280000D02*
X196650000Y-87280000D01*
X204800000Y-120780000D02*
X204800000Y-87780000D01*
X196650000Y-121280000D02*
X204300000Y-121280000D01*
X196150000Y-122440000D02*
X196150000Y-121780000D01*
X204300000Y-122940000D02*
X196650000Y-122940000D01*
X204800200Y-123441460D02*
X204797600Y-126375183D01*
D11*
X157642507Y-117690648D02*
X157071078Y-117690648D01*
X157356793Y-117690648D02*
X157356793Y-116690648D01*
X157261554Y-116833506D01*
X157166316Y-116928744D01*
X157071078Y-116976363D01*
X179009509Y-120238321D02*
X178438081Y-120238321D01*
X178723795Y-120238321D02*
X178723795Y-119238321D01*
X178628557Y-119381179D01*
X178533319Y-119476417D01*
X178438081Y-119524036D01*
X179914271Y-119238321D02*
X179438081Y-119238321D01*
X179390462Y-119714512D01*
X179438081Y-119666893D01*
X179533319Y-119619274D01*
X179771414Y-119619274D01*
X179866652Y-119666893D01*
X179914271Y-119714512D01*
X179961890Y-119809750D01*
X179961890Y-120047845D01*
X179914271Y-120143083D01*
X179866652Y-120190702D01*
X179771414Y-120238321D01*
X179533319Y-120238321D01*
X179438081Y-120190702D01*
X179390462Y-120143083D01*
X159459801Y-126513833D02*
X159793135Y-126513833D01*
X159935992Y-127037642D02*
X159459801Y-127037642D01*
X159459801Y-126037642D01*
X159935992Y-126037642D01*
X160364563Y-127037642D02*
X160364563Y-126037642D01*
X160602658Y-126037642D01*
X160745516Y-126085262D01*
X160840754Y-126180500D01*
X160888373Y-126275738D01*
X160935992Y-126466214D01*
X160935992Y-126609071D01*
X160888373Y-126799547D01*
X160840754Y-126894785D01*
X160745516Y-126990023D01*
X160602658Y-127037642D01*
X160364563Y-127037642D01*
X161888373Y-126085262D02*
X161793135Y-126037642D01*
X161650277Y-126037642D01*
X161507420Y-126085262D01*
X161412182Y-126180500D01*
X161364563Y-126275738D01*
X161316944Y-126466214D01*
X161316944Y-126609071D01*
X161364563Y-126799547D01*
X161412182Y-126894785D01*
X161507420Y-126990023D01*
X161650277Y-127037642D01*
X161745516Y-127037642D01*
X161888373Y-126990023D01*
X161935992Y-126942404D01*
X161935992Y-126609071D01*
X161745516Y-126609071D01*
X162364563Y-126513833D02*
X162697896Y-126513833D01*
X162840754Y-127037642D02*
X162364563Y-127037642D01*
X162364563Y-126037642D01*
X162840754Y-126037642D01*
X163031230Y-125800262D02*
X164078849Y-125800262D01*
X163459801Y-126037642D02*
X163650277Y-126037642D01*
X163745516Y-126085262D01*
X163840754Y-126180500D01*
X163888373Y-126370976D01*
X163888373Y-126704309D01*
X163840754Y-126894785D01*
X163745516Y-126990023D01*
X163650277Y-127037642D01*
X163459801Y-127037642D01*
X163364563Y-126990023D01*
X163269325Y-126894785D01*
X163221706Y-126704309D01*
X163221706Y-126370976D01*
X163269325Y-126180500D01*
X163364563Y-126085262D01*
X163459801Y-126037642D01*
X164078849Y-125800262D02*
X164935992Y-125800262D01*
X164650277Y-126513833D02*
X164316944Y-126513833D01*
X164316944Y-127037642D02*
X164316944Y-126037642D01*
X164793135Y-126037642D01*
X165174087Y-127037642D02*
X165174087Y-126037642D01*
X165555039Y-126037642D01*
X165650277Y-126085262D01*
X165697896Y-126132881D01*
X165745516Y-126228119D01*
X165745516Y-126370976D01*
X165697896Y-126466214D01*
X165650277Y-126513833D01*
X165555039Y-126561452D01*
X165174087Y-126561452D01*
X166745516Y-126942404D02*
X166697896Y-126990023D01*
X166555039Y-127037642D01*
X166459801Y-127037642D01*
X166316944Y-126990023D01*
X166221706Y-126894785D01*
X166174087Y-126799547D01*
X166126468Y-126609071D01*
X166126468Y-126466214D01*
X166174087Y-126275738D01*
X166221706Y-126180500D01*
X166316944Y-126085262D01*
X166459801Y-126037642D01*
X166555039Y-126037642D01*
X166697896Y-126085262D01*
X166745516Y-126132881D01*
X167507420Y-126513833D02*
X167650277Y-126561452D01*
X167697896Y-126609071D01*
X167745516Y-126704309D01*
X167745516Y-126847166D01*
X167697896Y-126942404D01*
X167650277Y-126990023D01*
X167555039Y-127037642D01*
X167174087Y-127037642D01*
X167174087Y-126037642D01*
X167507420Y-126037642D01*
X167602658Y-126085262D01*
X167650277Y-126132881D01*
X167697896Y-126228119D01*
X167697896Y-126323357D01*
X167650277Y-126418595D01*
X167602658Y-126466214D01*
X167507420Y-126513833D01*
X167174087Y-126513833D01*
X167935992Y-125800262D02*
X168935992Y-125800262D01*
X168507420Y-126513833D02*
X168650277Y-126561452D01*
X168697896Y-126609071D01*
X168745516Y-126704309D01*
X168745516Y-126847166D01*
X168697896Y-126942404D01*
X168650277Y-126990023D01*
X168555039Y-127037642D01*
X168174087Y-127037642D01*
X168174087Y-126037642D01*
X168507420Y-126037642D01*
X168602658Y-126085262D01*
X168650277Y-126132881D01*
X168697896Y-126228119D01*
X168697896Y-126323357D01*
X168650277Y-126418595D01*
X168602658Y-126466214D01*
X168507420Y-126513833D01*
X168174087Y-126513833D01*
X168935992Y-125800262D02*
X169840754Y-125800262D01*
X169316944Y-127037642D02*
X169221706Y-126990023D01*
X169174087Y-126942404D01*
X169126468Y-126847166D01*
X169126468Y-126561452D01*
X169174087Y-126466214D01*
X169221706Y-126418595D01*
X169316944Y-126370976D01*
X169459801Y-126370976D01*
X169555039Y-126418595D01*
X169602658Y-126466214D01*
X169650277Y-126561452D01*
X169650277Y-126847166D01*
X169602658Y-126942404D01*
X169555039Y-126990023D01*
X169459801Y-127037642D01*
X169316944Y-127037642D01*
X169840754Y-125800262D02*
X170745516Y-125800262D01*
X170507420Y-127037642D02*
X170507420Y-126513833D01*
X170459801Y-126418595D01*
X170364563Y-126370976D01*
X170174087Y-126370976D01*
X170078849Y-126418595D01*
X170507420Y-126990023D02*
X170412182Y-127037642D01*
X170174087Y-127037642D01*
X170078849Y-126990023D01*
X170031230Y-126894785D01*
X170031230Y-126799547D01*
X170078849Y-126704309D01*
X170174087Y-126656690D01*
X170412182Y-126656690D01*
X170507420Y-126609071D01*
X170745516Y-125800262D02*
X171364563Y-125800262D01*
X170983611Y-127037642D02*
X170983611Y-126370976D01*
X170983611Y-126561452D02*
X171031230Y-126466214D01*
X171078849Y-126418595D01*
X171174087Y-126370976D01*
X171269325Y-126370976D01*
X171364563Y-125800262D02*
X172269325Y-125800262D01*
X172031230Y-127037642D02*
X172031230Y-126037642D01*
X172031230Y-126990023D02*
X171935992Y-127037642D01*
X171745516Y-127037642D01*
X171650277Y-126990023D01*
X171602658Y-126942404D01*
X171555039Y-126847166D01*
X171555039Y-126561452D01*
X171602658Y-126466214D01*
X171650277Y-126418595D01*
X171745516Y-126370976D01*
X171935992Y-126370976D01*
X172031230Y-126418595D01*
M02*
