M48
; DRILL file {KiCad (5.1.2-1)-1} date Samstag, 25. Mai 2019 um 13:38:45
; FORMAT={-:-/ absolute / inch / decimal}
; #@! TF.CreationDate,2019-05-25T13:38:45+02:00
; #@! TF.GenerationSoftware,Kicad,Pcbnew,(5.1.2-1)-1
FMAT,2
INCH
T1C0.0118
T2C0.0157
T3C0.0217
T4C0.0335
T5C0.0354
T6C0.0394
T7C0.0472
T8C0.1260
T9C0.0315
%
G90
G05
T1
X5.581Y-4.642
X5.582Y-4.018
X5.582Y-4.174
X5.596Y-3.707
X5.602Y-3.239
X5.6392Y-4.6339
X5.6431Y-4.3773
X5.6629Y-3.9442
X5.6658Y-4.0833
X5.6757Y-4.5637
X5.6806Y-3.9947
X5.6865Y-3.6528
X5.7301Y-4.0106
X5.7341Y-3.5771
X5.753Y-3.51
X5.756Y-3.381
X5.7815Y-4.1277
X5.7867Y-4.0748
X5.7971Y-4.0084
X5.8745Y-3.451
X5.9423Y-4.5212
X5.9927Y-4.0106
X6.135Y-3.81
X6.2509Y-4.0826
X6.267Y-4.674
X6.282Y-3.613
X6.2929Y-3.9444
X6.295Y-3.449
X6.3825Y-3.2962
X6.391Y-4.7614
X6.4296Y-3.3392
X6.4682Y-4.1001
X6.4685Y-3.987
X6.5335Y-4.213
X6.5498Y-4.3628
X6.5628Y-4.1449
X6.5781Y-4.5569
X6.602Y-3.893
X6.6112Y-4.4959
X6.6256Y-4.2405
X6.6513Y-4.5
X6.6628Y-4.1538
X6.6651Y-4.381
X6.6704Y-4.2912
X6.684Y-4.007
X6.7153Y-4.3405
X6.7259Y-4.2209
X6.789Y-3.802
X6.8063Y-4.0606
X6.8299Y-4.0354
X6.83Y-4.3254
X6.8409Y-4.1658
X6.8524Y-4.2121
X6.91Y-3.755
X6.948Y-4.521
X6.9618Y-4.3317
X6.9664Y-4.0639
X7.0535Y-4.1879
X7.0612Y-4.2489
X7.1592Y-4.1365
X7.19Y-4.688
X7.2104Y-4.188
X7.2501Y-4.0943
X7.2564Y-3.684
X7.2793Y-4.4267
X7.2873Y-4.1702
X7.305Y-4.785
X7.3099Y-4.0765
X7.3139Y-4.3317
X7.3292Y-4.1427
X7.37Y-3.648
X7.4345Y-3.9317
X7.4681Y-3.9342
X7.4783Y-4.4513
X7.481Y-4.586
X7.516Y-4.268
X7.527Y-4.333
X7.534Y-4.025
X7.588Y-4.664
X7.6283Y-4.3977
X7.635Y-3.963
X7.6538Y-4.0899
X7.68Y-3.688
X7.6967Y-4.2859
X7.7061Y-4.403
X7.7175Y-4.5202
X7.763Y-3.716
X7.764Y-3.871
T2
X6.3074Y-4.1727
X6.4316Y-3.1996
X7.1551Y-4.4991
X7.3858Y-3.9762
T5
X6.7Y-3.925
X6.8Y-3.925
T6
X5.9569Y-3.2569
X5.9569Y-3.3569
X5.9569Y-3.4569
X5.9569Y-3.5569
X5.9569Y-3.6569
X5.9569Y-3.7569
X5.9569Y-3.8569
X5.9569Y-3.9569
X5.9569Y-4.0569
X5.9569Y-4.1569
X5.9569Y-4.2569
X5.9569Y-4.3569
X6.0569Y-3.2569
X6.0569Y-3.3569
X6.0569Y-3.4569
X6.0569Y-3.5569
X6.0569Y-3.6569
X6.0569Y-3.7569
X6.0569Y-3.8569
X6.0569Y-3.9569
X6.0569Y-4.0569
X6.0569Y-4.1569
X6.0569Y-4.2569
X6.0569Y-4.3569
X6.2935Y-4.5848
X6.348Y-4.6967
X6.4026Y-4.5848
X6.4571Y-4.6967
X6.5116Y-4.5848
X6.5661Y-4.6967
X6.6207Y-4.5848
X6.6752Y-4.6967
X6.7297Y-4.5848
X6.7843Y-4.6967
X6.8388Y-4.5848
X6.8933Y-4.6967
X6.9478Y-4.5848
X7.0024Y-4.6967
X7.0569Y-4.5848
T7
X6.7033Y-3.5275
X6.8017Y-3.1456
X6.8017Y-3.6259
X6.9985Y-3.5275
X6.9985Y-3.7244
X7.1954Y-3.1456
X7.1954Y-3.6259
X7.2938Y-3.5275
T8
X6.0197Y-4.6407
X7.3307Y-4.6407
X7.564Y-4.873
X7.564Y-3.1722
X5.7884Y-4.873
X5.7884Y-3.1722
T9
X6.2841Y-3.2065
X6.4809Y-3.2065
T3
G00X6.23Y-3.111
M15
G01X6.23Y-3.0854
M16
G05
G00X6.5351Y-3.111
M15
G01X6.5351Y-3.0854
M16
G05
T4
G00X6.2359Y-3.2587
M15
G01X6.2359Y-3.237
M16
G05
G00X6.5292Y-3.2587
M15
G01X6.5292Y-3.237
M16
G05
T0
M30
