G04 #@! TF.GenerationSoftware,KiCad,Pcbnew,(5.1.2-1)-1*
G04 #@! TF.CreationDate,2019-05-25T13:38:43+02:00*
G04 #@! TF.ProjectId,XoomFloppy Pro,586f6f6d-466c-46f7-9070-792050726f2e,1.1*
G04 #@! TF.SameCoordinates,Original*
G04 #@! TF.FileFunction,Legend,Top*
G04 #@! TF.FilePolarity,Positive*
%FSLAX46Y46*%
G04 Gerber Fmt 4.6, Leading zero omitted, Abs format (unit mm)*
G04 Created by KiCad (PCBNEW (5.1.2-1)-1) date 2019-05-25 13:38:43*
%MOMM*%
%LPD*%
G04 APERTURE LIST*
%ADD10C,0.250000*%
%ADD11C,0.300000*%
%ADD12C,0.010000*%
%ADD13C,0.150000*%
%ADD14C,0.127000*%
%ADD15C,0.120000*%
%ADD16C,0.050000*%
G04 APERTURE END LIST*
D10*
X143794219Y-80531934D02*
X143794219Y-79960505D01*
X143794219Y-80246220D02*
X144794219Y-80246220D01*
X144651361Y-80150981D01*
X144556123Y-80055743D01*
X144508504Y-79960505D01*
X143819619Y-123634523D02*
X143819619Y-123063095D01*
X143819619Y-123348809D02*
X144819619Y-123348809D01*
X144676761Y-123253571D01*
X144581523Y-123158333D01*
X144533904Y-123063095D01*
X144724380Y-124015476D02*
X144772000Y-124063095D01*
X144819619Y-124158333D01*
X144819619Y-124396428D01*
X144772000Y-124491666D01*
X144724380Y-124539285D01*
X144629142Y-124586904D01*
X144533904Y-124586904D01*
X144391047Y-124539285D01*
X143819619Y-123967857D01*
X143819619Y-124586904D01*
X195397380Y-80708476D02*
X195397380Y-81279904D01*
X195397380Y-80994190D02*
X194397380Y-80994190D01*
X194540238Y-81089428D01*
X194635476Y-81184666D01*
X194683095Y-81279904D01*
X194492619Y-80327523D02*
X194445000Y-80279904D01*
X194397380Y-80184666D01*
X194397380Y-79946571D01*
X194445000Y-79851333D01*
X194492619Y-79803714D01*
X194587857Y-79756095D01*
X194683095Y-79756095D01*
X194825952Y-79803714D01*
X195397380Y-80375142D01*
X195397380Y-79756095D01*
X195397380Y-123793285D02*
X195397380Y-124364714D01*
X195397380Y-124079000D02*
X194397380Y-124079000D01*
X194540238Y-124174238D01*
X194635476Y-124269476D01*
X194683095Y-124364714D01*
D11*
X166682166Y-84583666D02*
X166682166Y-85983666D01*
X166215500Y-84983666D01*
X165748833Y-85983666D01*
X165748833Y-84583666D01*
X165082166Y-84583666D02*
X165082166Y-85517000D01*
X165082166Y-85983666D02*
X165148833Y-85917000D01*
X165082166Y-85850333D01*
X165015500Y-85917000D01*
X165082166Y-85983666D01*
X165082166Y-85850333D01*
X163815500Y-84650333D02*
X163948833Y-84583666D01*
X164215500Y-84583666D01*
X164348833Y-84650333D01*
X164415500Y-84717000D01*
X164482166Y-84850333D01*
X164482166Y-85250333D01*
X164415500Y-85383666D01*
X164348833Y-85450333D01*
X164215500Y-85517000D01*
X163948833Y-85517000D01*
X163815500Y-85450333D01*
X163215500Y-84583666D02*
X163215500Y-85517000D01*
X163215500Y-85250333D02*
X163148833Y-85383666D01*
X163082166Y-85450333D01*
X162948833Y-85517000D01*
X162815500Y-85517000D01*
X162148833Y-84583666D02*
X162282166Y-84650333D01*
X162348833Y-84717000D01*
X162415500Y-84850333D01*
X162415500Y-85250333D01*
X162348833Y-85383666D01*
X162282166Y-85450333D01*
X162148833Y-85517000D01*
X161948833Y-85517000D01*
X161815500Y-85450333D01*
X161748833Y-85383666D01*
X161682166Y-85250333D01*
X161682166Y-84850333D01*
X161748833Y-84717000D01*
X161815500Y-84650333D01*
X161948833Y-84583666D01*
X162148833Y-84583666D01*
X161082166Y-85983666D02*
X161082166Y-84850333D01*
X161015500Y-84717000D01*
X160948833Y-84650333D01*
X160815500Y-84583666D01*
X160548833Y-84583666D01*
X160415500Y-84650333D01*
X160348833Y-84717000D01*
X160282166Y-84850333D01*
X160282166Y-85983666D01*
X159682166Y-84650333D02*
X159482166Y-84583666D01*
X159148833Y-84583666D01*
X159015500Y-84650333D01*
X158948833Y-84717000D01*
X158882166Y-84850333D01*
X158882166Y-84983666D01*
X158948833Y-85117000D01*
X159015500Y-85183666D01*
X159148833Y-85250333D01*
X159415500Y-85317000D01*
X159548833Y-85383666D01*
X159615500Y-85450333D01*
X159682166Y-85583666D01*
X159682166Y-85717000D01*
X159615500Y-85850333D01*
X159548833Y-85917000D01*
X159415500Y-85983666D01*
X159082166Y-85983666D01*
X158882166Y-85917000D01*
X157815500Y-85317000D02*
X157615500Y-85250333D01*
X157548833Y-85183666D01*
X157482166Y-85050333D01*
X157482166Y-84850333D01*
X157548833Y-84717000D01*
X157615500Y-84650333D01*
X157748833Y-84583666D01*
X158282166Y-84583666D01*
X158282166Y-85983666D01*
X157815500Y-85983666D01*
X157682166Y-85917000D01*
X157615500Y-85850333D01*
X157548833Y-85717000D01*
X157548833Y-85583666D01*
X157615500Y-85450333D01*
X157682166Y-85383666D01*
X157815500Y-85317000D01*
X158282166Y-85317000D01*
X181808333Y-96541666D02*
X181808333Y-97941666D01*
X181141666Y-97275000D02*
X180675000Y-97275000D01*
X180475000Y-96541666D02*
X181141666Y-96541666D01*
X181141666Y-97941666D01*
X180475000Y-97941666D01*
X179075000Y-96675000D02*
X179141666Y-96608333D01*
X179341666Y-96541666D01*
X179475000Y-96541666D01*
X179675000Y-96608333D01*
X179808333Y-96741666D01*
X179875000Y-96875000D01*
X179941666Y-97141666D01*
X179941666Y-97341666D01*
X179875000Y-97608333D01*
X179808333Y-97741666D01*
X179675000Y-97875000D01*
X179475000Y-97941666D01*
X179341666Y-97941666D01*
X179141666Y-97875000D01*
X179075000Y-97808333D01*
X177408333Y-96541666D02*
X177408333Y-97941666D01*
X176875000Y-97941666D01*
X176741666Y-97875000D01*
X176675000Y-97808333D01*
X176608333Y-97675000D01*
X176608333Y-97475000D01*
X176675000Y-97341666D01*
X176741666Y-97275000D01*
X176875000Y-97208333D01*
X177408333Y-97208333D01*
X175808333Y-96541666D02*
X175941666Y-96608333D01*
X176008333Y-96675000D01*
X176075000Y-96808333D01*
X176075000Y-97208333D01*
X176008333Y-97341666D01*
X175941666Y-97408333D01*
X175808333Y-97475000D01*
X175608333Y-97475000D01*
X175475000Y-97408333D01*
X175408333Y-97341666D01*
X175341666Y-97208333D01*
X175341666Y-96808333D01*
X175408333Y-96675000D01*
X175475000Y-96608333D01*
X175608333Y-96541666D01*
X175808333Y-96541666D01*
X174741666Y-96541666D02*
X174741666Y-97475000D01*
X174741666Y-97208333D02*
X174675000Y-97341666D01*
X174608333Y-97408333D01*
X174475000Y-97475000D01*
X174341666Y-97475000D01*
X174075000Y-97475000D02*
X173541666Y-97475000D01*
X173875000Y-97941666D02*
X173875000Y-96741666D01*
X173808333Y-96608333D01*
X173675000Y-96541666D01*
X173541666Y-96541666D01*
X159891666Y-113358333D02*
X159891666Y-111958333D01*
X160225000Y-111958333D01*
X160425000Y-112025000D01*
X160558333Y-112158333D01*
X160625000Y-112291666D01*
X160691666Y-112558333D01*
X160691666Y-112758333D01*
X160625000Y-113025000D01*
X160558333Y-113158333D01*
X160425000Y-113291666D01*
X160225000Y-113358333D01*
X159891666Y-113358333D01*
X161758333Y-112625000D02*
X161958333Y-112691666D01*
X162025000Y-112758333D01*
X162091666Y-112891666D01*
X162091666Y-113091666D01*
X162025000Y-113225000D01*
X161958333Y-113291666D01*
X161825000Y-113358333D01*
X161291666Y-113358333D01*
X161291666Y-111958333D01*
X161758333Y-111958333D01*
X161891666Y-112025000D01*
X161958333Y-112091666D01*
X162025000Y-112225000D01*
X162025000Y-112358333D01*
X161958333Y-112491666D01*
X161891666Y-112558333D01*
X161758333Y-112625000D01*
X161291666Y-112625000D01*
X163425000Y-113358333D02*
X162625000Y-113358333D01*
X163025000Y-113358333D02*
X163025000Y-111958333D01*
X162891666Y-112158333D01*
X162758333Y-112291666D01*
X162625000Y-112358333D01*
X164691666Y-111958333D02*
X164025000Y-111958333D01*
X163958333Y-112625000D01*
X164025000Y-112558333D01*
X164158333Y-112491666D01*
X164491666Y-112491666D01*
X164625000Y-112558333D01*
X164691666Y-112625000D01*
X164758333Y-112758333D01*
X164758333Y-113091666D01*
X164691666Y-113225000D01*
X164625000Y-113291666D01*
X164491666Y-113358333D01*
X164158333Y-113358333D01*
X164025000Y-113291666D01*
X163958333Y-113225000D01*
X166425000Y-113358333D02*
X166425000Y-111958333D01*
X166958333Y-111958333D01*
X167091666Y-112025000D01*
X167158333Y-112091666D01*
X167225000Y-112225000D01*
X167225000Y-112425000D01*
X167158333Y-112558333D01*
X167091666Y-112625000D01*
X166958333Y-112691666D01*
X166425000Y-112691666D01*
X168425000Y-113358333D02*
X168425000Y-112625000D01*
X168358333Y-112491666D01*
X168225000Y-112425000D01*
X167958333Y-112425000D01*
X167825000Y-112491666D01*
X168425000Y-113291666D02*
X168291666Y-113358333D01*
X167958333Y-113358333D01*
X167825000Y-113291666D01*
X167758333Y-113158333D01*
X167758333Y-113025000D01*
X167825000Y-112891666D01*
X167958333Y-112825000D01*
X168291666Y-112825000D01*
X168425000Y-112758333D01*
X169091666Y-113358333D02*
X169091666Y-112425000D01*
X169091666Y-112691666D02*
X169158333Y-112558333D01*
X169225000Y-112491666D01*
X169358333Y-112425000D01*
X169491666Y-112425000D01*
X170558333Y-113358333D02*
X170558333Y-112625000D01*
X170491666Y-112491666D01*
X170358333Y-112425000D01*
X170091666Y-112425000D01*
X169958333Y-112491666D01*
X170558333Y-113291666D02*
X170425000Y-113358333D01*
X170091666Y-113358333D01*
X169958333Y-113291666D01*
X169891666Y-113158333D01*
X169891666Y-113025000D01*
X169958333Y-112891666D01*
X170091666Y-112825000D01*
X170425000Y-112825000D01*
X170558333Y-112758333D01*
X171425000Y-113358333D02*
X171291666Y-113291666D01*
X171225000Y-113158333D01*
X171225000Y-111958333D01*
X172158333Y-113358333D02*
X172025000Y-113291666D01*
X171958333Y-113158333D01*
X171958333Y-111958333D01*
X173225000Y-113291666D02*
X173091666Y-113358333D01*
X172825000Y-113358333D01*
X172691666Y-113291666D01*
X172625000Y-113158333D01*
X172625000Y-112625000D01*
X172691666Y-112491666D01*
X172825000Y-112425000D01*
X173091666Y-112425000D01*
X173225000Y-112491666D01*
X173291666Y-112625000D01*
X173291666Y-112758333D01*
X172625000Y-112891666D01*
X174091666Y-113358333D02*
X173958333Y-113291666D01*
X173891666Y-113158333D01*
X173891666Y-111958333D01*
X175691666Y-113358333D02*
X175691666Y-111958333D01*
X176225000Y-111958333D01*
X176358333Y-112025000D01*
X176425000Y-112091666D01*
X176491666Y-112225000D01*
X176491666Y-112425000D01*
X176425000Y-112558333D01*
X176358333Y-112625000D01*
X176225000Y-112691666D01*
X175691666Y-112691666D01*
X177291666Y-113358333D02*
X177158333Y-113291666D01*
X177091666Y-113225000D01*
X177025000Y-113091666D01*
X177025000Y-112691666D01*
X177091666Y-112558333D01*
X177158333Y-112491666D01*
X177291666Y-112425000D01*
X177491666Y-112425000D01*
X177625000Y-112491666D01*
X177691666Y-112558333D01*
X177758333Y-112691666D01*
X177758333Y-113091666D01*
X177691666Y-113225000D01*
X177625000Y-113291666D01*
X177491666Y-113358333D01*
X177291666Y-113358333D01*
X178358333Y-113358333D02*
X178358333Y-112425000D01*
X178358333Y-112691666D02*
X178425000Y-112558333D01*
X178491666Y-112491666D01*
X178625000Y-112425000D01*
X178758333Y-112425000D01*
X179025000Y-112425000D02*
X179558333Y-112425000D01*
X179225000Y-111958333D02*
X179225000Y-113158333D01*
X179291666Y-113291666D01*
X179425000Y-113358333D01*
X179558333Y-113358333D01*
X195108333Y-108941666D02*
X193708333Y-108941666D01*
X193708333Y-108408333D01*
X193775000Y-108275000D01*
X193841666Y-108208333D01*
X193975000Y-108141666D01*
X194175000Y-108141666D01*
X194308333Y-108208333D01*
X194375000Y-108275000D01*
X194441666Y-108408333D01*
X194441666Y-108941666D01*
X195108333Y-106941666D02*
X194375000Y-106941666D01*
X194241666Y-107008333D01*
X194175000Y-107141666D01*
X194175000Y-107408333D01*
X194241666Y-107541666D01*
X195041666Y-106941666D02*
X195108333Y-107075000D01*
X195108333Y-107408333D01*
X195041666Y-107541666D01*
X194908333Y-107608333D01*
X194775000Y-107608333D01*
X194641666Y-107541666D01*
X194575000Y-107408333D01*
X194575000Y-107075000D01*
X194508333Y-106941666D01*
X195108333Y-106275000D02*
X194175000Y-106275000D01*
X194441666Y-106275000D02*
X194308333Y-106208333D01*
X194241666Y-106141666D01*
X194175000Y-106008333D01*
X194175000Y-105875000D01*
X195108333Y-104808333D02*
X194375000Y-104808333D01*
X194241666Y-104875000D01*
X194175000Y-105008333D01*
X194175000Y-105275000D01*
X194241666Y-105408333D01*
X195041666Y-104808333D02*
X195108333Y-104941666D01*
X195108333Y-105275000D01*
X195041666Y-105408333D01*
X194908333Y-105475000D01*
X194775000Y-105475000D01*
X194641666Y-105408333D01*
X194575000Y-105275000D01*
X194575000Y-104941666D01*
X194508333Y-104808333D01*
X195108333Y-103941666D02*
X195041666Y-104075000D01*
X194908333Y-104141666D01*
X193708333Y-104141666D01*
X195108333Y-103208333D02*
X195041666Y-103341666D01*
X194908333Y-103408333D01*
X193708333Y-103408333D01*
X195041666Y-102141666D02*
X195108333Y-102275000D01*
X195108333Y-102541666D01*
X195041666Y-102675000D01*
X194908333Y-102741666D01*
X194375000Y-102741666D01*
X194241666Y-102675000D01*
X194175000Y-102541666D01*
X194175000Y-102275000D01*
X194241666Y-102141666D01*
X194375000Y-102075000D01*
X194508333Y-102075000D01*
X194641666Y-102741666D01*
X195108333Y-101275000D02*
X195041666Y-101408333D01*
X194908333Y-101475000D01*
X193708333Y-101475000D01*
X195108333Y-99675000D02*
X193708333Y-99675000D01*
X193708333Y-99141666D01*
X193775000Y-99008333D01*
X193841666Y-98941666D01*
X193975000Y-98875000D01*
X194175000Y-98875000D01*
X194308333Y-98941666D01*
X194375000Y-99008333D01*
X194441666Y-99141666D01*
X194441666Y-99675000D01*
X195108333Y-98075000D02*
X195041666Y-98208333D01*
X194975000Y-98275000D01*
X194841666Y-98341666D01*
X194441666Y-98341666D01*
X194308333Y-98275000D01*
X194241666Y-98208333D01*
X194175000Y-98075000D01*
X194175000Y-97875000D01*
X194241666Y-97741666D01*
X194308333Y-97675000D01*
X194441666Y-97608333D01*
X194841666Y-97608333D01*
X194975000Y-97675000D01*
X195041666Y-97741666D01*
X195108333Y-97875000D01*
X195108333Y-98075000D01*
X195108333Y-97008333D02*
X194175000Y-97008333D01*
X194441666Y-97008333D02*
X194308333Y-96941666D01*
X194241666Y-96875000D01*
X194175000Y-96741666D01*
X194175000Y-96608333D01*
X194175000Y-96341666D02*
X194175000Y-95808333D01*
X193708333Y-96141666D02*
X194908333Y-96141666D01*
X195041666Y-96075000D01*
X195108333Y-95941666D01*
X195108333Y-95808333D01*
X143976486Y-94600693D02*
X145376486Y-94600693D01*
X144709820Y-95267360D02*
X144709820Y-95734026D01*
X143976486Y-95934026D02*
X143976486Y-95267360D01*
X145376486Y-95267360D01*
X145376486Y-95934026D01*
X144709820Y-96534026D02*
X144709820Y-97000693D01*
X143976486Y-97200693D02*
X143976486Y-96534026D01*
X145376486Y-96534026D01*
X145376486Y-97200693D01*
X144709820Y-97800693D02*
X144709820Y-98267360D01*
X143976486Y-98467360D02*
X143976486Y-97800693D01*
X145376486Y-97800693D01*
X145376486Y-98467360D01*
X144509820Y-99067360D02*
X144509820Y-100134026D01*
X144909820Y-101400693D02*
X143976486Y-101400693D01*
X145443153Y-101067360D02*
X144443153Y-100734026D01*
X144443153Y-101600693D01*
X144776486Y-102334026D02*
X144843153Y-102200693D01*
X144909820Y-102134026D01*
X145043153Y-102067360D01*
X145109820Y-102067360D01*
X145243153Y-102134026D01*
X145309820Y-102200693D01*
X145376486Y-102334026D01*
X145376486Y-102600693D01*
X145309820Y-102734026D01*
X145243153Y-102800693D01*
X145109820Y-102867360D01*
X145043153Y-102867360D01*
X144909820Y-102800693D01*
X144843153Y-102734026D01*
X144776486Y-102600693D01*
X144776486Y-102334026D01*
X144709820Y-102200693D01*
X144643153Y-102134026D01*
X144509820Y-102067360D01*
X144243153Y-102067360D01*
X144109820Y-102134026D01*
X144043153Y-102200693D01*
X143976486Y-102334026D01*
X143976486Y-102600693D01*
X144043153Y-102734026D01*
X144109820Y-102800693D01*
X144243153Y-102867360D01*
X144509820Y-102867360D01*
X144643153Y-102800693D01*
X144709820Y-102734026D01*
X144776486Y-102600693D01*
X144776486Y-103667360D02*
X144843153Y-103534026D01*
X144909820Y-103467360D01*
X145043153Y-103400693D01*
X145109820Y-103400693D01*
X145243153Y-103467360D01*
X145309820Y-103534026D01*
X145376486Y-103667360D01*
X145376486Y-103934026D01*
X145309820Y-104067360D01*
X145243153Y-104134026D01*
X145109820Y-104200693D01*
X145043153Y-104200693D01*
X144909820Y-104134026D01*
X144843153Y-104067360D01*
X144776486Y-103934026D01*
X144776486Y-103667360D01*
X144709820Y-103534026D01*
X144643153Y-103467360D01*
X144509820Y-103400693D01*
X144243153Y-103400693D01*
X144109820Y-103467360D01*
X144043153Y-103534026D01*
X143976486Y-103667360D01*
X143976486Y-103934026D01*
X144043153Y-104067360D01*
X144109820Y-104134026D01*
X144243153Y-104200693D01*
X144509820Y-104200693D01*
X144643153Y-104134026D01*
X144709820Y-104067360D01*
X144776486Y-103934026D01*
X143976486Y-105867360D02*
X145376486Y-105867360D01*
X145376486Y-106400693D01*
X145309820Y-106534026D01*
X145243153Y-106600693D01*
X145109820Y-106667360D01*
X144909820Y-106667360D01*
X144776486Y-106600693D01*
X144709820Y-106534026D01*
X144643153Y-106400693D01*
X144643153Y-105867360D01*
X143976486Y-107467360D02*
X144043153Y-107334026D01*
X144109820Y-107267360D01*
X144243153Y-107200693D01*
X144643153Y-107200693D01*
X144776486Y-107267360D01*
X144843153Y-107334026D01*
X144909820Y-107467360D01*
X144909820Y-107667360D01*
X144843153Y-107800693D01*
X144776486Y-107867360D01*
X144643153Y-107934026D01*
X144243153Y-107934026D01*
X144109820Y-107867360D01*
X144043153Y-107800693D01*
X143976486Y-107667360D01*
X143976486Y-107467360D01*
X143976486Y-108534026D02*
X144909820Y-108534026D01*
X144643153Y-108534026D02*
X144776486Y-108600693D01*
X144843153Y-108667360D01*
X144909820Y-108800693D01*
X144909820Y-108934026D01*
X144909820Y-109200693D02*
X144909820Y-109734026D01*
X145376486Y-109400693D02*
X144176486Y-109400693D01*
X144043153Y-109467360D01*
X143976486Y-109600693D01*
X143976486Y-109734026D01*
X147728066Y-87816666D02*
X149128066Y-87816666D01*
X148461400Y-88483333D02*
X148461400Y-88950000D01*
X147728066Y-89150000D02*
X147728066Y-88483333D01*
X149128066Y-88483333D01*
X149128066Y-89150000D01*
X148461400Y-89750000D02*
X148461400Y-90216666D01*
X147728066Y-90416666D02*
X147728066Y-89750000D01*
X149128066Y-89750000D01*
X149128066Y-90416666D01*
X148461400Y-91016666D02*
X148461400Y-91483333D01*
X147728066Y-91683333D02*
X147728066Y-91016666D01*
X149128066Y-91016666D01*
X149128066Y-91683333D01*
X148261400Y-92283333D02*
X148261400Y-93350000D01*
X148661400Y-94616666D02*
X147728066Y-94616666D01*
X149194733Y-94283333D02*
X148194733Y-93950000D01*
X148194733Y-94816666D01*
X148528066Y-95550000D02*
X148594733Y-95416666D01*
X148661400Y-95350000D01*
X148794733Y-95283333D01*
X148861400Y-95283333D01*
X148994733Y-95350000D01*
X149061400Y-95416666D01*
X149128066Y-95550000D01*
X149128066Y-95816666D01*
X149061400Y-95950000D01*
X148994733Y-96016666D01*
X148861400Y-96083333D01*
X148794733Y-96083333D01*
X148661400Y-96016666D01*
X148594733Y-95950000D01*
X148528066Y-95816666D01*
X148528066Y-95550000D01*
X148461400Y-95416666D01*
X148394733Y-95350000D01*
X148261400Y-95283333D01*
X147994733Y-95283333D01*
X147861400Y-95350000D01*
X147794733Y-95416666D01*
X147728066Y-95550000D01*
X147728066Y-95816666D01*
X147794733Y-95950000D01*
X147861400Y-96016666D01*
X147994733Y-96083333D01*
X148261400Y-96083333D01*
X148394733Y-96016666D01*
X148461400Y-95950000D01*
X148528066Y-95816666D01*
X148528066Y-96883333D02*
X148594733Y-96750000D01*
X148661400Y-96683333D01*
X148794733Y-96616666D01*
X148861400Y-96616666D01*
X148994733Y-96683333D01*
X149061400Y-96750000D01*
X149128066Y-96883333D01*
X149128066Y-97150000D01*
X149061400Y-97283333D01*
X148994733Y-97350000D01*
X148861400Y-97416666D01*
X148794733Y-97416666D01*
X148661400Y-97350000D01*
X148594733Y-97283333D01*
X148528066Y-97150000D01*
X148528066Y-96883333D01*
X148461400Y-96750000D01*
X148394733Y-96683333D01*
X148261400Y-96616666D01*
X147994733Y-96616666D01*
X147861400Y-96683333D01*
X147794733Y-96750000D01*
X147728066Y-96883333D01*
X147728066Y-97150000D01*
X147794733Y-97283333D01*
X147861400Y-97350000D01*
X147994733Y-97416666D01*
X148261400Y-97416666D01*
X148394733Y-97350000D01*
X148461400Y-97283333D01*
X148528066Y-97150000D01*
X147728066Y-99083333D02*
X149128066Y-99083333D01*
X148461400Y-99083333D02*
X148461400Y-99883333D01*
X147728066Y-99883333D02*
X149128066Y-99883333D01*
X147794733Y-101083333D02*
X147728066Y-100950000D01*
X147728066Y-100683333D01*
X147794733Y-100550000D01*
X147928066Y-100483333D01*
X148461400Y-100483333D01*
X148594733Y-100550000D01*
X148661400Y-100683333D01*
X148661400Y-100950000D01*
X148594733Y-101083333D01*
X148461400Y-101150000D01*
X148328066Y-101150000D01*
X148194733Y-100483333D01*
X147728066Y-102350000D02*
X148461400Y-102350000D01*
X148594733Y-102283333D01*
X148661400Y-102150000D01*
X148661400Y-101883333D01*
X148594733Y-101750000D01*
X147794733Y-102350000D02*
X147728066Y-102216666D01*
X147728066Y-101883333D01*
X147794733Y-101750000D01*
X147928066Y-101683333D01*
X148061400Y-101683333D01*
X148194733Y-101750000D01*
X148261400Y-101883333D01*
X148261400Y-102216666D01*
X148328066Y-102350000D01*
X147728066Y-103616666D02*
X149128066Y-103616666D01*
X147794733Y-103616666D02*
X147728066Y-103483333D01*
X147728066Y-103216666D01*
X147794733Y-103083333D01*
X147861400Y-103016666D01*
X147994733Y-102950000D01*
X148394733Y-102950000D01*
X148528066Y-103016666D01*
X148594733Y-103083333D01*
X148661400Y-103216666D01*
X148661400Y-103483333D01*
X148594733Y-103616666D01*
X147794733Y-104816666D02*
X147728066Y-104683333D01*
X147728066Y-104416666D01*
X147794733Y-104283333D01*
X147928066Y-104216666D01*
X148461400Y-104216666D01*
X148594733Y-104283333D01*
X148661400Y-104416666D01*
X148661400Y-104683333D01*
X148594733Y-104816666D01*
X148461400Y-104883333D01*
X148328066Y-104883333D01*
X148194733Y-104216666D01*
X147728066Y-105483333D02*
X148661400Y-105483333D01*
X148394733Y-105483333D02*
X148528066Y-105550000D01*
X148594733Y-105616666D01*
X148661400Y-105750000D01*
X148661400Y-105883333D01*
D10*
X153837619Y-79729523D02*
X153837619Y-79158095D01*
X153837619Y-79443809D02*
X154837619Y-79443809D01*
X154694761Y-79348571D01*
X154599523Y-79253333D01*
X154551904Y-79158095D01*
X154742380Y-80110476D02*
X154790000Y-80158095D01*
X154837619Y-80253333D01*
X154837619Y-80491428D01*
X154790000Y-80586666D01*
X154742380Y-80634285D01*
X154647142Y-80681904D01*
X154551904Y-80681904D01*
X154409047Y-80634285D01*
X153837619Y-80062857D01*
X153837619Y-80681904D01*
X151242380Y-79158095D02*
X151290000Y-79205714D01*
X151337619Y-79300952D01*
X151337619Y-79539047D01*
X151290000Y-79634285D01*
X151242380Y-79681904D01*
X151147142Y-79729523D01*
X151051904Y-79729523D01*
X150909047Y-79681904D01*
X150337619Y-79110476D01*
X150337619Y-79729523D01*
X151004285Y-80586666D02*
X150337619Y-80586666D01*
X151385238Y-80348571D02*
X150670952Y-80110476D01*
X150670952Y-80729523D01*
X153867619Y-113384404D02*
X153867619Y-112812976D01*
X153867619Y-113098690D02*
X154867619Y-113098690D01*
X154724761Y-113003452D01*
X154629523Y-112908214D01*
X154581904Y-112812976D01*
X150367619Y-113384404D02*
X150367619Y-112812976D01*
X150367619Y-113098690D02*
X151367619Y-113098690D01*
X151224761Y-113003452D01*
X151129523Y-112908214D01*
X151081904Y-112812976D01*
X151367619Y-113717738D02*
X151367619Y-114336785D01*
X150986666Y-114003452D01*
X150986666Y-114146309D01*
X150939047Y-114241547D01*
X150891428Y-114289166D01*
X150796190Y-114336785D01*
X150558095Y-114336785D01*
X150462857Y-114289166D01*
X150415238Y-114241547D01*
X150367619Y-114146309D01*
X150367619Y-113860595D01*
X150415238Y-113765357D01*
X150462857Y-113717738D01*
D12*
G36*
X191069502Y-103100926D02*
G01*
X191094360Y-103103278D01*
X191162370Y-103113544D01*
X191232605Y-103128794D01*
X191301812Y-103148143D01*
X191366739Y-103170706D01*
X191411564Y-103189617D01*
X191492307Y-103232255D01*
X191566256Y-103282260D01*
X191633280Y-103339331D01*
X191693247Y-103403165D01*
X191746027Y-103473460D01*
X191791487Y-103549914D01*
X191829497Y-103632224D01*
X191859925Y-103720087D01*
X191882640Y-103813203D01*
X191897512Y-103911267D01*
X191904408Y-104013979D01*
X191903197Y-104121035D01*
X191893748Y-104232133D01*
X191886683Y-104283963D01*
X191873323Y-104359994D01*
X191857316Y-104428288D01*
X191837995Y-104491074D01*
X191814693Y-104550582D01*
X191793059Y-104596685D01*
X191748340Y-104676310D01*
X191696134Y-104751899D01*
X191636122Y-104823726D01*
X191567985Y-104892064D01*
X191491407Y-104957186D01*
X191406069Y-105019367D01*
X191311653Y-105078881D01*
X191207841Y-105136001D01*
X191112461Y-105182651D01*
X190998753Y-105232876D01*
X190890299Y-105275367D01*
X190786112Y-105310407D01*
X190685208Y-105338279D01*
X190586599Y-105359267D01*
X190489301Y-105373656D01*
X190428880Y-105379411D01*
X190395384Y-105381760D01*
X190368711Y-105383109D01*
X190345578Y-105383497D01*
X190322702Y-105382961D01*
X190296799Y-105381539D01*
X190289180Y-105381031D01*
X190199722Y-105371526D01*
X190118239Y-105355778D01*
X190044661Y-105333748D01*
X189978920Y-105305402D01*
X189920947Y-105270703D01*
X189870673Y-105229615D01*
X189828031Y-105182101D01*
X189792950Y-105128125D01*
X189786231Y-105115360D01*
X189777455Y-105096424D01*
X189768396Y-105074270D01*
X189760007Y-105051572D01*
X189753240Y-105031000D01*
X189749050Y-105015228D01*
X189748160Y-105008670D01*
X189744723Y-105002422D01*
X189735211Y-104990450D01*
X189720820Y-104974126D01*
X189702747Y-104954821D01*
X189687991Y-104939709D01*
X189665327Y-104916104D01*
X189643033Y-104891484D01*
X189623115Y-104868161D01*
X189607580Y-104848446D01*
X189602306Y-104840999D01*
X189562576Y-104774485D01*
X189530716Y-104705039D01*
X189506285Y-104631350D01*
X189488844Y-104552106D01*
X189481878Y-104498140D01*
X190077035Y-104498140D01*
X190115152Y-104534342D01*
X190168786Y-104579965D01*
X190224046Y-104616143D01*
X190282240Y-104643587D01*
X190344678Y-104663005D01*
X190357760Y-104665982D01*
X190379033Y-104669244D01*
X190406739Y-104671127D01*
X190442207Y-104671691D01*
X190474600Y-104671287D01*
X190508478Y-104670356D01*
X190535042Y-104668973D01*
X190557139Y-104666798D01*
X190577612Y-104663492D01*
X190599309Y-104658714D01*
X190616840Y-104654288D01*
X190703305Y-104628353D01*
X190781974Y-104597693D01*
X190852584Y-104562487D01*
X190914875Y-104522913D01*
X190968585Y-104479151D01*
X191013452Y-104431379D01*
X191049214Y-104379774D01*
X191066000Y-104347468D01*
X191080445Y-104312172D01*
X191090385Y-104277846D01*
X191096289Y-104241724D01*
X191098627Y-104201040D01*
X191098081Y-104158535D01*
X191092216Y-104091524D01*
X191079777Y-104032111D01*
X191060792Y-103980342D01*
X191035290Y-103936267D01*
X191003298Y-103899933D01*
X190964845Y-103871388D01*
X190919959Y-103850680D01*
X190915280Y-103849095D01*
X190889406Y-103843196D01*
X190856479Y-103839581D01*
X190819350Y-103838274D01*
X190780872Y-103839300D01*
X190743897Y-103842681D01*
X190715900Y-103847401D01*
X190662632Y-103861087D01*
X190604369Y-103879881D01*
X190544083Y-103902586D01*
X190484746Y-103928007D01*
X190429331Y-103954946D01*
X190380811Y-103982209D01*
X190380620Y-103982326D01*
X190341924Y-104008040D01*
X190302389Y-104037805D01*
X190265354Y-104068957D01*
X190234159Y-104098833D01*
X190233032Y-104100015D01*
X190185939Y-104156537D01*
X190146757Y-104218223D01*
X190116002Y-104283899D01*
X190094192Y-104352393D01*
X190081842Y-104422533D01*
X190079846Y-104447340D01*
X190077035Y-104498140D01*
X189481878Y-104498140D01*
X189478444Y-104471544D01*
X189476172Y-104438770D01*
X189475794Y-104408101D01*
X189477552Y-104377494D01*
X189481689Y-104344903D01*
X189488446Y-104308282D01*
X189498064Y-104265586D01*
X189507050Y-104229330D01*
X189541191Y-104114026D01*
X189583522Y-104003831D01*
X189633789Y-103899142D01*
X189691733Y-103800360D01*
X189757099Y-103707883D01*
X189829631Y-103622109D01*
X189909073Y-103543438D01*
X189992000Y-103474663D01*
X190073269Y-103417240D01*
X190162585Y-103361729D01*
X190257875Y-103309123D01*
X190357068Y-103260414D01*
X190458091Y-103216595D01*
X190558873Y-103178658D01*
X190657342Y-103147596D01*
X190696822Y-103137014D01*
X190772103Y-103120558D01*
X190849455Y-103108514D01*
X190926435Y-103101089D01*
X191000598Y-103098490D01*
X191069502Y-103100926D01*
X191069502Y-103100926D01*
G37*
X191069502Y-103100926D02*
X191094360Y-103103278D01*
X191162370Y-103113544D01*
X191232605Y-103128794D01*
X191301812Y-103148143D01*
X191366739Y-103170706D01*
X191411564Y-103189617D01*
X191492307Y-103232255D01*
X191566256Y-103282260D01*
X191633280Y-103339331D01*
X191693247Y-103403165D01*
X191746027Y-103473460D01*
X191791487Y-103549914D01*
X191829497Y-103632224D01*
X191859925Y-103720087D01*
X191882640Y-103813203D01*
X191897512Y-103911267D01*
X191904408Y-104013979D01*
X191903197Y-104121035D01*
X191893748Y-104232133D01*
X191886683Y-104283963D01*
X191873323Y-104359994D01*
X191857316Y-104428288D01*
X191837995Y-104491074D01*
X191814693Y-104550582D01*
X191793059Y-104596685D01*
X191748340Y-104676310D01*
X191696134Y-104751899D01*
X191636122Y-104823726D01*
X191567985Y-104892064D01*
X191491407Y-104957186D01*
X191406069Y-105019367D01*
X191311653Y-105078881D01*
X191207841Y-105136001D01*
X191112461Y-105182651D01*
X190998753Y-105232876D01*
X190890299Y-105275367D01*
X190786112Y-105310407D01*
X190685208Y-105338279D01*
X190586599Y-105359267D01*
X190489301Y-105373656D01*
X190428880Y-105379411D01*
X190395384Y-105381760D01*
X190368711Y-105383109D01*
X190345578Y-105383497D01*
X190322702Y-105382961D01*
X190296799Y-105381539D01*
X190289180Y-105381031D01*
X190199722Y-105371526D01*
X190118239Y-105355778D01*
X190044661Y-105333748D01*
X189978920Y-105305402D01*
X189920947Y-105270703D01*
X189870673Y-105229615D01*
X189828031Y-105182101D01*
X189792950Y-105128125D01*
X189786231Y-105115360D01*
X189777455Y-105096424D01*
X189768396Y-105074270D01*
X189760007Y-105051572D01*
X189753240Y-105031000D01*
X189749050Y-105015228D01*
X189748160Y-105008670D01*
X189744723Y-105002422D01*
X189735211Y-104990450D01*
X189720820Y-104974126D01*
X189702747Y-104954821D01*
X189687991Y-104939709D01*
X189665327Y-104916104D01*
X189643033Y-104891484D01*
X189623115Y-104868161D01*
X189607580Y-104848446D01*
X189602306Y-104840999D01*
X189562576Y-104774485D01*
X189530716Y-104705039D01*
X189506285Y-104631350D01*
X189488844Y-104552106D01*
X189481878Y-104498140D01*
X190077035Y-104498140D01*
X190115152Y-104534342D01*
X190168786Y-104579965D01*
X190224046Y-104616143D01*
X190282240Y-104643587D01*
X190344678Y-104663005D01*
X190357760Y-104665982D01*
X190379033Y-104669244D01*
X190406739Y-104671127D01*
X190442207Y-104671691D01*
X190474600Y-104671287D01*
X190508478Y-104670356D01*
X190535042Y-104668973D01*
X190557139Y-104666798D01*
X190577612Y-104663492D01*
X190599309Y-104658714D01*
X190616840Y-104654288D01*
X190703305Y-104628353D01*
X190781974Y-104597693D01*
X190852584Y-104562487D01*
X190914875Y-104522913D01*
X190968585Y-104479151D01*
X191013452Y-104431379D01*
X191049214Y-104379774D01*
X191066000Y-104347468D01*
X191080445Y-104312172D01*
X191090385Y-104277846D01*
X191096289Y-104241724D01*
X191098627Y-104201040D01*
X191098081Y-104158535D01*
X191092216Y-104091524D01*
X191079777Y-104032111D01*
X191060792Y-103980342D01*
X191035290Y-103936267D01*
X191003298Y-103899933D01*
X190964845Y-103871388D01*
X190919959Y-103850680D01*
X190915280Y-103849095D01*
X190889406Y-103843196D01*
X190856479Y-103839581D01*
X190819350Y-103838274D01*
X190780872Y-103839300D01*
X190743897Y-103842681D01*
X190715900Y-103847401D01*
X190662632Y-103861087D01*
X190604369Y-103879881D01*
X190544083Y-103902586D01*
X190484746Y-103928007D01*
X190429331Y-103954946D01*
X190380811Y-103982209D01*
X190380620Y-103982326D01*
X190341924Y-104008040D01*
X190302389Y-104037805D01*
X190265354Y-104068957D01*
X190234159Y-104098833D01*
X190233032Y-104100015D01*
X190185939Y-104156537D01*
X190146757Y-104218223D01*
X190116002Y-104283899D01*
X190094192Y-104352393D01*
X190081842Y-104422533D01*
X190079846Y-104447340D01*
X190077035Y-104498140D01*
X189481878Y-104498140D01*
X189478444Y-104471544D01*
X189476172Y-104438770D01*
X189475794Y-104408101D01*
X189477552Y-104377494D01*
X189481689Y-104344903D01*
X189488446Y-104308282D01*
X189498064Y-104265586D01*
X189507050Y-104229330D01*
X189541191Y-104114026D01*
X189583522Y-104003831D01*
X189633789Y-103899142D01*
X189691733Y-103800360D01*
X189757099Y-103707883D01*
X189829631Y-103622109D01*
X189909073Y-103543438D01*
X189992000Y-103474663D01*
X190073269Y-103417240D01*
X190162585Y-103361729D01*
X190257875Y-103309123D01*
X190357068Y-103260414D01*
X190458091Y-103216595D01*
X190558873Y-103178658D01*
X190657342Y-103147596D01*
X190696822Y-103137014D01*
X190772103Y-103120558D01*
X190849455Y-103108514D01*
X190926435Y-103101089D01*
X191000598Y-103098490D01*
X191069502Y-103100926D01*
G36*
X174154701Y-103105185D02*
G01*
X174226409Y-103116375D01*
X174299558Y-103133961D01*
X174359706Y-103152430D01*
X174448498Y-103186886D01*
X174530561Y-103228897D01*
X174605765Y-103278293D01*
X174673981Y-103334906D01*
X174735080Y-103398565D01*
X174788932Y-103469101D01*
X174835408Y-103546345D01*
X174874378Y-103630128D01*
X174905714Y-103720279D01*
X174929285Y-103816629D01*
X174944963Y-103919010D01*
X174944964Y-103919020D01*
X174949776Y-103984906D01*
X174950637Y-104057165D01*
X174947781Y-104133324D01*
X174941439Y-104210910D01*
X174931843Y-104287450D01*
X174919227Y-104360472D01*
X174903822Y-104427503D01*
X174893931Y-104461928D01*
X174860661Y-104551371D01*
X174817898Y-104637297D01*
X174765710Y-104719631D01*
X174704161Y-104798297D01*
X174633319Y-104873222D01*
X174553250Y-104944330D01*
X174464020Y-105011547D01*
X174365696Y-105074799D01*
X174331755Y-105094511D01*
X174296062Y-105113924D01*
X174253282Y-105135885D01*
X174205799Y-105159268D01*
X174155998Y-105182944D01*
X174106264Y-105205785D01*
X174058980Y-105226663D01*
X174016532Y-105244451D01*
X174005240Y-105248960D01*
X173902558Y-105287110D01*
X173805472Y-105318339D01*
X173712497Y-105343012D01*
X173622146Y-105361494D01*
X173532935Y-105374152D01*
X173474380Y-105379462D01*
X173441310Y-105381705D01*
X173415416Y-105383087D01*
X173393748Y-105383597D01*
X173373356Y-105383227D01*
X173351292Y-105381969D01*
X173324607Y-105379813D01*
X173315216Y-105378986D01*
X173227062Y-105367811D01*
X173147077Y-105350657D01*
X173075170Y-105327464D01*
X173011251Y-105298172D01*
X172955230Y-105262721D01*
X172907017Y-105221050D01*
X172866521Y-105173100D01*
X172833654Y-105118809D01*
X172808324Y-105058118D01*
X172801135Y-105035046D01*
X172795173Y-105015168D01*
X172789582Y-105000986D01*
X172782437Y-104989546D01*
X172771816Y-104977894D01*
X172755796Y-104963075D01*
X172752145Y-104959803D01*
X172696119Y-104902911D01*
X172647384Y-104839307D01*
X172606231Y-104769645D01*
X172572952Y-104694578D01*
X172547838Y-104614757D01*
X172531180Y-104530837D01*
X172527674Y-104493060D01*
X173120512Y-104493060D01*
X173162826Y-104534286D01*
X173215044Y-104579228D01*
X173270791Y-104616074D01*
X173328965Y-104644252D01*
X173388463Y-104663187D01*
X173423580Y-104669770D01*
X173446118Y-104671714D01*
X173475625Y-104672610D01*
X173508972Y-104672526D01*
X173543030Y-104671526D01*
X173574668Y-104669680D01*
X173600757Y-104667052D01*
X173608852Y-104665813D01*
X173684176Y-104648889D01*
X173759954Y-104624950D01*
X173833345Y-104595093D01*
X173901511Y-104560416D01*
X173936810Y-104538998D01*
X173994563Y-104496403D01*
X174043490Y-104449378D01*
X174083418Y-104398148D01*
X174114170Y-104342939D01*
X174135572Y-104283976D01*
X174136044Y-104282240D01*
X174141330Y-104253949D01*
X174144379Y-104218645D01*
X174145231Y-104179219D01*
X174143925Y-104138558D01*
X174140500Y-104099552D01*
X174134996Y-104065091D01*
X174132971Y-104056180D01*
X174115153Y-104000252D01*
X174091349Y-103952527D01*
X174061578Y-103913009D01*
X174025858Y-103881705D01*
X173984206Y-103858621D01*
X173936643Y-103843762D01*
X173883186Y-103837135D01*
X173823853Y-103838745D01*
X173758664Y-103848599D01*
X173687636Y-103866702D01*
X173617738Y-103890427D01*
X173527379Y-103928354D01*
X173446096Y-103970845D01*
X173373887Y-104017904D01*
X173310752Y-104069530D01*
X173256689Y-104125727D01*
X173211695Y-104186495D01*
X173175770Y-104251837D01*
X173148913Y-104321754D01*
X173131120Y-104396247D01*
X173123948Y-104452420D01*
X173120512Y-104493060D01*
X172527674Y-104493060D01*
X172523429Y-104447340D01*
X172522440Y-104415715D01*
X172522759Y-104390338D01*
X172524648Y-104367351D01*
X172528368Y-104342895D01*
X172531685Y-104325420D01*
X172559238Y-104206441D01*
X172593221Y-104094980D01*
X172633933Y-103990454D01*
X172681670Y-103892282D01*
X172736729Y-103799880D01*
X172799407Y-103712668D01*
X172870001Y-103630062D01*
X172905205Y-103593460D01*
X172955716Y-103544864D01*
X173006676Y-103500277D01*
X173059567Y-103458672D01*
X173115871Y-103419026D01*
X173177073Y-103380313D01*
X173244653Y-103341511D01*
X173320096Y-103301592D01*
X173347888Y-103287540D01*
X173459622Y-103234999D01*
X173567314Y-103191316D01*
X173671572Y-103156317D01*
X173773007Y-103129828D01*
X173872227Y-103111675D01*
X173969840Y-103101683D01*
X174002804Y-103100112D01*
X174081233Y-103099920D01*
X174154701Y-103105185D01*
X174154701Y-103105185D01*
G37*
X174154701Y-103105185D02*
X174226409Y-103116375D01*
X174299558Y-103133961D01*
X174359706Y-103152430D01*
X174448498Y-103186886D01*
X174530561Y-103228897D01*
X174605765Y-103278293D01*
X174673981Y-103334906D01*
X174735080Y-103398565D01*
X174788932Y-103469101D01*
X174835408Y-103546345D01*
X174874378Y-103630128D01*
X174905714Y-103720279D01*
X174929285Y-103816629D01*
X174944963Y-103919010D01*
X174944964Y-103919020D01*
X174949776Y-103984906D01*
X174950637Y-104057165D01*
X174947781Y-104133324D01*
X174941439Y-104210910D01*
X174931843Y-104287450D01*
X174919227Y-104360472D01*
X174903822Y-104427503D01*
X174893931Y-104461928D01*
X174860661Y-104551371D01*
X174817898Y-104637297D01*
X174765710Y-104719631D01*
X174704161Y-104798297D01*
X174633319Y-104873222D01*
X174553250Y-104944330D01*
X174464020Y-105011547D01*
X174365696Y-105074799D01*
X174331755Y-105094511D01*
X174296062Y-105113924D01*
X174253282Y-105135885D01*
X174205799Y-105159268D01*
X174155998Y-105182944D01*
X174106264Y-105205785D01*
X174058980Y-105226663D01*
X174016532Y-105244451D01*
X174005240Y-105248960D01*
X173902558Y-105287110D01*
X173805472Y-105318339D01*
X173712497Y-105343012D01*
X173622146Y-105361494D01*
X173532935Y-105374152D01*
X173474380Y-105379462D01*
X173441310Y-105381705D01*
X173415416Y-105383087D01*
X173393748Y-105383597D01*
X173373356Y-105383227D01*
X173351292Y-105381969D01*
X173324607Y-105379813D01*
X173315216Y-105378986D01*
X173227062Y-105367811D01*
X173147077Y-105350657D01*
X173075170Y-105327464D01*
X173011251Y-105298172D01*
X172955230Y-105262721D01*
X172907017Y-105221050D01*
X172866521Y-105173100D01*
X172833654Y-105118809D01*
X172808324Y-105058118D01*
X172801135Y-105035046D01*
X172795173Y-105015168D01*
X172789582Y-105000986D01*
X172782437Y-104989546D01*
X172771816Y-104977894D01*
X172755796Y-104963075D01*
X172752145Y-104959803D01*
X172696119Y-104902911D01*
X172647384Y-104839307D01*
X172606231Y-104769645D01*
X172572952Y-104694578D01*
X172547838Y-104614757D01*
X172531180Y-104530837D01*
X172527674Y-104493060D01*
X173120512Y-104493060D01*
X173162826Y-104534286D01*
X173215044Y-104579228D01*
X173270791Y-104616074D01*
X173328965Y-104644252D01*
X173388463Y-104663187D01*
X173423580Y-104669770D01*
X173446118Y-104671714D01*
X173475625Y-104672610D01*
X173508972Y-104672526D01*
X173543030Y-104671526D01*
X173574668Y-104669680D01*
X173600757Y-104667052D01*
X173608852Y-104665813D01*
X173684176Y-104648889D01*
X173759954Y-104624950D01*
X173833345Y-104595093D01*
X173901511Y-104560416D01*
X173936810Y-104538998D01*
X173994563Y-104496403D01*
X174043490Y-104449378D01*
X174083418Y-104398148D01*
X174114170Y-104342939D01*
X174135572Y-104283976D01*
X174136044Y-104282240D01*
X174141330Y-104253949D01*
X174144379Y-104218645D01*
X174145231Y-104179219D01*
X174143925Y-104138558D01*
X174140500Y-104099552D01*
X174134996Y-104065091D01*
X174132971Y-104056180D01*
X174115153Y-104000252D01*
X174091349Y-103952527D01*
X174061578Y-103913009D01*
X174025858Y-103881705D01*
X173984206Y-103858621D01*
X173936643Y-103843762D01*
X173883186Y-103837135D01*
X173823853Y-103838745D01*
X173758664Y-103848599D01*
X173687636Y-103866702D01*
X173617738Y-103890427D01*
X173527379Y-103928354D01*
X173446096Y-103970845D01*
X173373887Y-104017904D01*
X173310752Y-104069530D01*
X173256689Y-104125727D01*
X173211695Y-104186495D01*
X173175770Y-104251837D01*
X173148913Y-104321754D01*
X173131120Y-104396247D01*
X173123948Y-104452420D01*
X173120512Y-104493060D01*
X172527674Y-104493060D01*
X172523429Y-104447340D01*
X172522440Y-104415715D01*
X172522759Y-104390338D01*
X172524648Y-104367351D01*
X172528368Y-104342895D01*
X172531685Y-104325420D01*
X172559238Y-104206441D01*
X172593221Y-104094980D01*
X172633933Y-103990454D01*
X172681670Y-103892282D01*
X172736729Y-103799880D01*
X172799407Y-103712668D01*
X172870001Y-103630062D01*
X172905205Y-103593460D01*
X172955716Y-103544864D01*
X173006676Y-103500277D01*
X173059567Y-103458672D01*
X173115871Y-103419026D01*
X173177073Y-103380313D01*
X173244653Y-103341511D01*
X173320096Y-103301592D01*
X173347888Y-103287540D01*
X173459622Y-103234999D01*
X173567314Y-103191316D01*
X173671572Y-103156317D01*
X173773007Y-103129828D01*
X173872227Y-103111675D01*
X173969840Y-103101683D01*
X174002804Y-103100112D01*
X174081233Y-103099920D01*
X174154701Y-103105185D01*
G36*
X164764351Y-103100403D02*
G01*
X164848172Y-103107786D01*
X164930314Y-103122662D01*
X165013805Y-103145485D01*
X165043349Y-103155243D01*
X165131838Y-103190468D01*
X165213106Y-103232834D01*
X165287205Y-103282393D01*
X165354185Y-103339194D01*
X165414097Y-103403286D01*
X165466992Y-103474719D01*
X165512921Y-103553542D01*
X165551934Y-103639805D01*
X165558962Y-103658089D01*
X165588268Y-103750554D01*
X165609145Y-103848233D01*
X165621572Y-103950630D01*
X165625524Y-104057253D01*
X165620980Y-104167607D01*
X165607916Y-104281198D01*
X165591918Y-104371140D01*
X165567764Y-104464456D01*
X165534284Y-104553958D01*
X165491454Y-104639674D01*
X165439253Y-104721631D01*
X165377657Y-104799859D01*
X165306646Y-104874386D01*
X165226196Y-104945240D01*
X165136285Y-105012449D01*
X165038121Y-105075312D01*
X165006446Y-105093334D01*
X164967509Y-105114208D01*
X164923434Y-105136895D01*
X164876343Y-105160357D01*
X164828361Y-105183554D01*
X164781610Y-105205447D01*
X164738215Y-105224998D01*
X164700298Y-105241167D01*
X164693600Y-105243888D01*
X164569183Y-105289972D01*
X164448185Y-105326832D01*
X164330754Y-105354431D01*
X164217038Y-105372732D01*
X164147500Y-105379462D01*
X164114448Y-105381705D01*
X164088567Y-105383086D01*
X164066902Y-105383597D01*
X164046497Y-105383227D01*
X164024400Y-105381968D01*
X163997655Y-105379810D01*
X163987994Y-105378961D01*
X163902916Y-105368403D01*
X163826167Y-105352502D01*
X163757337Y-105331097D01*
X163696014Y-105304026D01*
X163641789Y-105271127D01*
X163594252Y-105232239D01*
X163580559Y-105218683D01*
X163543348Y-105175217D01*
X163513471Y-105128865D01*
X163489666Y-105077361D01*
X163472246Y-105024213D01*
X163465794Y-105004399D01*
X163457875Y-104989893D01*
X163445721Y-104976305D01*
X163437033Y-104968343D01*
X163378883Y-104911225D01*
X163329247Y-104850167D01*
X163287830Y-104784557D01*
X163254340Y-104713782D01*
X163228483Y-104637229D01*
X163209967Y-104554286D01*
X163202309Y-104495670D01*
X163797367Y-104495670D01*
X163827653Y-104526445D01*
X163881679Y-104574506D01*
X163940218Y-104613560D01*
X164003004Y-104643459D01*
X164069771Y-104664055D01*
X164078920Y-104666082D01*
X164101013Y-104669355D01*
X164130215Y-104671202D01*
X164167656Y-104671671D01*
X164195760Y-104671287D01*
X164229638Y-104670356D01*
X164256202Y-104668973D01*
X164278299Y-104666798D01*
X164298772Y-104663492D01*
X164320469Y-104658714D01*
X164338000Y-104654288D01*
X164421701Y-104629142D01*
X164498578Y-104599204D01*
X164568180Y-104564771D01*
X164630061Y-104526142D01*
X164683770Y-104483614D01*
X164728859Y-104437485D01*
X164764879Y-104388053D01*
X164779958Y-104360980D01*
X164793389Y-104332612D01*
X164803317Y-104307166D01*
X164810224Y-104282206D01*
X164814591Y-104255293D01*
X164816900Y-104223989D01*
X164817633Y-104185856D01*
X164817607Y-104170480D01*
X164817288Y-104138032D01*
X164816553Y-104113331D01*
X164815138Y-104093966D01*
X164812775Y-104077524D01*
X164809198Y-104061594D01*
X164804142Y-104043763D01*
X164803331Y-104041076D01*
X164784483Y-103988989D01*
X164761892Y-103945748D01*
X164734810Y-103910494D01*
X164702494Y-103882363D01*
X164664195Y-103860496D01*
X164637720Y-103849915D01*
X164610938Y-103843411D01*
X164577120Y-103839442D01*
X164539077Y-103838043D01*
X164499621Y-103839248D01*
X164461563Y-103843092D01*
X164437060Y-103847416D01*
X164374639Y-103863642D01*
X164308064Y-103885845D01*
X164240312Y-103912769D01*
X164174365Y-103943159D01*
X164113202Y-103975759D01*
X164071300Y-104001539D01*
X164034037Y-104028828D01*
X163995581Y-104061732D01*
X163958148Y-104098024D01*
X163923951Y-104135477D01*
X163895206Y-104171862D01*
X163881209Y-104192720D01*
X163851786Y-104247902D01*
X163827930Y-104308076D01*
X163810559Y-104370285D01*
X163800592Y-104431575D01*
X163798775Y-104457848D01*
X163797367Y-104495670D01*
X163202309Y-104495670D01*
X163199096Y-104471087D01*
X163196600Y-104441292D01*
X163195443Y-104418278D01*
X163195703Y-104398742D01*
X163197454Y-104379384D01*
X163200774Y-104356903D01*
X163201870Y-104350337D01*
X163225208Y-104238050D01*
X163256607Y-104128312D01*
X163295576Y-104022346D01*
X163341624Y-103921373D01*
X163394261Y-103826615D01*
X163440350Y-103756714D01*
X163497611Y-103681737D01*
X163559224Y-103612013D01*
X163626079Y-103546823D01*
X163699066Y-103485443D01*
X163779075Y-103427152D01*
X163866996Y-103371231D01*
X163963720Y-103316956D01*
X164016517Y-103289782D01*
X164134687Y-103234535D01*
X164249731Y-103188705D01*
X164361571Y-103152316D01*
X164470126Y-103125389D01*
X164575318Y-103107949D01*
X164675820Y-103100057D01*
X164764351Y-103100403D01*
X164764351Y-103100403D01*
G37*
X164764351Y-103100403D02*
X164848172Y-103107786D01*
X164930314Y-103122662D01*
X165013805Y-103145485D01*
X165043349Y-103155243D01*
X165131838Y-103190468D01*
X165213106Y-103232834D01*
X165287205Y-103282393D01*
X165354185Y-103339194D01*
X165414097Y-103403286D01*
X165466992Y-103474719D01*
X165512921Y-103553542D01*
X165551934Y-103639805D01*
X165558962Y-103658089D01*
X165588268Y-103750554D01*
X165609145Y-103848233D01*
X165621572Y-103950630D01*
X165625524Y-104057253D01*
X165620980Y-104167607D01*
X165607916Y-104281198D01*
X165591918Y-104371140D01*
X165567764Y-104464456D01*
X165534284Y-104553958D01*
X165491454Y-104639674D01*
X165439253Y-104721631D01*
X165377657Y-104799859D01*
X165306646Y-104874386D01*
X165226196Y-104945240D01*
X165136285Y-105012449D01*
X165038121Y-105075312D01*
X165006446Y-105093334D01*
X164967509Y-105114208D01*
X164923434Y-105136895D01*
X164876343Y-105160357D01*
X164828361Y-105183554D01*
X164781610Y-105205447D01*
X164738215Y-105224998D01*
X164700298Y-105241167D01*
X164693600Y-105243888D01*
X164569183Y-105289972D01*
X164448185Y-105326832D01*
X164330754Y-105354431D01*
X164217038Y-105372732D01*
X164147500Y-105379462D01*
X164114448Y-105381705D01*
X164088567Y-105383086D01*
X164066902Y-105383597D01*
X164046497Y-105383227D01*
X164024400Y-105381968D01*
X163997655Y-105379810D01*
X163987994Y-105378961D01*
X163902916Y-105368403D01*
X163826167Y-105352502D01*
X163757337Y-105331097D01*
X163696014Y-105304026D01*
X163641789Y-105271127D01*
X163594252Y-105232239D01*
X163580559Y-105218683D01*
X163543348Y-105175217D01*
X163513471Y-105128865D01*
X163489666Y-105077361D01*
X163472246Y-105024213D01*
X163465794Y-105004399D01*
X163457875Y-104989893D01*
X163445721Y-104976305D01*
X163437033Y-104968343D01*
X163378883Y-104911225D01*
X163329247Y-104850167D01*
X163287830Y-104784557D01*
X163254340Y-104713782D01*
X163228483Y-104637229D01*
X163209967Y-104554286D01*
X163202309Y-104495670D01*
X163797367Y-104495670D01*
X163827653Y-104526445D01*
X163881679Y-104574506D01*
X163940218Y-104613560D01*
X164003004Y-104643459D01*
X164069771Y-104664055D01*
X164078920Y-104666082D01*
X164101013Y-104669355D01*
X164130215Y-104671202D01*
X164167656Y-104671671D01*
X164195760Y-104671287D01*
X164229638Y-104670356D01*
X164256202Y-104668973D01*
X164278299Y-104666798D01*
X164298772Y-104663492D01*
X164320469Y-104658714D01*
X164338000Y-104654288D01*
X164421701Y-104629142D01*
X164498578Y-104599204D01*
X164568180Y-104564771D01*
X164630061Y-104526142D01*
X164683770Y-104483614D01*
X164728859Y-104437485D01*
X164764879Y-104388053D01*
X164779958Y-104360980D01*
X164793389Y-104332612D01*
X164803317Y-104307166D01*
X164810224Y-104282206D01*
X164814591Y-104255293D01*
X164816900Y-104223989D01*
X164817633Y-104185856D01*
X164817607Y-104170480D01*
X164817288Y-104138032D01*
X164816553Y-104113331D01*
X164815138Y-104093966D01*
X164812775Y-104077524D01*
X164809198Y-104061594D01*
X164804142Y-104043763D01*
X164803331Y-104041076D01*
X164784483Y-103988989D01*
X164761892Y-103945748D01*
X164734810Y-103910494D01*
X164702494Y-103882363D01*
X164664195Y-103860496D01*
X164637720Y-103849915D01*
X164610938Y-103843411D01*
X164577120Y-103839442D01*
X164539077Y-103838043D01*
X164499621Y-103839248D01*
X164461563Y-103843092D01*
X164437060Y-103847416D01*
X164374639Y-103863642D01*
X164308064Y-103885845D01*
X164240312Y-103912769D01*
X164174365Y-103943159D01*
X164113202Y-103975759D01*
X164071300Y-104001539D01*
X164034037Y-104028828D01*
X163995581Y-104061732D01*
X163958148Y-104098024D01*
X163923951Y-104135477D01*
X163895206Y-104171862D01*
X163881209Y-104192720D01*
X163851786Y-104247902D01*
X163827930Y-104308076D01*
X163810559Y-104370285D01*
X163800592Y-104431575D01*
X163798775Y-104457848D01*
X163797367Y-104495670D01*
X163202309Y-104495670D01*
X163199096Y-104471087D01*
X163196600Y-104441292D01*
X163195443Y-104418278D01*
X163195703Y-104398742D01*
X163197454Y-104379384D01*
X163200774Y-104356903D01*
X163201870Y-104350337D01*
X163225208Y-104238050D01*
X163256607Y-104128312D01*
X163295576Y-104022346D01*
X163341624Y-103921373D01*
X163394261Y-103826615D01*
X163440350Y-103756714D01*
X163497611Y-103681737D01*
X163559224Y-103612013D01*
X163626079Y-103546823D01*
X163699066Y-103485443D01*
X163779075Y-103427152D01*
X163866996Y-103371231D01*
X163963720Y-103316956D01*
X164016517Y-103289782D01*
X164134687Y-103234535D01*
X164249731Y-103188705D01*
X164361571Y-103152316D01*
X164470126Y-103125389D01*
X164575318Y-103107949D01*
X164675820Y-103100057D01*
X164764351Y-103100403D01*
G36*
X162212565Y-103102176D02*
G01*
X162311855Y-103115533D01*
X162408924Y-103138789D01*
X162503720Y-103171937D01*
X162572700Y-103202992D01*
X162644189Y-103242405D01*
X162708385Y-103286681D01*
X162767643Y-103337494D01*
X162783334Y-103352785D01*
X162840825Y-103417336D01*
X162891804Y-103489279D01*
X162935885Y-103567898D01*
X162972681Y-103652477D01*
X163001803Y-103742302D01*
X163008786Y-103769344D01*
X163019349Y-103815652D01*
X163027348Y-103858394D01*
X163033071Y-103900246D01*
X163036807Y-103943885D01*
X163038846Y-103991987D01*
X163039475Y-104047229D01*
X163039471Y-104053640D01*
X163038620Y-104116133D01*
X163036055Y-104171975D01*
X163031444Y-104224580D01*
X163024452Y-104277363D01*
X163014745Y-104333739D01*
X163009445Y-104360980D01*
X162986168Y-104453874D01*
X162954304Y-104542598D01*
X162913733Y-104627288D01*
X162864332Y-104708083D01*
X162805981Y-104785119D01*
X162738557Y-104858534D01*
X162661940Y-104928466D01*
X162576008Y-104995051D01*
X162480640Y-105058426D01*
X162375713Y-105118731D01*
X162309173Y-105152975D01*
X162189323Y-105209312D01*
X162074255Y-105257343D01*
X161963229Y-105297292D01*
X161855510Y-105329384D01*
X161750359Y-105353841D01*
X161647039Y-105370889D01*
X161564320Y-105379411D01*
X161533888Y-105381601D01*
X161510277Y-105382936D01*
X161490183Y-105383456D01*
X161470305Y-105383200D01*
X161447342Y-105382209D01*
X161427160Y-105381069D01*
X161393606Y-105378088D01*
X161354087Y-105373008D01*
X161312428Y-105366433D01*
X161272457Y-105358966D01*
X161238411Y-105351314D01*
X161167355Y-105328976D01*
X161103414Y-105299672D01*
X161046769Y-105263566D01*
X160997601Y-105220824D01*
X160956089Y-105171614D01*
X160922414Y-105116099D01*
X160896755Y-105054447D01*
X160889300Y-105030008D01*
X160884725Y-105014476D01*
X160879958Y-105002396D01*
X160873498Y-104991627D01*
X160863843Y-104980026D01*
X160849490Y-104965452D01*
X160832815Y-104949448D01*
X160777295Y-104890766D01*
X160730247Y-104828208D01*
X160691384Y-104761135D01*
X160660420Y-104688910D01*
X160637068Y-104610896D01*
X160621041Y-104526453D01*
X160617732Y-104496526D01*
X161212208Y-104496526D01*
X161250806Y-104533771D01*
X161300660Y-104577212D01*
X161351573Y-104611733D01*
X161405713Y-104638514D01*
X161465249Y-104658732D01*
X161493773Y-104665867D01*
X161518283Y-104669546D01*
X161550198Y-104671599D01*
X161586907Y-104672105D01*
X161625799Y-104671143D01*
X161664264Y-104668791D01*
X161699689Y-104665129D01*
X161729465Y-104660236D01*
X161737040Y-104658507D01*
X161802507Y-104639947D01*
X161867324Y-104617274D01*
X161929153Y-104591469D01*
X161985655Y-104563513D01*
X162034491Y-104534389D01*
X162037395Y-104532445D01*
X162093853Y-104489367D01*
X162140836Y-104442662D01*
X162178407Y-104392200D01*
X162206633Y-104337846D01*
X162225578Y-104279468D01*
X162235306Y-104216935D01*
X162235883Y-104150114D01*
X162234367Y-104130122D01*
X162224930Y-104067334D01*
X162209104Y-104011277D01*
X162187084Y-103962454D01*
X162159062Y-103921370D01*
X162151213Y-103912446D01*
X162120565Y-103884119D01*
X162087179Y-103863104D01*
X162049527Y-103848821D01*
X162006079Y-103840688D01*
X161955480Y-103838124D01*
X161918258Y-103839174D01*
X161882900Y-103842622D01*
X161846921Y-103848947D01*
X161807843Y-103858623D01*
X161763183Y-103872126D01*
X161742120Y-103879069D01*
X161665400Y-103908010D01*
X161591633Y-103942045D01*
X161522523Y-103980217D01*
X161459776Y-104021568D01*
X161405097Y-104065139D01*
X161395603Y-104073737D01*
X161344731Y-104127407D01*
X161301434Y-104186789D01*
X161266246Y-104250777D01*
X161239702Y-104318265D01*
X161222337Y-104388148D01*
X161215319Y-104446533D01*
X161212208Y-104496526D01*
X160617732Y-104496526D01*
X160613978Y-104462580D01*
X160611831Y-104435090D01*
X160610661Y-104413988D01*
X160610658Y-104396393D01*
X160612013Y-104379420D01*
X160614916Y-104360187D01*
X160619559Y-104335811D01*
X160623718Y-104315260D01*
X160642435Y-104231652D01*
X160663323Y-104155211D01*
X160687364Y-104083013D01*
X160715537Y-104012135D01*
X160748823Y-103939654D01*
X160751461Y-103934260D01*
X160801115Y-103842005D01*
X160856832Y-103755565D01*
X160919067Y-103674527D01*
X160988278Y-103598475D01*
X161064922Y-103526996D01*
X161149456Y-103459675D01*
X161242336Y-103396100D01*
X161344020Y-103335856D01*
X161454965Y-103278530D01*
X161497679Y-103258333D01*
X161613575Y-103208601D01*
X161726303Y-103167955D01*
X161835562Y-103136497D01*
X161901895Y-103121558D01*
X162007532Y-103105182D01*
X162111106Y-103098723D01*
X162212565Y-103102176D01*
X162212565Y-103102176D01*
G37*
X162212565Y-103102176D02*
X162311855Y-103115533D01*
X162408924Y-103138789D01*
X162503720Y-103171937D01*
X162572700Y-103202992D01*
X162644189Y-103242405D01*
X162708385Y-103286681D01*
X162767643Y-103337494D01*
X162783334Y-103352785D01*
X162840825Y-103417336D01*
X162891804Y-103489279D01*
X162935885Y-103567898D01*
X162972681Y-103652477D01*
X163001803Y-103742302D01*
X163008786Y-103769344D01*
X163019349Y-103815652D01*
X163027348Y-103858394D01*
X163033071Y-103900246D01*
X163036807Y-103943885D01*
X163038846Y-103991987D01*
X163039475Y-104047229D01*
X163039471Y-104053640D01*
X163038620Y-104116133D01*
X163036055Y-104171975D01*
X163031444Y-104224580D01*
X163024452Y-104277363D01*
X163014745Y-104333739D01*
X163009445Y-104360980D01*
X162986168Y-104453874D01*
X162954304Y-104542598D01*
X162913733Y-104627288D01*
X162864332Y-104708083D01*
X162805981Y-104785119D01*
X162738557Y-104858534D01*
X162661940Y-104928466D01*
X162576008Y-104995051D01*
X162480640Y-105058426D01*
X162375713Y-105118731D01*
X162309173Y-105152975D01*
X162189323Y-105209312D01*
X162074255Y-105257343D01*
X161963229Y-105297292D01*
X161855510Y-105329384D01*
X161750359Y-105353841D01*
X161647039Y-105370889D01*
X161564320Y-105379411D01*
X161533888Y-105381601D01*
X161510277Y-105382936D01*
X161490183Y-105383456D01*
X161470305Y-105383200D01*
X161447342Y-105382209D01*
X161427160Y-105381069D01*
X161393606Y-105378088D01*
X161354087Y-105373008D01*
X161312428Y-105366433D01*
X161272457Y-105358966D01*
X161238411Y-105351314D01*
X161167355Y-105328976D01*
X161103414Y-105299672D01*
X161046769Y-105263566D01*
X160997601Y-105220824D01*
X160956089Y-105171614D01*
X160922414Y-105116099D01*
X160896755Y-105054447D01*
X160889300Y-105030008D01*
X160884725Y-105014476D01*
X160879958Y-105002396D01*
X160873498Y-104991627D01*
X160863843Y-104980026D01*
X160849490Y-104965452D01*
X160832815Y-104949448D01*
X160777295Y-104890766D01*
X160730247Y-104828208D01*
X160691384Y-104761135D01*
X160660420Y-104688910D01*
X160637068Y-104610896D01*
X160621041Y-104526453D01*
X160617732Y-104496526D01*
X161212208Y-104496526D01*
X161250806Y-104533771D01*
X161300660Y-104577212D01*
X161351573Y-104611733D01*
X161405713Y-104638514D01*
X161465249Y-104658732D01*
X161493773Y-104665867D01*
X161518283Y-104669546D01*
X161550198Y-104671599D01*
X161586907Y-104672105D01*
X161625799Y-104671143D01*
X161664264Y-104668791D01*
X161699689Y-104665129D01*
X161729465Y-104660236D01*
X161737040Y-104658507D01*
X161802507Y-104639947D01*
X161867324Y-104617274D01*
X161929153Y-104591469D01*
X161985655Y-104563513D01*
X162034491Y-104534389D01*
X162037395Y-104532445D01*
X162093853Y-104489367D01*
X162140836Y-104442662D01*
X162178407Y-104392200D01*
X162206633Y-104337846D01*
X162225578Y-104279468D01*
X162235306Y-104216935D01*
X162235883Y-104150114D01*
X162234367Y-104130122D01*
X162224930Y-104067334D01*
X162209104Y-104011277D01*
X162187084Y-103962454D01*
X162159062Y-103921370D01*
X162151213Y-103912446D01*
X162120565Y-103884119D01*
X162087179Y-103863104D01*
X162049527Y-103848821D01*
X162006079Y-103840688D01*
X161955480Y-103838124D01*
X161918258Y-103839174D01*
X161882900Y-103842622D01*
X161846921Y-103848947D01*
X161807843Y-103858623D01*
X161763183Y-103872126D01*
X161742120Y-103879069D01*
X161665400Y-103908010D01*
X161591633Y-103942045D01*
X161522523Y-103980217D01*
X161459776Y-104021568D01*
X161405097Y-104065139D01*
X161395603Y-104073737D01*
X161344731Y-104127407D01*
X161301434Y-104186789D01*
X161266246Y-104250777D01*
X161239702Y-104318265D01*
X161222337Y-104388148D01*
X161215319Y-104446533D01*
X161212208Y-104496526D01*
X160617732Y-104496526D01*
X160613978Y-104462580D01*
X160611831Y-104435090D01*
X160610661Y-104413988D01*
X160610658Y-104396393D01*
X160612013Y-104379420D01*
X160614916Y-104360187D01*
X160619559Y-104335811D01*
X160623718Y-104315260D01*
X160642435Y-104231652D01*
X160663323Y-104155211D01*
X160687364Y-104083013D01*
X160715537Y-104012135D01*
X160748823Y-103939654D01*
X160751461Y-103934260D01*
X160801115Y-103842005D01*
X160856832Y-103755565D01*
X160919067Y-103674527D01*
X160988278Y-103598475D01*
X161064922Y-103526996D01*
X161149456Y-103459675D01*
X161242336Y-103396100D01*
X161344020Y-103335856D01*
X161454965Y-103278530D01*
X161497679Y-103258333D01*
X161613575Y-103208601D01*
X161726303Y-103167955D01*
X161835562Y-103136497D01*
X161901895Y-103121558D01*
X162007532Y-103105182D01*
X162111106Y-103098723D01*
X162212565Y-103102176D01*
G36*
X169937501Y-102474489D02*
G01*
X169964644Y-102475435D01*
X169989271Y-102477064D01*
X170013293Y-102479431D01*
X170027639Y-102481156D01*
X170132346Y-102499514D01*
X170234663Y-102527739D01*
X170334563Y-102565819D01*
X170432018Y-102613738D01*
X170527003Y-102671484D01*
X170619491Y-102739043D01*
X170709455Y-102816401D01*
X170743293Y-102848676D01*
X170769928Y-102875433D01*
X170789953Y-102897160D01*
X170804587Y-102915305D01*
X170815046Y-102931315D01*
X170818899Y-102938580D01*
X170844376Y-103000481D01*
X170859737Y-103062087D01*
X170861753Y-103075573D01*
X170863966Y-103094897D01*
X170864585Y-103110665D01*
X170863340Y-103126188D01*
X170859956Y-103144773D01*
X170854161Y-103169732D01*
X170853914Y-103170749D01*
X170833579Y-103240196D01*
X170808376Y-103300788D01*
X170778157Y-103352665D01*
X170742772Y-103395971D01*
X170702072Y-103430846D01*
X170655908Y-103457433D01*
X170604132Y-103475873D01*
X170546594Y-103486308D01*
X170520360Y-103488353D01*
X170495336Y-103489362D01*
X170476707Y-103489109D01*
X170460735Y-103487101D01*
X170443683Y-103482845D01*
X170421815Y-103475846D01*
X170419265Y-103474991D01*
X170373421Y-103457523D01*
X170321854Y-103433933D01*
X170264269Y-103404055D01*
X170200369Y-103367726D01*
X170129860Y-103324781D01*
X170052445Y-103275055D01*
X170013247Y-103249065D01*
X169980124Y-103227023D01*
X169954061Y-103210042D01*
X169933764Y-103197404D01*
X169917935Y-103188390D01*
X169905282Y-103182281D01*
X169894508Y-103178357D01*
X169884318Y-103175900D01*
X169880173Y-103175176D01*
X169862135Y-103171646D01*
X169846999Y-103167598D01*
X169840250Y-103164966D01*
X169828509Y-103161876D01*
X169808965Y-103160170D01*
X169783876Y-103159815D01*
X169755500Y-103160779D01*
X169726095Y-103163030D01*
X169697918Y-103166534D01*
X169694567Y-103167063D01*
X169627568Y-103181595D01*
X169568300Y-103202298D01*
X169516255Y-103229403D01*
X169470924Y-103263138D01*
X169461180Y-103272063D01*
X169426024Y-103310510D01*
X169397783Y-103352791D01*
X169375964Y-103400070D01*
X169360076Y-103453510D01*
X169349629Y-103514272D01*
X169346673Y-103543100D01*
X169340450Y-103601880D01*
X169331806Y-103662447D01*
X169323432Y-103709470D01*
X169322818Y-103719826D01*
X169327397Y-103723344D01*
X169329171Y-103723440D01*
X169337201Y-103727707D01*
X169340328Y-103733600D01*
X169342839Y-103741792D01*
X169343882Y-103743760D01*
X169348966Y-103743264D01*
X169362606Y-103741884D01*
X169383253Y-103739777D01*
X169409355Y-103737101D01*
X169439364Y-103734015D01*
X169443399Y-103733600D01*
X169540511Y-103725937D01*
X169629544Y-103723866D01*
X169710945Y-103727452D01*
X169785160Y-103736761D01*
X169852638Y-103751858D01*
X169913825Y-103772810D01*
X169969168Y-103799682D01*
X169993515Y-103814524D01*
X170037413Y-103848566D01*
X170072962Y-103888118D01*
X170100677Y-103933862D01*
X170119858Y-103982520D01*
X170124036Y-103996754D01*
X170127103Y-104010033D01*
X170129221Y-104024284D01*
X170130556Y-104041439D01*
X170131272Y-104063429D01*
X170131532Y-104092183D01*
X170131527Y-104119680D01*
X170131380Y-104154284D01*
X170130984Y-104180604D01*
X170130155Y-104200513D01*
X170128705Y-104215888D01*
X170126450Y-104228603D01*
X170123205Y-104240532D01*
X170118784Y-104253551D01*
X170118091Y-104255481D01*
X170102339Y-104293798D01*
X170084183Y-104325984D01*
X170061140Y-104356067D01*
X170045885Y-104372761D01*
X170002623Y-104410799D01*
X169950665Y-104443630D01*
X169890048Y-104471242D01*
X169820806Y-104493623D01*
X169742975Y-104510763D01*
X169656591Y-104522651D01*
X169561689Y-104529274D01*
X169556430Y-104529477D01*
X169524693Y-104530717D01*
X169501706Y-104531858D01*
X169486062Y-104533117D01*
X169476356Y-104534711D01*
X169471181Y-104536859D01*
X169469133Y-104539776D01*
X169468800Y-104543022D01*
X169470141Y-104550791D01*
X169473896Y-104566742D01*
X169479655Y-104589294D01*
X169487011Y-104616869D01*
X169495558Y-104647886D01*
X169499060Y-104660342D01*
X169509602Y-104698045D01*
X169520668Y-104738333D01*
X169531420Y-104778114D01*
X169541023Y-104814294D01*
X169548590Y-104843580D01*
X169567860Y-104919780D01*
X169567860Y-105239820D01*
X169553716Y-105266663D01*
X169541775Y-105285974D01*
X169527166Y-105305165D01*
X169519600Y-105313480D01*
X169491496Y-105335912D01*
X169456416Y-105355249D01*
X169417257Y-105370502D01*
X169376913Y-105380681D01*
X169338281Y-105384798D01*
X169314266Y-105383604D01*
X169270460Y-105372785D01*
X169227249Y-105351941D01*
X169184736Y-105321199D01*
X169143025Y-105280683D01*
X169102218Y-105230516D01*
X169062420Y-105170824D01*
X169023733Y-105101732D01*
X168986261Y-105023363D01*
X168956724Y-104952800D01*
X168938017Y-104904016D01*
X168919768Y-104853680D01*
X168902434Y-104803261D01*
X168886472Y-104754228D01*
X168872341Y-104708051D01*
X168860498Y-104666199D01*
X168851402Y-104630141D01*
X168845510Y-104601348D01*
X168844027Y-104591150D01*
X168836998Y-104554545D01*
X168825688Y-104526372D01*
X168810282Y-104507057D01*
X168805224Y-104503270D01*
X168791275Y-104497499D01*
X168769410Y-104492651D01*
X168747781Y-104489795D01*
X168702766Y-104481056D01*
X168662862Y-104464144D01*
X168627570Y-104438690D01*
X168596391Y-104404326D01*
X168568828Y-104360684D01*
X168566029Y-104355364D01*
X168551743Y-104324679D01*
X168538006Y-104289739D01*
X168526233Y-104254524D01*
X168517842Y-104223016D01*
X168516362Y-104215779D01*
X168516961Y-104199922D01*
X168522689Y-104177678D01*
X168532653Y-104150840D01*
X168545963Y-104121205D01*
X168561726Y-104090568D01*
X168579049Y-104060723D01*
X168597040Y-104033466D01*
X168614808Y-104010593D01*
X168622489Y-104002214D01*
X168642918Y-103984216D01*
X168665554Y-103968879D01*
X168687681Y-103957744D01*
X168706585Y-103952357D01*
X168710610Y-103952089D01*
X168722040Y-103952040D01*
X168722040Y-103671338D01*
X168722117Y-103601325D01*
X168722386Y-103540452D01*
X168722906Y-103487701D01*
X168723732Y-103442055D01*
X168724921Y-103402494D01*
X168726532Y-103368000D01*
X168728621Y-103337555D01*
X168731245Y-103310140D01*
X168734461Y-103284738D01*
X168738327Y-103260329D01*
X168742900Y-103235895D01*
X168747775Y-103212539D01*
X168772363Y-103121435D01*
X168805397Y-103035939D01*
X168846805Y-102956119D01*
X168896515Y-102882046D01*
X168954454Y-102813790D01*
X169020550Y-102751419D01*
X169094732Y-102695004D01*
X169176927Y-102644615D01*
X169267062Y-102600320D01*
X169365066Y-102562191D01*
X169447981Y-102536480D01*
X169476739Y-102528370D01*
X169506372Y-102519839D01*
X169533194Y-102511956D01*
X169551845Y-102506313D01*
X169579998Y-102498204D01*
X169607755Y-102491657D01*
X169636761Y-102486482D01*
X169668660Y-102482491D01*
X169705095Y-102479493D01*
X169747710Y-102477299D01*
X169798150Y-102475721D01*
X169821899Y-102475199D01*
X169868038Y-102474427D01*
X169905935Y-102474172D01*
X169937501Y-102474489D01*
X169937501Y-102474489D01*
G37*
X169937501Y-102474489D02*
X169964644Y-102475435D01*
X169989271Y-102477064D01*
X170013293Y-102479431D01*
X170027639Y-102481156D01*
X170132346Y-102499514D01*
X170234663Y-102527739D01*
X170334563Y-102565819D01*
X170432018Y-102613738D01*
X170527003Y-102671484D01*
X170619491Y-102739043D01*
X170709455Y-102816401D01*
X170743293Y-102848676D01*
X170769928Y-102875433D01*
X170789953Y-102897160D01*
X170804587Y-102915305D01*
X170815046Y-102931315D01*
X170818899Y-102938580D01*
X170844376Y-103000481D01*
X170859737Y-103062087D01*
X170861753Y-103075573D01*
X170863966Y-103094897D01*
X170864585Y-103110665D01*
X170863340Y-103126188D01*
X170859956Y-103144773D01*
X170854161Y-103169732D01*
X170853914Y-103170749D01*
X170833579Y-103240196D01*
X170808376Y-103300788D01*
X170778157Y-103352665D01*
X170742772Y-103395971D01*
X170702072Y-103430846D01*
X170655908Y-103457433D01*
X170604132Y-103475873D01*
X170546594Y-103486308D01*
X170520360Y-103488353D01*
X170495336Y-103489362D01*
X170476707Y-103489109D01*
X170460735Y-103487101D01*
X170443683Y-103482845D01*
X170421815Y-103475846D01*
X170419265Y-103474991D01*
X170373421Y-103457523D01*
X170321854Y-103433933D01*
X170264269Y-103404055D01*
X170200369Y-103367726D01*
X170129860Y-103324781D01*
X170052445Y-103275055D01*
X170013247Y-103249065D01*
X169980124Y-103227023D01*
X169954061Y-103210042D01*
X169933764Y-103197404D01*
X169917935Y-103188390D01*
X169905282Y-103182281D01*
X169894508Y-103178357D01*
X169884318Y-103175900D01*
X169880173Y-103175176D01*
X169862135Y-103171646D01*
X169846999Y-103167598D01*
X169840250Y-103164966D01*
X169828509Y-103161876D01*
X169808965Y-103160170D01*
X169783876Y-103159815D01*
X169755500Y-103160779D01*
X169726095Y-103163030D01*
X169697918Y-103166534D01*
X169694567Y-103167063D01*
X169627568Y-103181595D01*
X169568300Y-103202298D01*
X169516255Y-103229403D01*
X169470924Y-103263138D01*
X169461180Y-103272063D01*
X169426024Y-103310510D01*
X169397783Y-103352791D01*
X169375964Y-103400070D01*
X169360076Y-103453510D01*
X169349629Y-103514272D01*
X169346673Y-103543100D01*
X169340450Y-103601880D01*
X169331806Y-103662447D01*
X169323432Y-103709470D01*
X169322818Y-103719826D01*
X169327397Y-103723344D01*
X169329171Y-103723440D01*
X169337201Y-103727707D01*
X169340328Y-103733600D01*
X169342839Y-103741792D01*
X169343882Y-103743760D01*
X169348966Y-103743264D01*
X169362606Y-103741884D01*
X169383253Y-103739777D01*
X169409355Y-103737101D01*
X169439364Y-103734015D01*
X169443399Y-103733600D01*
X169540511Y-103725937D01*
X169629544Y-103723866D01*
X169710945Y-103727452D01*
X169785160Y-103736761D01*
X169852638Y-103751858D01*
X169913825Y-103772810D01*
X169969168Y-103799682D01*
X169993515Y-103814524D01*
X170037413Y-103848566D01*
X170072962Y-103888118D01*
X170100677Y-103933862D01*
X170119858Y-103982520D01*
X170124036Y-103996754D01*
X170127103Y-104010033D01*
X170129221Y-104024284D01*
X170130556Y-104041439D01*
X170131272Y-104063429D01*
X170131532Y-104092183D01*
X170131527Y-104119680D01*
X170131380Y-104154284D01*
X170130984Y-104180604D01*
X170130155Y-104200513D01*
X170128705Y-104215888D01*
X170126450Y-104228603D01*
X170123205Y-104240532D01*
X170118784Y-104253551D01*
X170118091Y-104255481D01*
X170102339Y-104293798D01*
X170084183Y-104325984D01*
X170061140Y-104356067D01*
X170045885Y-104372761D01*
X170002623Y-104410799D01*
X169950665Y-104443630D01*
X169890048Y-104471242D01*
X169820806Y-104493623D01*
X169742975Y-104510763D01*
X169656591Y-104522651D01*
X169561689Y-104529274D01*
X169556430Y-104529477D01*
X169524693Y-104530717D01*
X169501706Y-104531858D01*
X169486062Y-104533117D01*
X169476356Y-104534711D01*
X169471181Y-104536859D01*
X169469133Y-104539776D01*
X169468800Y-104543022D01*
X169470141Y-104550791D01*
X169473896Y-104566742D01*
X169479655Y-104589294D01*
X169487011Y-104616869D01*
X169495558Y-104647886D01*
X169499060Y-104660342D01*
X169509602Y-104698045D01*
X169520668Y-104738333D01*
X169531420Y-104778114D01*
X169541023Y-104814294D01*
X169548590Y-104843580D01*
X169567860Y-104919780D01*
X169567860Y-105239820D01*
X169553716Y-105266663D01*
X169541775Y-105285974D01*
X169527166Y-105305165D01*
X169519600Y-105313480D01*
X169491496Y-105335912D01*
X169456416Y-105355249D01*
X169417257Y-105370502D01*
X169376913Y-105380681D01*
X169338281Y-105384798D01*
X169314266Y-105383604D01*
X169270460Y-105372785D01*
X169227249Y-105351941D01*
X169184736Y-105321199D01*
X169143025Y-105280683D01*
X169102218Y-105230516D01*
X169062420Y-105170824D01*
X169023733Y-105101732D01*
X168986261Y-105023363D01*
X168956724Y-104952800D01*
X168938017Y-104904016D01*
X168919768Y-104853680D01*
X168902434Y-104803261D01*
X168886472Y-104754228D01*
X168872341Y-104708051D01*
X168860498Y-104666199D01*
X168851402Y-104630141D01*
X168845510Y-104601348D01*
X168844027Y-104591150D01*
X168836998Y-104554545D01*
X168825688Y-104526372D01*
X168810282Y-104507057D01*
X168805224Y-104503270D01*
X168791275Y-104497499D01*
X168769410Y-104492651D01*
X168747781Y-104489795D01*
X168702766Y-104481056D01*
X168662862Y-104464144D01*
X168627570Y-104438690D01*
X168596391Y-104404326D01*
X168568828Y-104360684D01*
X168566029Y-104355364D01*
X168551743Y-104324679D01*
X168538006Y-104289739D01*
X168526233Y-104254524D01*
X168517842Y-104223016D01*
X168516362Y-104215779D01*
X168516961Y-104199922D01*
X168522689Y-104177678D01*
X168532653Y-104150840D01*
X168545963Y-104121205D01*
X168561726Y-104090568D01*
X168579049Y-104060723D01*
X168597040Y-104033466D01*
X168614808Y-104010593D01*
X168622489Y-104002214D01*
X168642918Y-103984216D01*
X168665554Y-103968879D01*
X168687681Y-103957744D01*
X168706585Y-103952357D01*
X168710610Y-103952089D01*
X168722040Y-103952040D01*
X168722040Y-103671338D01*
X168722117Y-103601325D01*
X168722386Y-103540452D01*
X168722906Y-103487701D01*
X168723732Y-103442055D01*
X168724921Y-103402494D01*
X168726532Y-103368000D01*
X168728621Y-103337555D01*
X168731245Y-103310140D01*
X168734461Y-103284738D01*
X168738327Y-103260329D01*
X168742900Y-103235895D01*
X168747775Y-103212539D01*
X168772363Y-103121435D01*
X168805397Y-103035939D01*
X168846805Y-102956119D01*
X168896515Y-102882046D01*
X168954454Y-102813790D01*
X169020550Y-102751419D01*
X169094732Y-102695004D01*
X169176927Y-102644615D01*
X169267062Y-102600320D01*
X169365066Y-102562191D01*
X169447981Y-102536480D01*
X169476739Y-102528370D01*
X169506372Y-102519839D01*
X169533194Y-102511956D01*
X169551845Y-102506313D01*
X169579998Y-102498204D01*
X169607755Y-102491657D01*
X169636761Y-102486482D01*
X169668660Y-102482491D01*
X169705095Y-102479493D01*
X169747710Y-102477299D01*
X169798150Y-102475721D01*
X169821899Y-102475199D01*
X169868038Y-102474427D01*
X169905935Y-102474172D01*
X169937501Y-102474489D01*
G36*
X160717843Y-102389981D02*
G01*
X160757193Y-102397271D01*
X160800332Y-102408591D01*
X160844846Y-102423261D01*
X160888323Y-102440600D01*
X160911540Y-102451331D01*
X160968806Y-102483863D01*
X161017279Y-102521282D01*
X161057230Y-102563885D01*
X161088928Y-102611966D01*
X161112642Y-102665820D01*
X161115530Y-102674420D01*
X161124589Y-102711706D01*
X161130265Y-102754863D01*
X161132384Y-102800121D01*
X161130770Y-102843709D01*
X161125250Y-102881858D01*
X161125163Y-102882251D01*
X161108214Y-102936200D01*
X161081878Y-102987682D01*
X161046075Y-103036767D01*
X161000724Y-103083527D01*
X160945745Y-103128033D01*
X160881058Y-103170355D01*
X160806582Y-103210564D01*
X160722237Y-103248731D01*
X160698062Y-103258575D01*
X160672201Y-103269301D01*
X160649193Y-103279995D01*
X160627575Y-103291642D01*
X160605881Y-103305225D01*
X160582647Y-103321728D01*
X160556407Y-103342135D01*
X160525696Y-103367428D01*
X160489050Y-103398592D01*
X160487360Y-103400043D01*
X160446289Y-103436125D01*
X160399300Y-103478823D01*
X160347311Y-103527239D01*
X160291243Y-103580476D01*
X160232013Y-103637634D01*
X160170541Y-103697817D01*
X160107747Y-103760126D01*
X160044549Y-103823662D01*
X159981868Y-103887528D01*
X159920621Y-103950825D01*
X159878469Y-103994973D01*
X159853304Y-104021575D01*
X159834316Y-104042002D01*
X159820639Y-104057398D01*
X159811406Y-104068910D01*
X159805749Y-104077684D01*
X159802802Y-104084864D01*
X159801699Y-104091597D01*
X159801560Y-104096640D01*
X159801560Y-104117274D01*
X159848550Y-104142265D01*
X159952958Y-104199695D01*
X160047433Y-104255668D01*
X160132081Y-104310279D01*
X160207012Y-104363617D01*
X160272333Y-104415777D01*
X160328151Y-104466850D01*
X160374574Y-104516929D01*
X160411710Y-104566106D01*
X160439667Y-104614472D01*
X160458552Y-104662121D01*
X160459559Y-104665509D01*
X160466143Y-104703517D01*
X160465958Y-104747703D01*
X160459195Y-104796846D01*
X160446047Y-104849725D01*
X160426706Y-104905119D01*
X160418913Y-104923938D01*
X160399639Y-104965078D01*
X160379838Y-104999162D01*
X160357574Y-105029193D01*
X160334960Y-105054088D01*
X160293429Y-105090871D01*
X160249140Y-105118829D01*
X160200832Y-105138499D01*
X160147241Y-105150419D01*
X160098740Y-105154776D01*
X160072131Y-105155682D01*
X160052498Y-105155623D01*
X160036672Y-105154211D01*
X160021487Y-105151057D01*
X160003772Y-105145772D01*
X159991029Y-105141556D01*
X159938387Y-105121008D01*
X159880895Y-105093018D01*
X159818405Y-105057485D01*
X159750765Y-105014306D01*
X159677826Y-104963377D01*
X159599437Y-104904597D01*
X159515449Y-104837861D01*
X159425712Y-104763069D01*
X159375816Y-104720167D01*
X159353096Y-104700585D01*
X159333147Y-104683669D01*
X159317167Y-104670412D01*
X159306355Y-104661809D01*
X159301911Y-104658853D01*
X159301873Y-104658877D01*
X159296954Y-104665104D01*
X159286438Y-104677828D01*
X159271352Y-104695841D01*
X159252721Y-104717935D01*
X159231571Y-104742902D01*
X159208927Y-104769534D01*
X159185815Y-104796622D01*
X159163261Y-104822958D01*
X159142291Y-104847334D01*
X159123930Y-104868543D01*
X159121340Y-104871520D01*
X159061175Y-104939645D01*
X159000638Y-105006375D01*
X158940624Y-105070789D01*
X158882032Y-105131969D01*
X158825759Y-105188995D01*
X158772701Y-105240948D01*
X158723756Y-105286909D01*
X158679820Y-105325957D01*
X158668720Y-105335375D01*
X158632108Y-105364823D01*
X158593893Y-105393327D01*
X158555925Y-105419645D01*
X158520054Y-105442538D01*
X158488130Y-105460765D01*
X158465238Y-105471765D01*
X158428581Y-105483543D01*
X158390631Y-105489322D01*
X158354670Y-105488784D01*
X158333081Y-105484660D01*
X158294171Y-105468407D01*
X158259356Y-105443000D01*
X158228802Y-105408653D01*
X158202675Y-105365581D01*
X158181139Y-105313999D01*
X158168416Y-105271103D01*
X158156064Y-105222410D01*
X158191916Y-105134595D01*
X158269661Y-104951831D01*
X158350088Y-104778009D01*
X158433710Y-104612145D01*
X158521039Y-104453255D01*
X158612590Y-104300355D01*
X158686943Y-104185092D01*
X158760102Y-104075245D01*
X158711218Y-104027612D01*
X158694358Y-104010901D01*
X158672045Y-103988361D01*
X158645800Y-103961554D01*
X158617145Y-103932040D01*
X158587601Y-103901379D01*
X158560965Y-103873522D01*
X158500896Y-103809569D01*
X158448196Y-103751557D01*
X158402420Y-103698934D01*
X158363122Y-103651147D01*
X158329857Y-103607643D01*
X158302182Y-103567869D01*
X158279651Y-103531272D01*
X158267457Y-103508737D01*
X158242000Y-103458792D01*
X158242000Y-103393918D01*
X158242942Y-103354506D01*
X158246110Y-103322418D01*
X158252014Y-103294964D01*
X158261164Y-103269452D01*
X158268636Y-103253540D01*
X158287188Y-103222990D01*
X158309003Y-103199941D01*
X158336687Y-103181755D01*
X158342509Y-103178787D01*
X158356530Y-103172067D01*
X158368108Y-103167447D01*
X158379658Y-103164533D01*
X158393598Y-103162933D01*
X158412344Y-103162254D01*
X158438312Y-103162101D01*
X158445093Y-103162100D01*
X158475776Y-103162387D01*
X158499120Y-103163457D01*
X158517931Y-103165622D01*
X158535018Y-103169193D01*
X158551327Y-103173894D01*
X158604322Y-103193278D01*
X158663810Y-103220135D01*
X158729554Y-103254326D01*
X158801318Y-103295712D01*
X158878865Y-103344153D01*
X158961958Y-103399511D01*
X159050362Y-103461646D01*
X159089248Y-103489900D01*
X159113394Y-103507590D01*
X159135180Y-103523522D01*
X159153081Y-103536581D01*
X159165572Y-103545656D01*
X159170718Y-103549352D01*
X159174024Y-103550523D01*
X159178516Y-103549352D01*
X159184997Y-103545086D01*
X159194273Y-103536969D01*
X159207149Y-103524246D01*
X159224431Y-103506164D01*
X159246924Y-103481967D01*
X159273429Y-103453090D01*
X159309480Y-103414165D01*
X159350799Y-103370373D01*
X159396165Y-103322954D01*
X159444358Y-103273144D01*
X159494156Y-103222183D01*
X159544339Y-103171307D01*
X159593685Y-103121756D01*
X159640974Y-103074768D01*
X159684984Y-103031580D01*
X159724494Y-102993430D01*
X159757049Y-102962704D01*
X159862400Y-102866914D01*
X159962801Y-102779954D01*
X160058286Y-102701800D01*
X160148888Y-102632429D01*
X160234640Y-102571816D01*
X160315576Y-102519938D01*
X160391730Y-102476771D01*
X160463134Y-102442292D01*
X160516652Y-102421021D01*
X160547826Y-102411237D01*
X160582931Y-102402351D01*
X160618775Y-102395004D01*
X160652165Y-102389833D01*
X160679908Y-102387477D01*
X160684692Y-102387400D01*
X160717843Y-102389981D01*
X160717843Y-102389981D01*
G37*
X160717843Y-102389981D02*
X160757193Y-102397271D01*
X160800332Y-102408591D01*
X160844846Y-102423261D01*
X160888323Y-102440600D01*
X160911540Y-102451331D01*
X160968806Y-102483863D01*
X161017279Y-102521282D01*
X161057230Y-102563885D01*
X161088928Y-102611966D01*
X161112642Y-102665820D01*
X161115530Y-102674420D01*
X161124589Y-102711706D01*
X161130265Y-102754863D01*
X161132384Y-102800121D01*
X161130770Y-102843709D01*
X161125250Y-102881858D01*
X161125163Y-102882251D01*
X161108214Y-102936200D01*
X161081878Y-102987682D01*
X161046075Y-103036767D01*
X161000724Y-103083527D01*
X160945745Y-103128033D01*
X160881058Y-103170355D01*
X160806582Y-103210564D01*
X160722237Y-103248731D01*
X160698062Y-103258575D01*
X160672201Y-103269301D01*
X160649193Y-103279995D01*
X160627575Y-103291642D01*
X160605881Y-103305225D01*
X160582647Y-103321728D01*
X160556407Y-103342135D01*
X160525696Y-103367428D01*
X160489050Y-103398592D01*
X160487360Y-103400043D01*
X160446289Y-103436125D01*
X160399300Y-103478823D01*
X160347311Y-103527239D01*
X160291243Y-103580476D01*
X160232013Y-103637634D01*
X160170541Y-103697817D01*
X160107747Y-103760126D01*
X160044549Y-103823662D01*
X159981868Y-103887528D01*
X159920621Y-103950825D01*
X159878469Y-103994973D01*
X159853304Y-104021575D01*
X159834316Y-104042002D01*
X159820639Y-104057398D01*
X159811406Y-104068910D01*
X159805749Y-104077684D01*
X159802802Y-104084864D01*
X159801699Y-104091597D01*
X159801560Y-104096640D01*
X159801560Y-104117274D01*
X159848550Y-104142265D01*
X159952958Y-104199695D01*
X160047433Y-104255668D01*
X160132081Y-104310279D01*
X160207012Y-104363617D01*
X160272333Y-104415777D01*
X160328151Y-104466850D01*
X160374574Y-104516929D01*
X160411710Y-104566106D01*
X160439667Y-104614472D01*
X160458552Y-104662121D01*
X160459559Y-104665509D01*
X160466143Y-104703517D01*
X160465958Y-104747703D01*
X160459195Y-104796846D01*
X160446047Y-104849725D01*
X160426706Y-104905119D01*
X160418913Y-104923938D01*
X160399639Y-104965078D01*
X160379838Y-104999162D01*
X160357574Y-105029193D01*
X160334960Y-105054088D01*
X160293429Y-105090871D01*
X160249140Y-105118829D01*
X160200832Y-105138499D01*
X160147241Y-105150419D01*
X160098740Y-105154776D01*
X160072131Y-105155682D01*
X160052498Y-105155623D01*
X160036672Y-105154211D01*
X160021487Y-105151057D01*
X160003772Y-105145772D01*
X159991029Y-105141556D01*
X159938387Y-105121008D01*
X159880895Y-105093018D01*
X159818405Y-105057485D01*
X159750765Y-105014306D01*
X159677826Y-104963377D01*
X159599437Y-104904597D01*
X159515449Y-104837861D01*
X159425712Y-104763069D01*
X159375816Y-104720167D01*
X159353096Y-104700585D01*
X159333147Y-104683669D01*
X159317167Y-104670412D01*
X159306355Y-104661809D01*
X159301911Y-104658853D01*
X159301873Y-104658877D01*
X159296954Y-104665104D01*
X159286438Y-104677828D01*
X159271352Y-104695841D01*
X159252721Y-104717935D01*
X159231571Y-104742902D01*
X159208927Y-104769534D01*
X159185815Y-104796622D01*
X159163261Y-104822958D01*
X159142291Y-104847334D01*
X159123930Y-104868543D01*
X159121340Y-104871520D01*
X159061175Y-104939645D01*
X159000638Y-105006375D01*
X158940624Y-105070789D01*
X158882032Y-105131969D01*
X158825759Y-105188995D01*
X158772701Y-105240948D01*
X158723756Y-105286909D01*
X158679820Y-105325957D01*
X158668720Y-105335375D01*
X158632108Y-105364823D01*
X158593893Y-105393327D01*
X158555925Y-105419645D01*
X158520054Y-105442538D01*
X158488130Y-105460765D01*
X158465238Y-105471765D01*
X158428581Y-105483543D01*
X158390631Y-105489322D01*
X158354670Y-105488784D01*
X158333081Y-105484660D01*
X158294171Y-105468407D01*
X158259356Y-105443000D01*
X158228802Y-105408653D01*
X158202675Y-105365581D01*
X158181139Y-105313999D01*
X158168416Y-105271103D01*
X158156064Y-105222410D01*
X158191916Y-105134595D01*
X158269661Y-104951831D01*
X158350088Y-104778009D01*
X158433710Y-104612145D01*
X158521039Y-104453255D01*
X158612590Y-104300355D01*
X158686943Y-104185092D01*
X158760102Y-104075245D01*
X158711218Y-104027612D01*
X158694358Y-104010901D01*
X158672045Y-103988361D01*
X158645800Y-103961554D01*
X158617145Y-103932040D01*
X158587601Y-103901379D01*
X158560965Y-103873522D01*
X158500896Y-103809569D01*
X158448196Y-103751557D01*
X158402420Y-103698934D01*
X158363122Y-103651147D01*
X158329857Y-103607643D01*
X158302182Y-103567869D01*
X158279651Y-103531272D01*
X158267457Y-103508737D01*
X158242000Y-103458792D01*
X158242000Y-103393918D01*
X158242942Y-103354506D01*
X158246110Y-103322418D01*
X158252014Y-103294964D01*
X158261164Y-103269452D01*
X158268636Y-103253540D01*
X158287188Y-103222990D01*
X158309003Y-103199941D01*
X158336687Y-103181755D01*
X158342509Y-103178787D01*
X158356530Y-103172067D01*
X158368108Y-103167447D01*
X158379658Y-103164533D01*
X158393598Y-103162933D01*
X158412344Y-103162254D01*
X158438312Y-103162101D01*
X158445093Y-103162100D01*
X158475776Y-103162387D01*
X158499120Y-103163457D01*
X158517931Y-103165622D01*
X158535018Y-103169193D01*
X158551327Y-103173894D01*
X158604322Y-103193278D01*
X158663810Y-103220135D01*
X158729554Y-103254326D01*
X158801318Y-103295712D01*
X158878865Y-103344153D01*
X158961958Y-103399511D01*
X159050362Y-103461646D01*
X159089248Y-103489900D01*
X159113394Y-103507590D01*
X159135180Y-103523522D01*
X159153081Y-103536581D01*
X159165572Y-103545656D01*
X159170718Y-103549352D01*
X159174024Y-103550523D01*
X159178516Y-103549352D01*
X159184997Y-103545086D01*
X159194273Y-103536969D01*
X159207149Y-103524246D01*
X159224431Y-103506164D01*
X159246924Y-103481967D01*
X159273429Y-103453090D01*
X159309480Y-103414165D01*
X159350799Y-103370373D01*
X159396165Y-103322954D01*
X159444358Y-103273144D01*
X159494156Y-103222183D01*
X159544339Y-103171307D01*
X159593685Y-103121756D01*
X159640974Y-103074768D01*
X159684984Y-103031580D01*
X159724494Y-102993430D01*
X159757049Y-102962704D01*
X159862400Y-102866914D01*
X159962801Y-102779954D01*
X160058286Y-102701800D01*
X160148888Y-102632429D01*
X160234640Y-102571816D01*
X160315576Y-102519938D01*
X160391730Y-102476771D01*
X160463134Y-102442292D01*
X160516652Y-102421021D01*
X160547826Y-102411237D01*
X160582931Y-102402351D01*
X160618775Y-102395004D01*
X160652165Y-102389833D01*
X160679908Y-102387477D01*
X160684692Y-102387400D01*
X160717843Y-102389981D01*
G36*
X166400457Y-102622467D02*
G01*
X166447285Y-102636166D01*
X166492306Y-102659819D01*
X166535334Y-102693409D01*
X166539917Y-102697691D01*
X166578435Y-102739300D01*
X166615121Y-102789294D01*
X166650052Y-102847870D01*
X166683307Y-102915228D01*
X166714965Y-102991566D01*
X166745104Y-103077083D01*
X166773802Y-103171978D01*
X166801137Y-103276449D01*
X166827189Y-103390696D01*
X166842304Y-103464360D01*
X166867956Y-103579961D01*
X166897450Y-103686279D01*
X166930827Y-103783452D01*
X166946728Y-103823286D01*
X166959998Y-103853156D01*
X166973307Y-103879724D01*
X166985830Y-103901598D01*
X166996742Y-103917387D01*
X167005218Y-103925699D01*
X167008000Y-103926630D01*
X167011480Y-103922229D01*
X167018779Y-103909740D01*
X167029333Y-103890241D01*
X167042578Y-103864808D01*
X167057950Y-103834519D01*
X167074883Y-103800452D01*
X167085848Y-103778050D01*
X167127992Y-103692176D01*
X167171219Y-103605486D01*
X167214943Y-103519094D01*
X167258579Y-103434114D01*
X167301541Y-103351662D01*
X167343244Y-103272851D01*
X167383104Y-103198796D01*
X167420533Y-103130612D01*
X167454948Y-103069413D01*
X167485763Y-103016314D01*
X167486673Y-103014780D01*
X167528370Y-102946100D01*
X167566505Y-102886755D01*
X167601187Y-102836608D01*
X167632524Y-102795518D01*
X167660625Y-102763347D01*
X167685599Y-102739957D01*
X167707553Y-102725209D01*
X167716200Y-102721452D01*
X167730072Y-102716269D01*
X167750463Y-102708290D01*
X167774517Y-102698647D01*
X167797026Y-102689443D01*
X167832565Y-102675760D01*
X167862472Y-102667030D01*
X167889803Y-102662939D01*
X167917616Y-102663171D01*
X167948965Y-102667412D01*
X167970136Y-102671619D01*
X168046782Y-102691808D01*
X168115079Y-102717778D01*
X168175047Y-102749548D01*
X168226706Y-102787139D01*
X168270076Y-102830571D01*
X168305178Y-102879864D01*
X168332031Y-102935039D01*
X168350655Y-102996115D01*
X168361071Y-103063114D01*
X168361219Y-103064785D01*
X168364150Y-103088771D01*
X168368391Y-103111844D01*
X168373168Y-103130024D01*
X168374685Y-103134160D01*
X168375937Y-103137538D01*
X168377077Y-103141625D01*
X168378112Y-103146902D01*
X168379049Y-103153856D01*
X168379896Y-103162969D01*
X168380660Y-103174726D01*
X168381349Y-103189611D01*
X168381969Y-103208108D01*
X168382529Y-103230701D01*
X168383034Y-103257874D01*
X168383494Y-103290111D01*
X168383915Y-103327897D01*
X168384304Y-103371715D01*
X168384669Y-103422049D01*
X168385017Y-103479384D01*
X168385355Y-103544204D01*
X168385692Y-103616992D01*
X168386033Y-103698233D01*
X168386387Y-103788410D01*
X168386761Y-103888009D01*
X168386968Y-103944420D01*
X168387352Y-104048980D01*
X168387707Y-104143894D01*
X168388043Y-104229676D01*
X168388367Y-104306840D01*
X168388689Y-104375899D01*
X168389017Y-104437367D01*
X168389360Y-104491759D01*
X168389726Y-104539587D01*
X168390123Y-104581367D01*
X168390561Y-104617611D01*
X168391048Y-104648834D01*
X168391593Y-104675549D01*
X168392203Y-104698270D01*
X168392889Y-104717512D01*
X168393657Y-104733788D01*
X168394517Y-104747611D01*
X168395478Y-104759497D01*
X168396547Y-104769957D01*
X168397735Y-104779507D01*
X168399048Y-104788661D01*
X168400496Y-104797931D01*
X168401300Y-104802940D01*
X168429761Y-104954487D01*
X168453700Y-105056940D01*
X168460402Y-105084442D01*
X168464646Y-105105572D01*
X168466808Y-105123711D01*
X168467266Y-105142244D01*
X168466396Y-105164554D01*
X168466159Y-105168700D01*
X168461893Y-105213163D01*
X168454141Y-105251733D01*
X168441908Y-105288367D01*
X168428411Y-105318560D01*
X168409294Y-105350203D01*
X168383233Y-105382762D01*
X168352786Y-105413549D01*
X168320511Y-105439878D01*
X168300547Y-105452876D01*
X168254475Y-105476300D01*
X168204279Y-105495979D01*
X168151886Y-105511536D01*
X168099219Y-105522596D01*
X168048207Y-105528784D01*
X168000775Y-105529724D01*
X167958849Y-105525041D01*
X167945894Y-105522021D01*
X167892318Y-105502595D01*
X167843079Y-105474539D01*
X167798092Y-105437738D01*
X167757269Y-105392077D01*
X167720522Y-105337441D01*
X167687766Y-105273714D01*
X167658912Y-105200780D01*
X167633874Y-105118524D01*
X167629947Y-105103433D01*
X167615582Y-105043873D01*
X167603714Y-104987332D01*
X167594149Y-104932014D01*
X167586692Y-104876122D01*
X167581149Y-104817860D01*
X167577327Y-104755433D01*
X167575031Y-104687045D01*
X167574067Y-104610900D01*
X167574008Y-104585770D01*
X167573960Y-104409240D01*
X167562530Y-104409476D01*
X167555786Y-104411848D01*
X167547122Y-104419438D01*
X167535544Y-104433339D01*
X167520056Y-104454643D01*
X167515594Y-104461056D01*
X167497225Y-104486014D01*
X167474655Y-104514305D01*
X167450961Y-104542174D01*
X167432365Y-104562590D01*
X167373351Y-104618877D01*
X167312471Y-104665340D01*
X167249159Y-104702232D01*
X167182845Y-104729804D01*
X167112961Y-104748309D01*
X167038940Y-104758000D01*
X166988962Y-104759693D01*
X166921560Y-104756530D01*
X166860304Y-104746836D01*
X166803149Y-104730095D01*
X166748052Y-104705791D01*
X166724413Y-104692845D01*
X166665356Y-104652855D01*
X166610116Y-104603450D01*
X166558694Y-104544631D01*
X166511090Y-104476397D01*
X166467304Y-104398749D01*
X166427336Y-104311688D01*
X166391188Y-104215214D01*
X166358858Y-104109328D01*
X166349775Y-104075230D01*
X166345775Y-104061830D01*
X166340651Y-104055577D01*
X166330887Y-104053747D01*
X166321904Y-104053640D01*
X166299600Y-104053640D01*
X166294295Y-104080310D01*
X166292039Y-104091847D01*
X166288158Y-104111915D01*
X166282930Y-104139066D01*
X166276633Y-104171851D01*
X166269546Y-104208820D01*
X166261948Y-104248526D01*
X166258184Y-104268220D01*
X166234847Y-104388326D01*
X166211879Y-104502482D01*
X166189394Y-104610194D01*
X166167505Y-104710967D01*
X166146325Y-104804306D01*
X166125967Y-104889714D01*
X166106545Y-104966699D01*
X166088171Y-105034763D01*
X166070959Y-105093413D01*
X166065495Y-105110798D01*
X166053957Y-105146301D01*
X166043905Y-105174987D01*
X166034205Y-105198671D01*
X166023721Y-105219169D01*
X166011317Y-105238299D01*
X165995857Y-105257875D01*
X165976207Y-105279713D01*
X165951230Y-105305631D01*
X165930580Y-105326556D01*
X165890933Y-105361196D01*
X165850110Y-105386450D01*
X165808602Y-105402123D01*
X165766900Y-105408021D01*
X165731594Y-105405189D01*
X165696078Y-105394407D01*
X165666189Y-105376038D01*
X165641657Y-105349741D01*
X165622212Y-105315174D01*
X165607585Y-105271998D01*
X165600612Y-105239597D01*
X165599623Y-105234205D01*
X165598751Y-105229230D01*
X165598072Y-105224152D01*
X165597662Y-105218450D01*
X165597597Y-105211603D01*
X165597956Y-105203092D01*
X165598813Y-105192396D01*
X165600245Y-105178994D01*
X165602329Y-105162367D01*
X165605142Y-105141993D01*
X165608760Y-105117353D01*
X165613259Y-105087927D01*
X165618716Y-105053193D01*
X165625208Y-105012631D01*
X165632811Y-104965722D01*
X165641601Y-104911944D01*
X165651656Y-104850778D01*
X165663051Y-104781702D01*
X165675863Y-104704198D01*
X165690170Y-104617743D01*
X165706046Y-104521818D01*
X165707150Y-104515146D01*
X165733338Y-104357768D01*
X165758696Y-104207110D01*
X165783189Y-104063371D01*
X165806777Y-103926749D01*
X165829424Y-103797441D01*
X165851091Y-103675645D01*
X165871742Y-103561559D01*
X165891337Y-103455382D01*
X165909839Y-103357310D01*
X165927212Y-103267543D01*
X165943416Y-103186277D01*
X165958414Y-103113710D01*
X165972169Y-103050041D01*
X165984643Y-102995467D01*
X165995798Y-102950187D01*
X166005596Y-102914398D01*
X166014000Y-102888297D01*
X166019983Y-102873948D01*
X166041055Y-102837171D01*
X166067120Y-102799236D01*
X166096502Y-102762080D01*
X166127523Y-102727637D01*
X166158507Y-102697844D01*
X166187776Y-102674638D01*
X166198786Y-102667538D01*
X166250987Y-102641257D01*
X166302122Y-102624996D01*
X166352008Y-102618738D01*
X166400457Y-102622467D01*
X166400457Y-102622467D01*
G37*
X166400457Y-102622467D02*
X166447285Y-102636166D01*
X166492306Y-102659819D01*
X166535334Y-102693409D01*
X166539917Y-102697691D01*
X166578435Y-102739300D01*
X166615121Y-102789294D01*
X166650052Y-102847870D01*
X166683307Y-102915228D01*
X166714965Y-102991566D01*
X166745104Y-103077083D01*
X166773802Y-103171978D01*
X166801137Y-103276449D01*
X166827189Y-103390696D01*
X166842304Y-103464360D01*
X166867956Y-103579961D01*
X166897450Y-103686279D01*
X166930827Y-103783452D01*
X166946728Y-103823286D01*
X166959998Y-103853156D01*
X166973307Y-103879724D01*
X166985830Y-103901598D01*
X166996742Y-103917387D01*
X167005218Y-103925699D01*
X167008000Y-103926630D01*
X167011480Y-103922229D01*
X167018779Y-103909740D01*
X167029333Y-103890241D01*
X167042578Y-103864808D01*
X167057950Y-103834519D01*
X167074883Y-103800452D01*
X167085848Y-103778050D01*
X167127992Y-103692176D01*
X167171219Y-103605486D01*
X167214943Y-103519094D01*
X167258579Y-103434114D01*
X167301541Y-103351662D01*
X167343244Y-103272851D01*
X167383104Y-103198796D01*
X167420533Y-103130612D01*
X167454948Y-103069413D01*
X167485763Y-103016314D01*
X167486673Y-103014780D01*
X167528370Y-102946100D01*
X167566505Y-102886755D01*
X167601187Y-102836608D01*
X167632524Y-102795518D01*
X167660625Y-102763347D01*
X167685599Y-102739957D01*
X167707553Y-102725209D01*
X167716200Y-102721452D01*
X167730072Y-102716269D01*
X167750463Y-102708290D01*
X167774517Y-102698647D01*
X167797026Y-102689443D01*
X167832565Y-102675760D01*
X167862472Y-102667030D01*
X167889803Y-102662939D01*
X167917616Y-102663171D01*
X167948965Y-102667412D01*
X167970136Y-102671619D01*
X168046782Y-102691808D01*
X168115079Y-102717778D01*
X168175047Y-102749548D01*
X168226706Y-102787139D01*
X168270076Y-102830571D01*
X168305178Y-102879864D01*
X168332031Y-102935039D01*
X168350655Y-102996115D01*
X168361071Y-103063114D01*
X168361219Y-103064785D01*
X168364150Y-103088771D01*
X168368391Y-103111844D01*
X168373168Y-103130024D01*
X168374685Y-103134160D01*
X168375937Y-103137538D01*
X168377077Y-103141625D01*
X168378112Y-103146902D01*
X168379049Y-103153856D01*
X168379896Y-103162969D01*
X168380660Y-103174726D01*
X168381349Y-103189611D01*
X168381969Y-103208108D01*
X168382529Y-103230701D01*
X168383034Y-103257874D01*
X168383494Y-103290111D01*
X168383915Y-103327897D01*
X168384304Y-103371715D01*
X168384669Y-103422049D01*
X168385017Y-103479384D01*
X168385355Y-103544204D01*
X168385692Y-103616992D01*
X168386033Y-103698233D01*
X168386387Y-103788410D01*
X168386761Y-103888009D01*
X168386968Y-103944420D01*
X168387352Y-104048980D01*
X168387707Y-104143894D01*
X168388043Y-104229676D01*
X168388367Y-104306840D01*
X168388689Y-104375899D01*
X168389017Y-104437367D01*
X168389360Y-104491759D01*
X168389726Y-104539587D01*
X168390123Y-104581367D01*
X168390561Y-104617611D01*
X168391048Y-104648834D01*
X168391593Y-104675549D01*
X168392203Y-104698270D01*
X168392889Y-104717512D01*
X168393657Y-104733788D01*
X168394517Y-104747611D01*
X168395478Y-104759497D01*
X168396547Y-104769957D01*
X168397735Y-104779507D01*
X168399048Y-104788661D01*
X168400496Y-104797931D01*
X168401300Y-104802940D01*
X168429761Y-104954487D01*
X168453700Y-105056940D01*
X168460402Y-105084442D01*
X168464646Y-105105572D01*
X168466808Y-105123711D01*
X168467266Y-105142244D01*
X168466396Y-105164554D01*
X168466159Y-105168700D01*
X168461893Y-105213163D01*
X168454141Y-105251733D01*
X168441908Y-105288367D01*
X168428411Y-105318560D01*
X168409294Y-105350203D01*
X168383233Y-105382762D01*
X168352786Y-105413549D01*
X168320511Y-105439878D01*
X168300547Y-105452876D01*
X168254475Y-105476300D01*
X168204279Y-105495979D01*
X168151886Y-105511536D01*
X168099219Y-105522596D01*
X168048207Y-105528784D01*
X168000775Y-105529724D01*
X167958849Y-105525041D01*
X167945894Y-105522021D01*
X167892318Y-105502595D01*
X167843079Y-105474539D01*
X167798092Y-105437738D01*
X167757269Y-105392077D01*
X167720522Y-105337441D01*
X167687766Y-105273714D01*
X167658912Y-105200780D01*
X167633874Y-105118524D01*
X167629947Y-105103433D01*
X167615582Y-105043873D01*
X167603714Y-104987332D01*
X167594149Y-104932014D01*
X167586692Y-104876122D01*
X167581149Y-104817860D01*
X167577327Y-104755433D01*
X167575031Y-104687045D01*
X167574067Y-104610900D01*
X167574008Y-104585770D01*
X167573960Y-104409240D01*
X167562530Y-104409476D01*
X167555786Y-104411848D01*
X167547122Y-104419438D01*
X167535544Y-104433339D01*
X167520056Y-104454643D01*
X167515594Y-104461056D01*
X167497225Y-104486014D01*
X167474655Y-104514305D01*
X167450961Y-104542174D01*
X167432365Y-104562590D01*
X167373351Y-104618877D01*
X167312471Y-104665340D01*
X167249159Y-104702232D01*
X167182845Y-104729804D01*
X167112961Y-104748309D01*
X167038940Y-104758000D01*
X166988962Y-104759693D01*
X166921560Y-104756530D01*
X166860304Y-104746836D01*
X166803149Y-104730095D01*
X166748052Y-104705791D01*
X166724413Y-104692845D01*
X166665356Y-104652855D01*
X166610116Y-104603450D01*
X166558694Y-104544631D01*
X166511090Y-104476397D01*
X166467304Y-104398749D01*
X166427336Y-104311688D01*
X166391188Y-104215214D01*
X166358858Y-104109328D01*
X166349775Y-104075230D01*
X166345775Y-104061830D01*
X166340651Y-104055577D01*
X166330887Y-104053747D01*
X166321904Y-104053640D01*
X166299600Y-104053640D01*
X166294295Y-104080310D01*
X166292039Y-104091847D01*
X166288158Y-104111915D01*
X166282930Y-104139066D01*
X166276633Y-104171851D01*
X166269546Y-104208820D01*
X166261948Y-104248526D01*
X166258184Y-104268220D01*
X166234847Y-104388326D01*
X166211879Y-104502482D01*
X166189394Y-104610194D01*
X166167505Y-104710967D01*
X166146325Y-104804306D01*
X166125967Y-104889714D01*
X166106545Y-104966699D01*
X166088171Y-105034763D01*
X166070959Y-105093413D01*
X166065495Y-105110798D01*
X166053957Y-105146301D01*
X166043905Y-105174987D01*
X166034205Y-105198671D01*
X166023721Y-105219169D01*
X166011317Y-105238299D01*
X165995857Y-105257875D01*
X165976207Y-105279713D01*
X165951230Y-105305631D01*
X165930580Y-105326556D01*
X165890933Y-105361196D01*
X165850110Y-105386450D01*
X165808602Y-105402123D01*
X165766900Y-105408021D01*
X165731594Y-105405189D01*
X165696078Y-105394407D01*
X165666189Y-105376038D01*
X165641657Y-105349741D01*
X165622212Y-105315174D01*
X165607585Y-105271998D01*
X165600612Y-105239597D01*
X165599623Y-105234205D01*
X165598751Y-105229230D01*
X165598072Y-105224152D01*
X165597662Y-105218450D01*
X165597597Y-105211603D01*
X165597956Y-105203092D01*
X165598813Y-105192396D01*
X165600245Y-105178994D01*
X165602329Y-105162367D01*
X165605142Y-105141993D01*
X165608760Y-105117353D01*
X165613259Y-105087927D01*
X165618716Y-105053193D01*
X165625208Y-105012631D01*
X165632811Y-104965722D01*
X165641601Y-104911944D01*
X165651656Y-104850778D01*
X165663051Y-104781702D01*
X165675863Y-104704198D01*
X165690170Y-104617743D01*
X165706046Y-104521818D01*
X165707150Y-104515146D01*
X165733338Y-104357768D01*
X165758696Y-104207110D01*
X165783189Y-104063371D01*
X165806777Y-103926749D01*
X165829424Y-103797441D01*
X165851091Y-103675645D01*
X165871742Y-103561559D01*
X165891337Y-103455382D01*
X165909839Y-103357310D01*
X165927212Y-103267543D01*
X165943416Y-103186277D01*
X165958414Y-103113710D01*
X165972169Y-103050041D01*
X165984643Y-102995467D01*
X165995798Y-102950187D01*
X166005596Y-102914398D01*
X166014000Y-102888297D01*
X166019983Y-102873948D01*
X166041055Y-102837171D01*
X166067120Y-102799236D01*
X166096502Y-102762080D01*
X166127523Y-102727637D01*
X166158507Y-102697844D01*
X166187776Y-102674638D01*
X166198786Y-102667538D01*
X166250987Y-102641257D01*
X166302122Y-102624996D01*
X166352008Y-102618738D01*
X166400457Y-102622467D01*
G36*
X182513297Y-102704705D02*
G01*
X182542909Y-102709098D01*
X182568819Y-102716422D01*
X182593117Y-102727007D01*
X182596883Y-102728966D01*
X182631156Y-102752809D01*
X182659197Y-102784556D01*
X182680858Y-102823975D01*
X182695990Y-102870833D01*
X182699970Y-102890391D01*
X182703304Y-102921046D01*
X182702747Y-102953950D01*
X182698065Y-102989878D01*
X182689022Y-103029600D01*
X182675381Y-103073888D01*
X182656908Y-103123514D01*
X182633365Y-103179250D01*
X182604519Y-103241867D01*
X182572762Y-103306880D01*
X182543526Y-103364555D01*
X182513234Y-103422494D01*
X182481398Y-103481531D01*
X182447530Y-103542505D01*
X182411143Y-103606251D01*
X182371750Y-103673606D01*
X182328862Y-103745408D01*
X182281992Y-103822492D01*
X182230654Y-103905696D01*
X182174358Y-103995856D01*
X182133190Y-104061260D01*
X182025458Y-104235366D01*
X181923085Y-104408047D01*
X181824813Y-104581579D01*
X181729386Y-104758238D01*
X181635545Y-104940300D01*
X181542036Y-105130040D01*
X181535647Y-105143300D01*
X181501398Y-105211765D01*
X181468641Y-105271447D01*
X181436660Y-105323477D01*
X181404735Y-105368989D01*
X181372148Y-105409113D01*
X181355552Y-105427331D01*
X181303117Y-105477010D01*
X181249022Y-105516788D01*
X181192763Y-105546857D01*
X181133837Y-105567408D01*
X181071741Y-105578634D01*
X181005971Y-105580727D01*
X180962363Y-105577437D01*
X180917877Y-105569996D01*
X180871694Y-105558088D01*
X180827930Y-105542927D01*
X180795041Y-105528045D01*
X180758687Y-105504773D01*
X180723128Y-105474138D01*
X180690939Y-105438779D01*
X180664695Y-105401336D01*
X180655992Y-105385478D01*
X180638704Y-105348975D01*
X180626466Y-105317574D01*
X180618512Y-105288045D01*
X180614075Y-105257161D01*
X180612388Y-105221694D01*
X180612332Y-105201720D01*
X180612883Y-105170384D01*
X180614327Y-105145530D01*
X180617122Y-105123490D01*
X180621725Y-105100596D01*
X180628190Y-105074720D01*
X180647784Y-105010685D01*
X180674391Y-104940421D01*
X180707618Y-104864657D01*
X180747075Y-104784123D01*
X180792370Y-104699548D01*
X180843112Y-104611660D01*
X180898910Y-104521191D01*
X180959372Y-104428867D01*
X181024107Y-104335420D01*
X181027081Y-104331246D01*
X181041913Y-104310239D01*
X181050926Y-104296359D01*
X181054266Y-104288511D01*
X181052081Y-104285600D01*
X181044520Y-104286531D01*
X181032659Y-104289925D01*
X181016904Y-104294155D01*
X180994699Y-104299391D01*
X180969588Y-104304817D01*
X180955023Y-104307744D01*
X180869944Y-104320542D01*
X180790274Y-104324748D01*
X180715961Y-104320342D01*
X180646954Y-104307300D01*
X180583205Y-104285602D01*
X180524662Y-104255226D01*
X180471276Y-104216150D01*
X180422996Y-104168351D01*
X180379771Y-104111809D01*
X180341553Y-104046502D01*
X180338731Y-104040940D01*
X180316733Y-103992238D01*
X180295170Y-103935168D01*
X180274545Y-103871523D01*
X180255356Y-103803095D01*
X180238107Y-103731676D01*
X180223296Y-103659058D01*
X180211425Y-103587033D01*
X180210955Y-103583740D01*
X180204315Y-103531809D01*
X180198587Y-103476792D01*
X180193842Y-103420287D01*
X180190152Y-103363897D01*
X180187589Y-103309224D01*
X180186225Y-103257867D01*
X180186132Y-103211428D01*
X180187382Y-103171509D01*
X180190047Y-103139711D01*
X180190770Y-103134367D01*
X180202466Y-103072509D01*
X180218063Y-103019894D01*
X180237653Y-102976348D01*
X180261327Y-102941696D01*
X180289177Y-102915762D01*
X180312060Y-102902299D01*
X180338861Y-102893908D01*
X180370576Y-102890322D01*
X180403091Y-102891690D01*
X180431805Y-102897993D01*
X180465045Y-102914167D01*
X180497230Y-102939708D01*
X180528424Y-102974726D01*
X180558693Y-103019329D01*
X180588100Y-103073625D01*
X180616712Y-103137725D01*
X180644592Y-103211736D01*
X180671805Y-103295767D01*
X180675132Y-103306876D01*
X180701317Y-103391083D01*
X180727011Y-103465514D01*
X180752404Y-103530529D01*
X180777691Y-103586490D01*
X180803064Y-103633755D01*
X180828716Y-103672687D01*
X180854838Y-103703646D01*
X180881624Y-103726991D01*
X180907808Y-103742422D01*
X180925540Y-103749192D01*
X180942430Y-103751906D01*
X180960614Y-103750266D01*
X180982232Y-103743976D01*
X181009422Y-103732737D01*
X181023260Y-103726356D01*
X181057238Y-103708464D01*
X181097647Y-103683895D01*
X181143794Y-103653210D01*
X181194982Y-103616974D01*
X181250516Y-103575749D01*
X181309702Y-103530099D01*
X181371845Y-103480587D01*
X181436250Y-103427776D01*
X181502221Y-103372229D01*
X181569065Y-103314511D01*
X181636085Y-103255183D01*
X181702587Y-103194809D01*
X181767875Y-103133952D01*
X181831256Y-103073177D01*
X181841211Y-103063461D01*
X181909636Y-102997974D01*
X181973115Y-102940385D01*
X182032381Y-102890168D01*
X182088168Y-102846795D01*
X182141208Y-102809741D01*
X182192236Y-102778479D01*
X182241985Y-102752483D01*
X182291189Y-102731226D01*
X182317629Y-102721588D01*
X182338384Y-102714852D01*
X182356312Y-102710168D01*
X182374395Y-102707072D01*
X182395619Y-102705100D01*
X182422968Y-102703789D01*
X182434606Y-102703398D01*
X182477893Y-102702915D01*
X182513297Y-102704705D01*
X182513297Y-102704705D01*
G37*
X182513297Y-102704705D02*
X182542909Y-102709098D01*
X182568819Y-102716422D01*
X182593117Y-102727007D01*
X182596883Y-102728966D01*
X182631156Y-102752809D01*
X182659197Y-102784556D01*
X182680858Y-102823975D01*
X182695990Y-102870833D01*
X182699970Y-102890391D01*
X182703304Y-102921046D01*
X182702747Y-102953950D01*
X182698065Y-102989878D01*
X182689022Y-103029600D01*
X182675381Y-103073888D01*
X182656908Y-103123514D01*
X182633365Y-103179250D01*
X182604519Y-103241867D01*
X182572762Y-103306880D01*
X182543526Y-103364555D01*
X182513234Y-103422494D01*
X182481398Y-103481531D01*
X182447530Y-103542505D01*
X182411143Y-103606251D01*
X182371750Y-103673606D01*
X182328862Y-103745408D01*
X182281992Y-103822492D01*
X182230654Y-103905696D01*
X182174358Y-103995856D01*
X182133190Y-104061260D01*
X182025458Y-104235366D01*
X181923085Y-104408047D01*
X181824813Y-104581579D01*
X181729386Y-104758238D01*
X181635545Y-104940300D01*
X181542036Y-105130040D01*
X181535647Y-105143300D01*
X181501398Y-105211765D01*
X181468641Y-105271447D01*
X181436660Y-105323477D01*
X181404735Y-105368989D01*
X181372148Y-105409113D01*
X181355552Y-105427331D01*
X181303117Y-105477010D01*
X181249022Y-105516788D01*
X181192763Y-105546857D01*
X181133837Y-105567408D01*
X181071741Y-105578634D01*
X181005971Y-105580727D01*
X180962363Y-105577437D01*
X180917877Y-105569996D01*
X180871694Y-105558088D01*
X180827930Y-105542927D01*
X180795041Y-105528045D01*
X180758687Y-105504773D01*
X180723128Y-105474138D01*
X180690939Y-105438779D01*
X180664695Y-105401336D01*
X180655992Y-105385478D01*
X180638704Y-105348975D01*
X180626466Y-105317574D01*
X180618512Y-105288045D01*
X180614075Y-105257161D01*
X180612388Y-105221694D01*
X180612332Y-105201720D01*
X180612883Y-105170384D01*
X180614327Y-105145530D01*
X180617122Y-105123490D01*
X180621725Y-105100596D01*
X180628190Y-105074720D01*
X180647784Y-105010685D01*
X180674391Y-104940421D01*
X180707618Y-104864657D01*
X180747075Y-104784123D01*
X180792370Y-104699548D01*
X180843112Y-104611660D01*
X180898910Y-104521191D01*
X180959372Y-104428867D01*
X181024107Y-104335420D01*
X181027081Y-104331246D01*
X181041913Y-104310239D01*
X181050926Y-104296359D01*
X181054266Y-104288511D01*
X181052081Y-104285600D01*
X181044520Y-104286531D01*
X181032659Y-104289925D01*
X181016904Y-104294155D01*
X180994699Y-104299391D01*
X180969588Y-104304817D01*
X180955023Y-104307744D01*
X180869944Y-104320542D01*
X180790274Y-104324748D01*
X180715961Y-104320342D01*
X180646954Y-104307300D01*
X180583205Y-104285602D01*
X180524662Y-104255226D01*
X180471276Y-104216150D01*
X180422996Y-104168351D01*
X180379771Y-104111809D01*
X180341553Y-104046502D01*
X180338731Y-104040940D01*
X180316733Y-103992238D01*
X180295170Y-103935168D01*
X180274545Y-103871523D01*
X180255356Y-103803095D01*
X180238107Y-103731676D01*
X180223296Y-103659058D01*
X180211425Y-103587033D01*
X180210955Y-103583740D01*
X180204315Y-103531809D01*
X180198587Y-103476792D01*
X180193842Y-103420287D01*
X180190152Y-103363897D01*
X180187589Y-103309224D01*
X180186225Y-103257867D01*
X180186132Y-103211428D01*
X180187382Y-103171509D01*
X180190047Y-103139711D01*
X180190770Y-103134367D01*
X180202466Y-103072509D01*
X180218063Y-103019894D01*
X180237653Y-102976348D01*
X180261327Y-102941696D01*
X180289177Y-102915762D01*
X180312060Y-102902299D01*
X180338861Y-102893908D01*
X180370576Y-102890322D01*
X180403091Y-102891690D01*
X180431805Y-102897993D01*
X180465045Y-102914167D01*
X180497230Y-102939708D01*
X180528424Y-102974726D01*
X180558693Y-103019329D01*
X180588100Y-103073625D01*
X180616712Y-103137725D01*
X180644592Y-103211736D01*
X180671805Y-103295767D01*
X180675132Y-103306876D01*
X180701317Y-103391083D01*
X180727011Y-103465514D01*
X180752404Y-103530529D01*
X180777691Y-103586490D01*
X180803064Y-103633755D01*
X180828716Y-103672687D01*
X180854838Y-103703646D01*
X180881624Y-103726991D01*
X180907808Y-103742422D01*
X180925540Y-103749192D01*
X180942430Y-103751906D01*
X180960614Y-103750266D01*
X180982232Y-103743976D01*
X181009422Y-103732737D01*
X181023260Y-103726356D01*
X181057238Y-103708464D01*
X181097647Y-103683895D01*
X181143794Y-103653210D01*
X181194982Y-103616974D01*
X181250516Y-103575749D01*
X181309702Y-103530099D01*
X181371845Y-103480587D01*
X181436250Y-103427776D01*
X181502221Y-103372229D01*
X181569065Y-103314511D01*
X181636085Y-103255183D01*
X181702587Y-103194809D01*
X181767875Y-103133952D01*
X181831256Y-103073177D01*
X181841211Y-103063461D01*
X181909636Y-102997974D01*
X181973115Y-102940385D01*
X182032381Y-102890168D01*
X182088168Y-102846795D01*
X182141208Y-102809741D01*
X182192236Y-102778479D01*
X182241985Y-102752483D01*
X182291189Y-102731226D01*
X182317629Y-102721588D01*
X182338384Y-102714852D01*
X182356312Y-102710168D01*
X182374395Y-102707072D01*
X182395619Y-102705100D01*
X182422968Y-102703789D01*
X182434606Y-102703398D01*
X182477893Y-102702915D01*
X182513297Y-102704705D01*
G36*
X188180934Y-102597106D02*
G01*
X188229581Y-102599276D01*
X188244480Y-102600302D01*
X188343377Y-102611735D01*
X188435664Y-102630637D01*
X188521843Y-102657220D01*
X188602414Y-102691695D01*
X188677875Y-102734273D01*
X188748729Y-102785165D01*
X188809681Y-102838938D01*
X188854505Y-102884753D01*
X188891829Y-102928773D01*
X188923425Y-102973357D01*
X188951067Y-103020864D01*
X188960906Y-103040180D01*
X188987426Y-103099911D01*
X189007423Y-103158925D01*
X189021407Y-103219555D01*
X189029887Y-103284139D01*
X189033373Y-103355010D01*
X189033523Y-103372920D01*
X189031542Y-103445108D01*
X189025134Y-103516123D01*
X189013930Y-103588419D01*
X188997560Y-103664453D01*
X188979075Y-103734680D01*
X188952557Y-103815393D01*
X188920243Y-103888868D01*
X188881123Y-103956830D01*
X188834184Y-104021004D01*
X188778413Y-104083117D01*
X188769263Y-104092323D01*
X188722547Y-104138753D01*
X188807363Y-104226641D01*
X188864489Y-104284764D01*
X188916772Y-104335586D01*
X188965317Y-104380047D01*
X189011229Y-104419083D01*
X189055611Y-104453634D01*
X189099568Y-104484636D01*
X189144204Y-104513028D01*
X189145368Y-104513731D01*
X189187230Y-104542418D01*
X189224735Y-104574927D01*
X189256147Y-104609519D01*
X189279736Y-104644454D01*
X189284227Y-104653080D01*
X189298406Y-104685186D01*
X189308205Y-104715576D01*
X189314242Y-104747312D01*
X189317137Y-104783456D01*
X189317602Y-104818180D01*
X189314653Y-104875334D01*
X189306278Y-104925176D01*
X189291928Y-104969304D01*
X189271057Y-105009318D01*
X189243115Y-105046817D01*
X189236836Y-105053928D01*
X189198655Y-105089276D01*
X189152047Y-105120803D01*
X189098168Y-105148069D01*
X189038173Y-105170630D01*
X188973217Y-105188044D01*
X188904456Y-105199869D01*
X188841380Y-105205316D01*
X188799143Y-105205711D01*
X188761082Y-105202212D01*
X188723753Y-105194174D01*
X188683711Y-105180954D01*
X188659156Y-105171186D01*
X188602289Y-105143134D01*
X188543183Y-105105483D01*
X188482105Y-105058481D01*
X188419325Y-105002373D01*
X188355113Y-104937406D01*
X188289735Y-104863827D01*
X188223462Y-104781883D01*
X188196943Y-104747060D01*
X188184859Y-104730513D01*
X188169328Y-104708616D01*
X188151192Y-104682618D01*
X188131296Y-104653765D01*
X188110480Y-104623306D01*
X188089587Y-104592487D01*
X188069460Y-104562557D01*
X188050941Y-104534762D01*
X188034873Y-104510351D01*
X188022098Y-104490571D01*
X188013459Y-104476670D01*
X188009823Y-104469967D01*
X188004588Y-104469342D01*
X187991392Y-104470864D01*
X187972136Y-104474239D01*
X187948718Y-104479172D01*
X187944760Y-104480075D01*
X187915257Y-104486749D01*
X187884206Y-104493560D01*
X187855652Y-104499633D01*
X187836810Y-104503472D01*
X187815670Y-104507784D01*
X187802585Y-104511218D01*
X187795625Y-104514777D01*
X187792860Y-104519466D01*
X187792360Y-104526286D01*
X187792360Y-104526580D01*
X187793187Y-104540604D01*
X187795568Y-104563635D01*
X187799353Y-104594663D01*
X187804391Y-104632680D01*
X187810531Y-104676675D01*
X187817624Y-104725641D01*
X187825518Y-104778568D01*
X187834064Y-104834446D01*
X187843110Y-104892267D01*
X187852506Y-104951020D01*
X187862102Y-105009698D01*
X187871746Y-105067291D01*
X187881148Y-105121975D01*
X187898649Y-105222319D01*
X187883460Y-105269169D01*
X187861883Y-105327117D01*
X187835981Y-105382139D01*
X187806773Y-105432518D01*
X187775276Y-105476533D01*
X187742508Y-105512467D01*
X187735588Y-105518802D01*
X187712007Y-105536581D01*
X187682712Y-105554183D01*
X187651232Y-105569810D01*
X187621096Y-105581666D01*
X187601860Y-105586929D01*
X187575014Y-105590882D01*
X187541676Y-105593619D01*
X187505454Y-105595015D01*
X187469956Y-105594941D01*
X187438791Y-105593271D01*
X187434220Y-105592823D01*
X187386913Y-105584311D01*
X187339466Y-105569459D01*
X187296415Y-105549734D01*
X187290278Y-105546248D01*
X187264911Y-105528520D01*
X187236921Y-105504220D01*
X187208558Y-105475689D01*
X187182070Y-105445271D01*
X187159708Y-105415309D01*
X187150388Y-105400567D01*
X187118485Y-105338924D01*
X187091047Y-105270429D01*
X187067805Y-105194277D01*
X187048487Y-105109662D01*
X187043386Y-105082340D01*
X187039627Y-105059218D01*
X187035036Y-105027750D01*
X187029841Y-104989691D01*
X187024272Y-104946798D01*
X187018557Y-104900828D01*
X187012925Y-104853539D01*
X187008388Y-104813736D01*
X186986945Y-104621333D01*
X186918045Y-104597526D01*
X186844218Y-104569461D01*
X186779925Y-104539449D01*
X186724664Y-104507118D01*
X186677934Y-104472097D01*
X186639231Y-104434014D01*
X186608053Y-104392498D01*
X186586111Y-104352110D01*
X186572327Y-104318140D01*
X186563588Y-104285941D01*
X186559067Y-104251505D01*
X186557920Y-104215735D01*
X186560454Y-104168828D01*
X186568379Y-104120491D01*
X186582180Y-104068146D01*
X186590409Y-104042677D01*
X186612021Y-103988072D01*
X186637812Y-103940757D01*
X186669297Y-103898218D01*
X186692882Y-103872594D01*
X186714334Y-103851815D01*
X186732832Y-103836401D01*
X186751844Y-103823841D01*
X186774836Y-103811627D01*
X186781782Y-103808252D01*
X186826399Y-103789475D01*
X186871018Y-103776539D01*
X186919619Y-103768400D01*
X186941759Y-103766195D01*
X186982652Y-103762784D01*
X186994544Y-103716442D01*
X187011938Y-103650866D01*
X187014516Y-103641666D01*
X187712280Y-103641666D01*
X187712667Y-103725980D01*
X187714771Y-103787899D01*
X187718115Y-103843889D01*
X187722604Y-103892888D01*
X187728141Y-103933833D01*
X187734270Y-103964249D01*
X187737207Y-103971202D01*
X187743358Y-103976161D01*
X187755022Y-103980313D01*
X187773801Y-103984699D01*
X187794232Y-103988910D01*
X187812786Y-103992498D01*
X187825380Y-103994676D01*
X187844030Y-103995904D01*
X187869370Y-103995562D01*
X187898088Y-103993883D01*
X187926875Y-103991098D01*
X187952420Y-103987440D01*
X187964908Y-103984899D01*
X188017564Y-103967588D01*
X188070841Y-103941098D01*
X188123748Y-103906279D01*
X188175296Y-103863983D01*
X188224492Y-103815062D01*
X188270347Y-103760368D01*
X188311868Y-103700752D01*
X188329392Y-103671646D01*
X188353035Y-103626161D01*
X188369542Y-103583643D01*
X188379867Y-103540914D01*
X188384964Y-103494791D01*
X188385447Y-103484680D01*
X188383974Y-103426049D01*
X188374544Y-103373220D01*
X188356826Y-103325281D01*
X188330490Y-103281319D01*
X188297820Y-103243049D01*
X188264172Y-103213081D01*
X188228805Y-103190360D01*
X188190198Y-103174374D01*
X188146828Y-103164610D01*
X188097176Y-103160553D01*
X188054654Y-103160957D01*
X188012576Y-103163586D01*
X187977580Y-103168177D01*
X187946671Y-103175406D01*
X187916852Y-103185951D01*
X187889666Y-103198252D01*
X187852094Y-103220535D01*
X187819317Y-103248583D01*
X187791193Y-103282818D01*
X187767582Y-103323658D01*
X187748342Y-103371526D01*
X187733333Y-103426840D01*
X187722414Y-103490021D01*
X187715443Y-103561490D01*
X187712280Y-103641666D01*
X187014516Y-103641666D01*
X187031255Y-103581943D01*
X187051905Y-103511558D01*
X187073301Y-103441592D01*
X187094855Y-103373930D01*
X187115978Y-103310454D01*
X187136083Y-103253049D01*
X187154580Y-103203597D01*
X187155301Y-103201752D01*
X187169596Y-103166761D01*
X187186204Y-103128562D01*
X187204054Y-103089423D01*
X187222076Y-103051609D01*
X187239198Y-103017390D01*
X187254349Y-102989033D01*
X187261959Y-102975923D01*
X187290784Y-102932737D01*
X187320641Y-102895992D01*
X187350698Y-102866473D01*
X187380121Y-102844967D01*
X187408077Y-102832258D01*
X187416440Y-102830204D01*
X187430830Y-102825691D01*
X187448248Y-102816652D01*
X187470277Y-102802174D01*
X187490100Y-102787707D01*
X187567462Y-102734449D01*
X187645479Y-102690658D01*
X187725647Y-102655677D01*
X187809463Y-102628848D01*
X187893960Y-102610288D01*
X187929804Y-102605297D01*
X187973483Y-102601337D01*
X188022715Y-102598472D01*
X188075221Y-102596769D01*
X188128721Y-102596292D01*
X188180934Y-102597106D01*
X188180934Y-102597106D01*
G37*
X188180934Y-102597106D02*
X188229581Y-102599276D01*
X188244480Y-102600302D01*
X188343377Y-102611735D01*
X188435664Y-102630637D01*
X188521843Y-102657220D01*
X188602414Y-102691695D01*
X188677875Y-102734273D01*
X188748729Y-102785165D01*
X188809681Y-102838938D01*
X188854505Y-102884753D01*
X188891829Y-102928773D01*
X188923425Y-102973357D01*
X188951067Y-103020864D01*
X188960906Y-103040180D01*
X188987426Y-103099911D01*
X189007423Y-103158925D01*
X189021407Y-103219555D01*
X189029887Y-103284139D01*
X189033373Y-103355010D01*
X189033523Y-103372920D01*
X189031542Y-103445108D01*
X189025134Y-103516123D01*
X189013930Y-103588419D01*
X188997560Y-103664453D01*
X188979075Y-103734680D01*
X188952557Y-103815393D01*
X188920243Y-103888868D01*
X188881123Y-103956830D01*
X188834184Y-104021004D01*
X188778413Y-104083117D01*
X188769263Y-104092323D01*
X188722547Y-104138753D01*
X188807363Y-104226641D01*
X188864489Y-104284764D01*
X188916772Y-104335586D01*
X188965317Y-104380047D01*
X189011229Y-104419083D01*
X189055611Y-104453634D01*
X189099568Y-104484636D01*
X189144204Y-104513028D01*
X189145368Y-104513731D01*
X189187230Y-104542418D01*
X189224735Y-104574927D01*
X189256147Y-104609519D01*
X189279736Y-104644454D01*
X189284227Y-104653080D01*
X189298406Y-104685186D01*
X189308205Y-104715576D01*
X189314242Y-104747312D01*
X189317137Y-104783456D01*
X189317602Y-104818180D01*
X189314653Y-104875334D01*
X189306278Y-104925176D01*
X189291928Y-104969304D01*
X189271057Y-105009318D01*
X189243115Y-105046817D01*
X189236836Y-105053928D01*
X189198655Y-105089276D01*
X189152047Y-105120803D01*
X189098168Y-105148069D01*
X189038173Y-105170630D01*
X188973217Y-105188044D01*
X188904456Y-105199869D01*
X188841380Y-105205316D01*
X188799143Y-105205711D01*
X188761082Y-105202212D01*
X188723753Y-105194174D01*
X188683711Y-105180954D01*
X188659156Y-105171186D01*
X188602289Y-105143134D01*
X188543183Y-105105483D01*
X188482105Y-105058481D01*
X188419325Y-105002373D01*
X188355113Y-104937406D01*
X188289735Y-104863827D01*
X188223462Y-104781883D01*
X188196943Y-104747060D01*
X188184859Y-104730513D01*
X188169328Y-104708616D01*
X188151192Y-104682618D01*
X188131296Y-104653765D01*
X188110480Y-104623306D01*
X188089587Y-104592487D01*
X188069460Y-104562557D01*
X188050941Y-104534762D01*
X188034873Y-104510351D01*
X188022098Y-104490571D01*
X188013459Y-104476670D01*
X188009823Y-104469967D01*
X188004588Y-104469342D01*
X187991392Y-104470864D01*
X187972136Y-104474239D01*
X187948718Y-104479172D01*
X187944760Y-104480075D01*
X187915257Y-104486749D01*
X187884206Y-104493560D01*
X187855652Y-104499633D01*
X187836810Y-104503472D01*
X187815670Y-104507784D01*
X187802585Y-104511218D01*
X187795625Y-104514777D01*
X187792860Y-104519466D01*
X187792360Y-104526286D01*
X187792360Y-104526580D01*
X187793187Y-104540604D01*
X187795568Y-104563635D01*
X187799353Y-104594663D01*
X187804391Y-104632680D01*
X187810531Y-104676675D01*
X187817624Y-104725641D01*
X187825518Y-104778568D01*
X187834064Y-104834446D01*
X187843110Y-104892267D01*
X187852506Y-104951020D01*
X187862102Y-105009698D01*
X187871746Y-105067291D01*
X187881148Y-105121975D01*
X187898649Y-105222319D01*
X187883460Y-105269169D01*
X187861883Y-105327117D01*
X187835981Y-105382139D01*
X187806773Y-105432518D01*
X187775276Y-105476533D01*
X187742508Y-105512467D01*
X187735588Y-105518802D01*
X187712007Y-105536581D01*
X187682712Y-105554183D01*
X187651232Y-105569810D01*
X187621096Y-105581666D01*
X187601860Y-105586929D01*
X187575014Y-105590882D01*
X187541676Y-105593619D01*
X187505454Y-105595015D01*
X187469956Y-105594941D01*
X187438791Y-105593271D01*
X187434220Y-105592823D01*
X187386913Y-105584311D01*
X187339466Y-105569459D01*
X187296415Y-105549734D01*
X187290278Y-105546248D01*
X187264911Y-105528520D01*
X187236921Y-105504220D01*
X187208558Y-105475689D01*
X187182070Y-105445271D01*
X187159708Y-105415309D01*
X187150388Y-105400567D01*
X187118485Y-105338924D01*
X187091047Y-105270429D01*
X187067805Y-105194277D01*
X187048487Y-105109662D01*
X187043386Y-105082340D01*
X187039627Y-105059218D01*
X187035036Y-105027750D01*
X187029841Y-104989691D01*
X187024272Y-104946798D01*
X187018557Y-104900828D01*
X187012925Y-104853539D01*
X187008388Y-104813736D01*
X186986945Y-104621333D01*
X186918045Y-104597526D01*
X186844218Y-104569461D01*
X186779925Y-104539449D01*
X186724664Y-104507118D01*
X186677934Y-104472097D01*
X186639231Y-104434014D01*
X186608053Y-104392498D01*
X186586111Y-104352110D01*
X186572327Y-104318140D01*
X186563588Y-104285941D01*
X186559067Y-104251505D01*
X186557920Y-104215735D01*
X186560454Y-104168828D01*
X186568379Y-104120491D01*
X186582180Y-104068146D01*
X186590409Y-104042677D01*
X186612021Y-103988072D01*
X186637812Y-103940757D01*
X186669297Y-103898218D01*
X186692882Y-103872594D01*
X186714334Y-103851815D01*
X186732832Y-103836401D01*
X186751844Y-103823841D01*
X186774836Y-103811627D01*
X186781782Y-103808252D01*
X186826399Y-103789475D01*
X186871018Y-103776539D01*
X186919619Y-103768400D01*
X186941759Y-103766195D01*
X186982652Y-103762784D01*
X186994544Y-103716442D01*
X187011938Y-103650866D01*
X187014516Y-103641666D01*
X187712280Y-103641666D01*
X187712667Y-103725980D01*
X187714771Y-103787899D01*
X187718115Y-103843889D01*
X187722604Y-103892888D01*
X187728141Y-103933833D01*
X187734270Y-103964249D01*
X187737207Y-103971202D01*
X187743358Y-103976161D01*
X187755022Y-103980313D01*
X187773801Y-103984699D01*
X187794232Y-103988910D01*
X187812786Y-103992498D01*
X187825380Y-103994676D01*
X187844030Y-103995904D01*
X187869370Y-103995562D01*
X187898088Y-103993883D01*
X187926875Y-103991098D01*
X187952420Y-103987440D01*
X187964908Y-103984899D01*
X188017564Y-103967588D01*
X188070841Y-103941098D01*
X188123748Y-103906279D01*
X188175296Y-103863983D01*
X188224492Y-103815062D01*
X188270347Y-103760368D01*
X188311868Y-103700752D01*
X188329392Y-103671646D01*
X188353035Y-103626161D01*
X188369542Y-103583643D01*
X188379867Y-103540914D01*
X188384964Y-103494791D01*
X188385447Y-103484680D01*
X188383974Y-103426049D01*
X188374544Y-103373220D01*
X188356826Y-103325281D01*
X188330490Y-103281319D01*
X188297820Y-103243049D01*
X188264172Y-103213081D01*
X188228805Y-103190360D01*
X188190198Y-103174374D01*
X188146828Y-103164610D01*
X188097176Y-103160553D01*
X188054654Y-103160957D01*
X188012576Y-103163586D01*
X187977580Y-103168177D01*
X187946671Y-103175406D01*
X187916852Y-103185951D01*
X187889666Y-103198252D01*
X187852094Y-103220535D01*
X187819317Y-103248583D01*
X187791193Y-103282818D01*
X187767582Y-103323658D01*
X187748342Y-103371526D01*
X187733333Y-103426840D01*
X187722414Y-103490021D01*
X187715443Y-103561490D01*
X187712280Y-103641666D01*
X187014516Y-103641666D01*
X187031255Y-103581943D01*
X187051905Y-103511558D01*
X187073301Y-103441592D01*
X187094855Y-103373930D01*
X187115978Y-103310454D01*
X187136083Y-103253049D01*
X187154580Y-103203597D01*
X187155301Y-103201752D01*
X187169596Y-103166761D01*
X187186204Y-103128562D01*
X187204054Y-103089423D01*
X187222076Y-103051609D01*
X187239198Y-103017390D01*
X187254349Y-102989033D01*
X187261959Y-102975923D01*
X187290784Y-102932737D01*
X187320641Y-102895992D01*
X187350698Y-102866473D01*
X187380121Y-102844967D01*
X187408077Y-102832258D01*
X187416440Y-102830204D01*
X187430830Y-102825691D01*
X187448248Y-102816652D01*
X187470277Y-102802174D01*
X187490100Y-102787707D01*
X187567462Y-102734449D01*
X187645479Y-102690658D01*
X187725647Y-102655677D01*
X187809463Y-102628848D01*
X187893960Y-102610288D01*
X187929804Y-102605297D01*
X187973483Y-102601337D01*
X188022715Y-102598472D01*
X188075221Y-102596769D01*
X188128721Y-102596292D01*
X188180934Y-102597106D01*
G36*
X185699314Y-102598031D02*
G01*
X185746566Y-102598898D01*
X185790835Y-102600460D01*
X185830246Y-102602715D01*
X185862924Y-102605664D01*
X185877200Y-102607558D01*
X185971905Y-102626226D01*
X186059790Y-102652013D01*
X186141595Y-102685254D01*
X186218060Y-102726280D01*
X186289926Y-102775427D01*
X186338276Y-102815178D01*
X186400308Y-102875713D01*
X186453405Y-102940044D01*
X186497606Y-103008343D01*
X186532949Y-103080783D01*
X186559475Y-103157536D01*
X186577223Y-103238774D01*
X186586232Y-103324670D01*
X186586542Y-103415395D01*
X186578191Y-103511122D01*
X186561219Y-103612023D01*
X186540434Y-103700505D01*
X186527685Y-103746903D01*
X186515571Y-103786021D01*
X186503082Y-103820602D01*
X186489204Y-103853392D01*
X186472927Y-103887136D01*
X186468303Y-103896160D01*
X186425433Y-103968122D01*
X186373148Y-104036664D01*
X186311662Y-104101611D01*
X186241189Y-104162785D01*
X186161942Y-104220013D01*
X186074135Y-104273116D01*
X185977982Y-104321921D01*
X185920013Y-104347542D01*
X185816843Y-104387598D01*
X185705548Y-104424639D01*
X185587844Y-104458163D01*
X185465451Y-104487671D01*
X185375550Y-104506118D01*
X185357082Y-104510370D01*
X185347068Y-104514790D01*
X185343818Y-104520151D01*
X185343800Y-104520682D01*
X185344663Y-104535954D01*
X185347179Y-104560493D01*
X185351238Y-104593557D01*
X185356732Y-104634406D01*
X185363550Y-104682300D01*
X185371583Y-104736499D01*
X185380721Y-104796262D01*
X185390854Y-104860849D01*
X185401873Y-104929521D01*
X185413669Y-105001536D01*
X185425351Y-105071525D01*
X185450907Y-105223270D01*
X185434676Y-105272185D01*
X185407403Y-105343595D01*
X185375891Y-105406387D01*
X185340280Y-105460401D01*
X185300710Y-105505476D01*
X185257321Y-105541450D01*
X185210251Y-105568165D01*
X185163460Y-105584516D01*
X185137298Y-105589400D01*
X185104398Y-105592936D01*
X185068109Y-105594965D01*
X185031782Y-105595327D01*
X184998768Y-105593864D01*
X184988200Y-105592843D01*
X184928825Y-105581522D01*
X184874081Y-105561668D01*
X184823915Y-105533204D01*
X184778278Y-105496054D01*
X184737117Y-105450144D01*
X184700380Y-105395397D01*
X184668018Y-105331738D01*
X184639978Y-105259089D01*
X184616210Y-105177377D01*
X184596661Y-105086525D01*
X184582106Y-104992874D01*
X184578733Y-104966111D01*
X184574556Y-104931601D01*
X184569850Y-104891702D01*
X184564891Y-104848770D01*
X184559955Y-104805160D01*
X184556048Y-104769920D01*
X184551862Y-104732645D01*
X184547859Y-104698698D01*
X184544209Y-104669381D01*
X184541079Y-104645997D01*
X184538640Y-104629846D01*
X184537059Y-104622233D01*
X184536857Y-104621845D01*
X184531028Y-104619088D01*
X184517463Y-104613902D01*
X184498089Y-104606992D01*
X184474835Y-104599063D01*
X184471024Y-104597794D01*
X184398712Y-104570951D01*
X184335351Y-104541255D01*
X184279995Y-104508159D01*
X184231700Y-104471116D01*
X184199786Y-104440667D01*
X184163306Y-104395764D01*
X184136208Y-104347207D01*
X184118483Y-104294929D01*
X184110121Y-104238866D01*
X184111110Y-104178954D01*
X184121441Y-104115126D01*
X184139140Y-104053032D01*
X184165329Y-103987866D01*
X184196864Y-103931305D01*
X184233909Y-103883217D01*
X184276628Y-103843468D01*
X184325185Y-103811926D01*
X184379743Y-103788457D01*
X184440466Y-103772928D01*
X184491949Y-103766263D01*
X184534833Y-103762783D01*
X184551065Y-103701201D01*
X184559752Y-103669401D01*
X185263563Y-103669401D01*
X185263694Y-103734542D01*
X185266268Y-103798616D01*
X185271375Y-103860042D01*
X185277360Y-103906320D01*
X185281189Y-103931351D01*
X185284398Y-103952428D01*
X185286705Y-103967699D01*
X185287831Y-103975313D01*
X185287896Y-103975823D01*
X185292454Y-103977275D01*
X185304328Y-103980100D01*
X185320859Y-103983736D01*
X185339388Y-103987618D01*
X185357257Y-103991183D01*
X185371808Y-103993868D01*
X185376820Y-103994676D01*
X185396052Y-103995971D01*
X185421881Y-103995659D01*
X185450909Y-103993980D01*
X185479742Y-103991173D01*
X185504983Y-103987478D01*
X185517793Y-103984730D01*
X185573317Y-103965548D01*
X185628858Y-103937241D01*
X185683346Y-103900785D01*
X185735715Y-103857156D01*
X185784896Y-103807331D01*
X185829820Y-103752286D01*
X185869419Y-103692998D01*
X185900522Y-103634927D01*
X185919773Y-103589178D01*
X185932170Y-103546508D01*
X185938555Y-103503368D01*
X185939907Y-103469440D01*
X185935345Y-103410997D01*
X185921460Y-103356435D01*
X185898348Y-103306003D01*
X185866106Y-103259950D01*
X185853193Y-103245452D01*
X185817416Y-103213194D01*
X185777991Y-103188897D01*
X185733823Y-103172139D01*
X185683822Y-103162502D01*
X185629538Y-103159560D01*
X185563603Y-103163340D01*
X185504287Y-103174650D01*
X185451677Y-103193439D01*
X185405859Y-103219656D01*
X185366919Y-103253253D01*
X185334943Y-103294180D01*
X185310018Y-103342387D01*
X185309096Y-103344644D01*
X185296440Y-103383000D01*
X185285692Y-103429771D01*
X185276941Y-103483378D01*
X185270276Y-103542238D01*
X185265787Y-103604773D01*
X185263563Y-103669401D01*
X184559752Y-103669401D01*
X184584524Y-103578732D01*
X184618023Y-103465007D01*
X184651498Y-103360178D01*
X184684888Y-103264397D01*
X184718130Y-103177816D01*
X184751162Y-103100586D01*
X184783923Y-103032861D01*
X184816349Y-102974791D01*
X184848378Y-102926528D01*
X184879949Y-102888225D01*
X184887102Y-102880877D01*
X184909607Y-102861122D01*
X184932954Y-102845058D01*
X184954837Y-102834039D01*
X184972949Y-102829420D01*
X184974811Y-102829360D01*
X184985062Y-102826149D01*
X185000570Y-102817381D01*
X185019094Y-102804352D01*
X185021970Y-102802129D01*
X185103593Y-102744194D01*
X185188209Y-102695876D01*
X185276365Y-102656930D01*
X185368608Y-102627114D01*
X185458100Y-102607439D01*
X185483895Y-102604129D01*
X185517952Y-102601516D01*
X185558397Y-102599601D01*
X185603355Y-102598382D01*
X185650952Y-102597859D01*
X185699314Y-102598031D01*
X185699314Y-102598031D01*
G37*
X185699314Y-102598031D02*
X185746566Y-102598898D01*
X185790835Y-102600460D01*
X185830246Y-102602715D01*
X185862924Y-102605664D01*
X185877200Y-102607558D01*
X185971905Y-102626226D01*
X186059790Y-102652013D01*
X186141595Y-102685254D01*
X186218060Y-102726280D01*
X186289926Y-102775427D01*
X186338276Y-102815178D01*
X186400308Y-102875713D01*
X186453405Y-102940044D01*
X186497606Y-103008343D01*
X186532949Y-103080783D01*
X186559475Y-103157536D01*
X186577223Y-103238774D01*
X186586232Y-103324670D01*
X186586542Y-103415395D01*
X186578191Y-103511122D01*
X186561219Y-103612023D01*
X186540434Y-103700505D01*
X186527685Y-103746903D01*
X186515571Y-103786021D01*
X186503082Y-103820602D01*
X186489204Y-103853392D01*
X186472927Y-103887136D01*
X186468303Y-103896160D01*
X186425433Y-103968122D01*
X186373148Y-104036664D01*
X186311662Y-104101611D01*
X186241189Y-104162785D01*
X186161942Y-104220013D01*
X186074135Y-104273116D01*
X185977982Y-104321921D01*
X185920013Y-104347542D01*
X185816843Y-104387598D01*
X185705548Y-104424639D01*
X185587844Y-104458163D01*
X185465451Y-104487671D01*
X185375550Y-104506118D01*
X185357082Y-104510370D01*
X185347068Y-104514790D01*
X185343818Y-104520151D01*
X185343800Y-104520682D01*
X185344663Y-104535954D01*
X185347179Y-104560493D01*
X185351238Y-104593557D01*
X185356732Y-104634406D01*
X185363550Y-104682300D01*
X185371583Y-104736499D01*
X185380721Y-104796262D01*
X185390854Y-104860849D01*
X185401873Y-104929521D01*
X185413669Y-105001536D01*
X185425351Y-105071525D01*
X185450907Y-105223270D01*
X185434676Y-105272185D01*
X185407403Y-105343595D01*
X185375891Y-105406387D01*
X185340280Y-105460401D01*
X185300710Y-105505476D01*
X185257321Y-105541450D01*
X185210251Y-105568165D01*
X185163460Y-105584516D01*
X185137298Y-105589400D01*
X185104398Y-105592936D01*
X185068109Y-105594965D01*
X185031782Y-105595327D01*
X184998768Y-105593864D01*
X184988200Y-105592843D01*
X184928825Y-105581522D01*
X184874081Y-105561668D01*
X184823915Y-105533204D01*
X184778278Y-105496054D01*
X184737117Y-105450144D01*
X184700380Y-105395397D01*
X184668018Y-105331738D01*
X184639978Y-105259089D01*
X184616210Y-105177377D01*
X184596661Y-105086525D01*
X184582106Y-104992874D01*
X184578733Y-104966111D01*
X184574556Y-104931601D01*
X184569850Y-104891702D01*
X184564891Y-104848770D01*
X184559955Y-104805160D01*
X184556048Y-104769920D01*
X184551862Y-104732645D01*
X184547859Y-104698698D01*
X184544209Y-104669381D01*
X184541079Y-104645997D01*
X184538640Y-104629846D01*
X184537059Y-104622233D01*
X184536857Y-104621845D01*
X184531028Y-104619088D01*
X184517463Y-104613902D01*
X184498089Y-104606992D01*
X184474835Y-104599063D01*
X184471024Y-104597794D01*
X184398712Y-104570951D01*
X184335351Y-104541255D01*
X184279995Y-104508159D01*
X184231700Y-104471116D01*
X184199786Y-104440667D01*
X184163306Y-104395764D01*
X184136208Y-104347207D01*
X184118483Y-104294929D01*
X184110121Y-104238866D01*
X184111110Y-104178954D01*
X184121441Y-104115126D01*
X184139140Y-104053032D01*
X184165329Y-103987866D01*
X184196864Y-103931305D01*
X184233909Y-103883217D01*
X184276628Y-103843468D01*
X184325185Y-103811926D01*
X184379743Y-103788457D01*
X184440466Y-103772928D01*
X184491949Y-103766263D01*
X184534833Y-103762783D01*
X184551065Y-103701201D01*
X184559752Y-103669401D01*
X185263563Y-103669401D01*
X185263694Y-103734542D01*
X185266268Y-103798616D01*
X185271375Y-103860042D01*
X185277360Y-103906320D01*
X185281189Y-103931351D01*
X185284398Y-103952428D01*
X185286705Y-103967699D01*
X185287831Y-103975313D01*
X185287896Y-103975823D01*
X185292454Y-103977275D01*
X185304328Y-103980100D01*
X185320859Y-103983736D01*
X185339388Y-103987618D01*
X185357257Y-103991183D01*
X185371808Y-103993868D01*
X185376820Y-103994676D01*
X185396052Y-103995971D01*
X185421881Y-103995659D01*
X185450909Y-103993980D01*
X185479742Y-103991173D01*
X185504983Y-103987478D01*
X185517793Y-103984730D01*
X185573317Y-103965548D01*
X185628858Y-103937241D01*
X185683346Y-103900785D01*
X185735715Y-103857156D01*
X185784896Y-103807331D01*
X185829820Y-103752286D01*
X185869419Y-103692998D01*
X185900522Y-103634927D01*
X185919773Y-103589178D01*
X185932170Y-103546508D01*
X185938555Y-103503368D01*
X185939907Y-103469440D01*
X185935345Y-103410997D01*
X185921460Y-103356435D01*
X185898348Y-103306003D01*
X185866106Y-103259950D01*
X185853193Y-103245452D01*
X185817416Y-103213194D01*
X185777991Y-103188897D01*
X185733823Y-103172139D01*
X185683822Y-103162502D01*
X185629538Y-103159560D01*
X185563603Y-103163340D01*
X185504287Y-103174650D01*
X185451677Y-103193439D01*
X185405859Y-103219656D01*
X185366919Y-103253253D01*
X185334943Y-103294180D01*
X185310018Y-103342387D01*
X185309096Y-103344644D01*
X185296440Y-103383000D01*
X185285692Y-103429771D01*
X185276941Y-103483378D01*
X185270276Y-103542238D01*
X185265787Y-103604773D01*
X185263563Y-103669401D01*
X184559752Y-103669401D01*
X184584524Y-103578732D01*
X184618023Y-103465007D01*
X184651498Y-103360178D01*
X184684888Y-103264397D01*
X184718130Y-103177816D01*
X184751162Y-103100586D01*
X184783923Y-103032861D01*
X184816349Y-102974791D01*
X184848378Y-102926528D01*
X184879949Y-102888225D01*
X184887102Y-102880877D01*
X184909607Y-102861122D01*
X184932954Y-102845058D01*
X184954837Y-102834039D01*
X184972949Y-102829420D01*
X184974811Y-102829360D01*
X184985062Y-102826149D01*
X185000570Y-102817381D01*
X185019094Y-102804352D01*
X185021970Y-102802129D01*
X185103593Y-102744194D01*
X185188209Y-102695876D01*
X185276365Y-102656930D01*
X185368608Y-102627114D01*
X185458100Y-102607439D01*
X185483895Y-102604129D01*
X185517952Y-102601516D01*
X185558397Y-102599601D01*
X185603355Y-102598382D01*
X185650952Y-102597859D01*
X185699314Y-102598031D01*
G36*
X179205735Y-102598378D02*
G01*
X179300357Y-102606642D01*
X179387953Y-102620749D01*
X179469338Y-102640959D01*
X179545328Y-102667535D01*
X179616738Y-102700736D01*
X179684381Y-102740825D01*
X179749074Y-102788061D01*
X179777167Y-102811483D01*
X179840539Y-102872199D01*
X179894516Y-102936572D01*
X179939311Y-103004960D01*
X179975139Y-103077721D01*
X180002215Y-103155213D01*
X180015610Y-103210179D01*
X180021164Y-103245013D01*
X180025367Y-103287033D01*
X180028114Y-103333340D01*
X180029298Y-103381039D01*
X180028813Y-103427229D01*
X180026552Y-103469015D01*
X180025526Y-103480117D01*
X180017985Y-103537988D01*
X180007178Y-103599279D01*
X179993717Y-103661494D01*
X179978211Y-103722135D01*
X179961271Y-103778704D01*
X179943507Y-103828705D01*
X179935623Y-103847900D01*
X179897323Y-103923746D01*
X179849665Y-103995716D01*
X179792693Y-104063781D01*
X179726452Y-104127916D01*
X179650986Y-104188092D01*
X179566339Y-104244284D01*
X179472555Y-104296463D01*
X179369680Y-104344604D01*
X179257756Y-104388680D01*
X179136828Y-104428662D01*
X179006941Y-104464526D01*
X178870533Y-104495746D01*
X178844613Y-104501078D01*
X178822267Y-104505581D01*
X178805368Y-104508887D01*
X178795784Y-104510625D01*
X178794410Y-104510798D01*
X178791714Y-104514347D01*
X178790568Y-104525103D01*
X178791006Y-104543345D01*
X178793064Y-104569352D01*
X178796777Y-104603401D01*
X178802181Y-104645772D01*
X178809311Y-104696744D01*
X178818203Y-104756593D01*
X178828891Y-104825600D01*
X178841412Y-104904041D01*
X178855150Y-104988242D01*
X178894009Y-105224344D01*
X178875246Y-105279494D01*
X178847854Y-105350382D01*
X178816968Y-105411838D01*
X178782285Y-105464079D01*
X178743498Y-105507319D01*
X178700304Y-105541774D01*
X178652397Y-105567658D01*
X178599474Y-105585189D01*
X178541229Y-105594579D01*
X178477358Y-105596046D01*
X178431971Y-105592778D01*
X178372137Y-105581677D01*
X178316819Y-105561482D01*
X178266028Y-105532205D01*
X178219776Y-105493858D01*
X178178074Y-105446454D01*
X178140932Y-105390004D01*
X178108362Y-105324522D01*
X178080375Y-105250018D01*
X178061666Y-105185385D01*
X178055420Y-105160593D01*
X178049935Y-105137526D01*
X178045023Y-105114973D01*
X178040497Y-105091721D01*
X178036170Y-105066557D01*
X178031853Y-105038269D01*
X178027358Y-105005644D01*
X178022500Y-104967471D01*
X178017088Y-104922537D01*
X178010937Y-104869628D01*
X178005677Y-104823556D01*
X178000632Y-104779369D01*
X177995912Y-104738462D01*
X177991645Y-104701906D01*
X177987957Y-104670771D01*
X177984978Y-104646129D01*
X177982832Y-104629052D01*
X177981649Y-104620610D01*
X177981482Y-104619891D01*
X177976492Y-104618143D01*
X177963736Y-104613939D01*
X177945126Y-104607903D01*
X177922579Y-104600661D01*
X177921920Y-104600450D01*
X177891860Y-104589961D01*
X177857818Y-104576713D01*
X177824787Y-104562704D01*
X177806204Y-104554128D01*
X177741561Y-104519096D01*
X177686562Y-104480954D01*
X177641134Y-104439566D01*
X177605206Y-104394794D01*
X177578705Y-104346502D01*
X177561560Y-104294552D01*
X177553698Y-104238806D01*
X177555047Y-104179128D01*
X177565535Y-104115380D01*
X177568782Y-104101900D01*
X177590430Y-104031467D01*
X177617629Y-103969511D01*
X177650485Y-103915934D01*
X177689103Y-103870635D01*
X177733585Y-103833515D01*
X177784038Y-103804476D01*
X177840566Y-103783419D01*
X177903273Y-103770244D01*
X177920749Y-103768081D01*
X177943051Y-103765614D01*
X177961244Y-103763455D01*
X177973190Y-103761867D01*
X177976814Y-103761182D01*
X177978544Y-103756195D01*
X177982525Y-103742813D01*
X177988356Y-103722453D01*
X177995633Y-103696526D01*
X178001506Y-103675291D01*
X178705457Y-103675291D01*
X178706756Y-103753216D01*
X178711935Y-103832017D01*
X178720807Y-103907521D01*
X178722419Y-103918141D01*
X178726310Y-103942727D01*
X178730107Y-103959710D01*
X178735621Y-103970882D01*
X178744660Y-103978034D01*
X178759034Y-103982958D01*
X178780554Y-103987445D01*
X178795219Y-103990210D01*
X178827965Y-103994223D01*
X178865964Y-103995433D01*
X178904725Y-103993915D01*
X178939758Y-103989743D01*
X178950421Y-103987644D01*
X179007543Y-103969899D01*
X179064388Y-103942626D01*
X179120187Y-103906449D01*
X179174173Y-103861986D01*
X179225576Y-103809861D01*
X179273628Y-103750694D01*
X179310399Y-103696706D01*
X179343797Y-103636220D01*
X179367182Y-103576991D01*
X179380594Y-103518787D01*
X179384070Y-103461382D01*
X179377650Y-103404544D01*
X179366523Y-103362632D01*
X179344606Y-103311083D01*
X179315357Y-103266111D01*
X179279326Y-103228232D01*
X179237064Y-103197964D01*
X179189121Y-103175823D01*
X179157630Y-103166600D01*
X179130890Y-103162455D01*
X179097328Y-103160421D01*
X179060037Y-103160393D01*
X179022109Y-103162264D01*
X178986637Y-103165928D01*
X178956714Y-103171280D01*
X178947150Y-103173821D01*
X178893419Y-103194710D01*
X178846798Y-103222815D01*
X178807396Y-103258032D01*
X178775323Y-103300254D01*
X178750688Y-103349377D01*
X178743121Y-103370380D01*
X178736099Y-103396510D01*
X178729126Y-103430807D01*
X178722503Y-103471281D01*
X178716527Y-103515942D01*
X178711500Y-103562801D01*
X178708227Y-103602416D01*
X178705457Y-103675291D01*
X178001506Y-103675291D01*
X178003953Y-103666447D01*
X178008019Y-103651612D01*
X178041455Y-103533089D01*
X178074299Y-103424477D01*
X178106638Y-103325552D01*
X178138556Y-103236086D01*
X178170140Y-103155854D01*
X178201477Y-103084631D01*
X178232652Y-103022190D01*
X178263750Y-102968306D01*
X178274879Y-102951057D01*
X178305162Y-102909416D01*
X178334762Y-102876959D01*
X178364693Y-102852853D01*
X178395971Y-102836266D01*
X178426016Y-102827098D01*
X178438714Y-102821827D01*
X178453047Y-102812408D01*
X178456548Y-102809509D01*
X178474528Y-102795148D01*
X178499176Y-102777430D01*
X178528217Y-102757825D01*
X178559379Y-102737803D01*
X178590386Y-102718832D01*
X178618967Y-102702381D01*
X178637840Y-102692380D01*
X178704440Y-102662180D01*
X178772401Y-102638036D01*
X178843228Y-102619635D01*
X178918428Y-102606664D01*
X178999507Y-102598810D01*
X179087971Y-102595760D01*
X179103274Y-102595697D01*
X179205735Y-102598378D01*
X179205735Y-102598378D01*
G37*
X179205735Y-102598378D02*
X179300357Y-102606642D01*
X179387953Y-102620749D01*
X179469338Y-102640959D01*
X179545328Y-102667535D01*
X179616738Y-102700736D01*
X179684381Y-102740825D01*
X179749074Y-102788061D01*
X179777167Y-102811483D01*
X179840539Y-102872199D01*
X179894516Y-102936572D01*
X179939311Y-103004960D01*
X179975139Y-103077721D01*
X180002215Y-103155213D01*
X180015610Y-103210179D01*
X180021164Y-103245013D01*
X180025367Y-103287033D01*
X180028114Y-103333340D01*
X180029298Y-103381039D01*
X180028813Y-103427229D01*
X180026552Y-103469015D01*
X180025526Y-103480117D01*
X180017985Y-103537988D01*
X180007178Y-103599279D01*
X179993717Y-103661494D01*
X179978211Y-103722135D01*
X179961271Y-103778704D01*
X179943507Y-103828705D01*
X179935623Y-103847900D01*
X179897323Y-103923746D01*
X179849665Y-103995716D01*
X179792693Y-104063781D01*
X179726452Y-104127916D01*
X179650986Y-104188092D01*
X179566339Y-104244284D01*
X179472555Y-104296463D01*
X179369680Y-104344604D01*
X179257756Y-104388680D01*
X179136828Y-104428662D01*
X179006941Y-104464526D01*
X178870533Y-104495746D01*
X178844613Y-104501078D01*
X178822267Y-104505581D01*
X178805368Y-104508887D01*
X178795784Y-104510625D01*
X178794410Y-104510798D01*
X178791714Y-104514347D01*
X178790568Y-104525103D01*
X178791006Y-104543345D01*
X178793064Y-104569352D01*
X178796777Y-104603401D01*
X178802181Y-104645772D01*
X178809311Y-104696744D01*
X178818203Y-104756593D01*
X178828891Y-104825600D01*
X178841412Y-104904041D01*
X178855150Y-104988242D01*
X178894009Y-105224344D01*
X178875246Y-105279494D01*
X178847854Y-105350382D01*
X178816968Y-105411838D01*
X178782285Y-105464079D01*
X178743498Y-105507319D01*
X178700304Y-105541774D01*
X178652397Y-105567658D01*
X178599474Y-105585189D01*
X178541229Y-105594579D01*
X178477358Y-105596046D01*
X178431971Y-105592778D01*
X178372137Y-105581677D01*
X178316819Y-105561482D01*
X178266028Y-105532205D01*
X178219776Y-105493858D01*
X178178074Y-105446454D01*
X178140932Y-105390004D01*
X178108362Y-105324522D01*
X178080375Y-105250018D01*
X178061666Y-105185385D01*
X178055420Y-105160593D01*
X178049935Y-105137526D01*
X178045023Y-105114973D01*
X178040497Y-105091721D01*
X178036170Y-105066557D01*
X178031853Y-105038269D01*
X178027358Y-105005644D01*
X178022500Y-104967471D01*
X178017088Y-104922537D01*
X178010937Y-104869628D01*
X178005677Y-104823556D01*
X178000632Y-104779369D01*
X177995912Y-104738462D01*
X177991645Y-104701906D01*
X177987957Y-104670771D01*
X177984978Y-104646129D01*
X177982832Y-104629052D01*
X177981649Y-104620610D01*
X177981482Y-104619891D01*
X177976492Y-104618143D01*
X177963736Y-104613939D01*
X177945126Y-104607903D01*
X177922579Y-104600661D01*
X177921920Y-104600450D01*
X177891860Y-104589961D01*
X177857818Y-104576713D01*
X177824787Y-104562704D01*
X177806204Y-104554128D01*
X177741561Y-104519096D01*
X177686562Y-104480954D01*
X177641134Y-104439566D01*
X177605206Y-104394794D01*
X177578705Y-104346502D01*
X177561560Y-104294552D01*
X177553698Y-104238806D01*
X177555047Y-104179128D01*
X177565535Y-104115380D01*
X177568782Y-104101900D01*
X177590430Y-104031467D01*
X177617629Y-103969511D01*
X177650485Y-103915934D01*
X177689103Y-103870635D01*
X177733585Y-103833515D01*
X177784038Y-103804476D01*
X177840566Y-103783419D01*
X177903273Y-103770244D01*
X177920749Y-103768081D01*
X177943051Y-103765614D01*
X177961244Y-103763455D01*
X177973190Y-103761867D01*
X177976814Y-103761182D01*
X177978544Y-103756195D01*
X177982525Y-103742813D01*
X177988356Y-103722453D01*
X177995633Y-103696526D01*
X178001506Y-103675291D01*
X178705457Y-103675291D01*
X178706756Y-103753216D01*
X178711935Y-103832017D01*
X178720807Y-103907521D01*
X178722419Y-103918141D01*
X178726310Y-103942727D01*
X178730107Y-103959710D01*
X178735621Y-103970882D01*
X178744660Y-103978034D01*
X178759034Y-103982958D01*
X178780554Y-103987445D01*
X178795219Y-103990210D01*
X178827965Y-103994223D01*
X178865964Y-103995433D01*
X178904725Y-103993915D01*
X178939758Y-103989743D01*
X178950421Y-103987644D01*
X179007543Y-103969899D01*
X179064388Y-103942626D01*
X179120187Y-103906449D01*
X179174173Y-103861986D01*
X179225576Y-103809861D01*
X179273628Y-103750694D01*
X179310399Y-103696706D01*
X179343797Y-103636220D01*
X179367182Y-103576991D01*
X179380594Y-103518787D01*
X179384070Y-103461382D01*
X179377650Y-103404544D01*
X179366523Y-103362632D01*
X179344606Y-103311083D01*
X179315357Y-103266111D01*
X179279326Y-103228232D01*
X179237064Y-103197964D01*
X179189121Y-103175823D01*
X179157630Y-103166600D01*
X179130890Y-103162455D01*
X179097328Y-103160421D01*
X179060037Y-103160393D01*
X179022109Y-103162264D01*
X178986637Y-103165928D01*
X178956714Y-103171280D01*
X178947150Y-103173821D01*
X178893419Y-103194710D01*
X178846798Y-103222815D01*
X178807396Y-103258032D01*
X178775323Y-103300254D01*
X178750688Y-103349377D01*
X178743121Y-103370380D01*
X178736099Y-103396510D01*
X178729126Y-103430807D01*
X178722503Y-103471281D01*
X178716527Y-103515942D01*
X178711500Y-103562801D01*
X178708227Y-103602416D01*
X178705457Y-103675291D01*
X178001506Y-103675291D01*
X178003953Y-103666447D01*
X178008019Y-103651612D01*
X178041455Y-103533089D01*
X178074299Y-103424477D01*
X178106638Y-103325552D01*
X178138556Y-103236086D01*
X178170140Y-103155854D01*
X178201477Y-103084631D01*
X178232652Y-103022190D01*
X178263750Y-102968306D01*
X178274879Y-102951057D01*
X178305162Y-102909416D01*
X178334762Y-102876959D01*
X178364693Y-102852853D01*
X178395971Y-102836266D01*
X178426016Y-102827098D01*
X178438714Y-102821827D01*
X178453047Y-102812408D01*
X178456548Y-102809509D01*
X178474528Y-102795148D01*
X178499176Y-102777430D01*
X178528217Y-102757825D01*
X178559379Y-102737803D01*
X178590386Y-102718832D01*
X178618967Y-102702381D01*
X178637840Y-102692380D01*
X178704440Y-102662180D01*
X178772401Y-102638036D01*
X178843228Y-102619635D01*
X178918428Y-102606664D01*
X178999507Y-102598810D01*
X179087971Y-102595760D01*
X179103274Y-102595697D01*
X179205735Y-102598378D01*
G36*
X176720580Y-102596803D02*
G01*
X176773750Y-102598981D01*
X176804574Y-102601026D01*
X176904135Y-102613323D01*
X176998275Y-102634211D01*
X177087002Y-102663695D01*
X177170326Y-102701778D01*
X177248254Y-102748463D01*
X177320795Y-102803756D01*
X177384679Y-102864208D01*
X177434257Y-102920450D01*
X177475038Y-102976623D01*
X177508194Y-103034617D01*
X177534896Y-103096321D01*
X177543074Y-103119564D01*
X177553868Y-103153032D01*
X177562287Y-103182221D01*
X177568617Y-103209214D01*
X177573143Y-103236093D01*
X177576152Y-103264939D01*
X177577931Y-103297835D01*
X177578765Y-103336862D01*
X177578944Y-103380540D01*
X177578836Y-103420344D01*
X177578466Y-103452087D01*
X177577678Y-103477869D01*
X177576320Y-103499788D01*
X177574237Y-103519942D01*
X177571275Y-103540430D01*
X177567282Y-103563352D01*
X177564418Y-103578660D01*
X177544844Y-103669434D01*
X177522126Y-103751336D01*
X177495934Y-103825256D01*
X177465938Y-103892086D01*
X177431810Y-103952715D01*
X177418224Y-103973525D01*
X177398429Y-104000011D01*
X177372516Y-104030714D01*
X177342419Y-104063648D01*
X177310070Y-104096832D01*
X177277403Y-104128281D01*
X177246349Y-104156013D01*
X177219227Y-104177758D01*
X177138712Y-104232276D01*
X177049043Y-104283525D01*
X176950754Y-104331292D01*
X176844382Y-104375368D01*
X176730459Y-104415542D01*
X176609520Y-104451603D01*
X176482100Y-104483341D01*
X176398505Y-104501068D01*
X176340671Y-104512537D01*
X176343970Y-104556138D01*
X176346715Y-104584734D01*
X176351363Y-104623170D01*
X176357893Y-104671306D01*
X176366284Y-104729007D01*
X176376517Y-104796135D01*
X176388571Y-104872551D01*
X176402426Y-104958119D01*
X176410616Y-105007878D01*
X176417888Y-105052197D01*
X176424606Y-105093824D01*
X176430590Y-105131591D01*
X176435659Y-105164331D01*
X176439633Y-105190876D01*
X176442332Y-105210058D01*
X176443576Y-105220710D01*
X176443640Y-105221989D01*
X176441482Y-105236734D01*
X176435489Y-105258577D01*
X176426376Y-105285534D01*
X176414861Y-105315622D01*
X176401661Y-105346855D01*
X176387626Y-105376980D01*
X176354525Y-105435298D01*
X176316915Y-105484734D01*
X176274911Y-105525184D01*
X176228627Y-105556544D01*
X176178178Y-105578711D01*
X176158339Y-105584598D01*
X176135336Y-105588954D01*
X176105376Y-105592296D01*
X176071623Y-105594473D01*
X176037245Y-105595331D01*
X176005405Y-105594715D01*
X175983900Y-105593060D01*
X175925918Y-105582302D01*
X175873669Y-105563689D01*
X175825701Y-105536554D01*
X175780563Y-105500228D01*
X175778815Y-105498592D01*
X175739566Y-105456776D01*
X175704946Y-105409221D01*
X175674479Y-105355019D01*
X175647687Y-105293260D01*
X175624094Y-105223036D01*
X175612739Y-105182138D01*
X175606212Y-105155731D01*
X175600181Y-105128246D01*
X175594464Y-105098490D01*
X175588879Y-105065271D01*
X175583245Y-105027396D01*
X175577380Y-104983673D01*
X175571101Y-104932908D01*
X175564228Y-104873909D01*
X175559877Y-104835265D01*
X175555079Y-104792410D01*
X175550540Y-104752228D01*
X175546403Y-104715966D01*
X175542813Y-104684869D01*
X175539914Y-104660181D01*
X175537848Y-104643149D01*
X175536782Y-104635147D01*
X175535336Y-104628874D01*
X175532294Y-104623858D01*
X175526099Y-104619257D01*
X175515193Y-104614231D01*
X175498017Y-104607938D01*
X175473013Y-104599536D01*
X175467413Y-104597686D01*
X175408487Y-104575944D01*
X175352370Y-104550788D01*
X175300593Y-104523096D01*
X175254687Y-104493744D01*
X175216185Y-104463609D01*
X175192267Y-104440113D01*
X175166533Y-104407664D01*
X175143737Y-104371724D01*
X175126307Y-104336245D01*
X175122583Y-104326551D01*
X175117386Y-104309575D01*
X175113713Y-104291049D01*
X175111218Y-104268414D01*
X175109557Y-104239111D01*
X175109095Y-104226360D01*
X175108335Y-104197265D01*
X175108471Y-104174985D01*
X175109846Y-104156188D01*
X175112802Y-104137545D01*
X175117681Y-104115726D01*
X175122414Y-104096820D01*
X175144079Y-104028048D01*
X175171995Y-103966816D01*
X175206008Y-103913321D01*
X175245959Y-103867760D01*
X175291695Y-103830330D01*
X175343060Y-103801230D01*
X175361600Y-103793339D01*
X175381913Y-103785697D01*
X175399742Y-103780040D01*
X175417954Y-103775734D01*
X175439412Y-103772147D01*
X175466983Y-103768647D01*
X175480421Y-103767124D01*
X175530663Y-103761540D01*
X175550163Y-103689962D01*
X176258529Y-103689962D01*
X176261895Y-103791336D01*
X176271636Y-103892988D01*
X176274346Y-103913129D01*
X176278096Y-103939626D01*
X176281698Y-103957978D01*
X176286886Y-103970028D01*
X176295395Y-103977614D01*
X176308959Y-103982577D01*
X176329312Y-103986758D01*
X176346659Y-103989866D01*
X176386746Y-103995551D01*
X176423166Y-103996844D01*
X176461357Y-103993860D01*
X176471580Y-103992493D01*
X176531148Y-103979097D01*
X176590407Y-103956203D01*
X176648031Y-103924425D01*
X176698727Y-103887650D01*
X176742402Y-103848109D01*
X176784378Y-103802862D01*
X176823448Y-103753678D01*
X176858407Y-103702325D01*
X176888049Y-103650573D01*
X176911168Y-103600190D01*
X176926367Y-103553717D01*
X176935687Y-103497964D01*
X176936026Y-103443364D01*
X176927913Y-103390861D01*
X176911873Y-103341397D01*
X176888436Y-103295916D01*
X176858128Y-103255359D01*
X176821475Y-103220671D01*
X176779007Y-103192793D01*
X176731248Y-103172668D01*
X176710011Y-103166819D01*
X176677917Y-103161805D01*
X176639452Y-103159722D01*
X176597929Y-103160423D01*
X176556660Y-103163761D01*
X176518956Y-103169589D01*
X176491900Y-103176483D01*
X176438971Y-103198350D01*
X176393437Y-103227180D01*
X176355291Y-103262984D01*
X176324522Y-103305771D01*
X176301123Y-103355552D01*
X176286223Y-103406954D01*
X176270739Y-103495828D01*
X176261492Y-103590812D01*
X176258529Y-103689962D01*
X175550163Y-103689962D01*
X175559726Y-103654860D01*
X175591431Y-103541884D01*
X175622422Y-103438449D01*
X175652899Y-103343979D01*
X175683061Y-103257895D01*
X175713111Y-103179621D01*
X175743248Y-103108578D01*
X175768116Y-103055420D01*
X175799795Y-102995081D01*
X175831044Y-102944499D01*
X175862205Y-102903296D01*
X175893620Y-102871098D01*
X175925633Y-102847531D01*
X175958585Y-102832218D01*
X175976280Y-102827377D01*
X175985666Y-102823202D01*
X176000533Y-102814171D01*
X176018464Y-102801819D01*
X176029467Y-102793621D01*
X176111002Y-102736972D01*
X176195365Y-102690051D01*
X176282805Y-102652760D01*
X176373574Y-102624998D01*
X176467921Y-102606668D01*
X176514760Y-102601170D01*
X176558926Y-102598119D01*
X176610038Y-102596373D01*
X176664966Y-102595934D01*
X176720580Y-102596803D01*
X176720580Y-102596803D01*
G37*
X176720580Y-102596803D02*
X176773750Y-102598981D01*
X176804574Y-102601026D01*
X176904135Y-102613323D01*
X176998275Y-102634211D01*
X177087002Y-102663695D01*
X177170326Y-102701778D01*
X177248254Y-102748463D01*
X177320795Y-102803756D01*
X177384679Y-102864208D01*
X177434257Y-102920450D01*
X177475038Y-102976623D01*
X177508194Y-103034617D01*
X177534896Y-103096321D01*
X177543074Y-103119564D01*
X177553868Y-103153032D01*
X177562287Y-103182221D01*
X177568617Y-103209214D01*
X177573143Y-103236093D01*
X177576152Y-103264939D01*
X177577931Y-103297835D01*
X177578765Y-103336862D01*
X177578944Y-103380540D01*
X177578836Y-103420344D01*
X177578466Y-103452087D01*
X177577678Y-103477869D01*
X177576320Y-103499788D01*
X177574237Y-103519942D01*
X177571275Y-103540430D01*
X177567282Y-103563352D01*
X177564418Y-103578660D01*
X177544844Y-103669434D01*
X177522126Y-103751336D01*
X177495934Y-103825256D01*
X177465938Y-103892086D01*
X177431810Y-103952715D01*
X177418224Y-103973525D01*
X177398429Y-104000011D01*
X177372516Y-104030714D01*
X177342419Y-104063648D01*
X177310070Y-104096832D01*
X177277403Y-104128281D01*
X177246349Y-104156013D01*
X177219227Y-104177758D01*
X177138712Y-104232276D01*
X177049043Y-104283525D01*
X176950754Y-104331292D01*
X176844382Y-104375368D01*
X176730459Y-104415542D01*
X176609520Y-104451603D01*
X176482100Y-104483341D01*
X176398505Y-104501068D01*
X176340671Y-104512537D01*
X176343970Y-104556138D01*
X176346715Y-104584734D01*
X176351363Y-104623170D01*
X176357893Y-104671306D01*
X176366284Y-104729007D01*
X176376517Y-104796135D01*
X176388571Y-104872551D01*
X176402426Y-104958119D01*
X176410616Y-105007878D01*
X176417888Y-105052197D01*
X176424606Y-105093824D01*
X176430590Y-105131591D01*
X176435659Y-105164331D01*
X176439633Y-105190876D01*
X176442332Y-105210058D01*
X176443576Y-105220710D01*
X176443640Y-105221989D01*
X176441482Y-105236734D01*
X176435489Y-105258577D01*
X176426376Y-105285534D01*
X176414861Y-105315622D01*
X176401661Y-105346855D01*
X176387626Y-105376980D01*
X176354525Y-105435298D01*
X176316915Y-105484734D01*
X176274911Y-105525184D01*
X176228627Y-105556544D01*
X176178178Y-105578711D01*
X176158339Y-105584598D01*
X176135336Y-105588954D01*
X176105376Y-105592296D01*
X176071623Y-105594473D01*
X176037245Y-105595331D01*
X176005405Y-105594715D01*
X175983900Y-105593060D01*
X175925918Y-105582302D01*
X175873669Y-105563689D01*
X175825701Y-105536554D01*
X175780563Y-105500228D01*
X175778815Y-105498592D01*
X175739566Y-105456776D01*
X175704946Y-105409221D01*
X175674479Y-105355019D01*
X175647687Y-105293260D01*
X175624094Y-105223036D01*
X175612739Y-105182138D01*
X175606212Y-105155731D01*
X175600181Y-105128246D01*
X175594464Y-105098490D01*
X175588879Y-105065271D01*
X175583245Y-105027396D01*
X175577380Y-104983673D01*
X175571101Y-104932908D01*
X175564228Y-104873909D01*
X175559877Y-104835265D01*
X175555079Y-104792410D01*
X175550540Y-104752228D01*
X175546403Y-104715966D01*
X175542813Y-104684869D01*
X175539914Y-104660181D01*
X175537848Y-104643149D01*
X175536782Y-104635147D01*
X175535336Y-104628874D01*
X175532294Y-104623858D01*
X175526099Y-104619257D01*
X175515193Y-104614231D01*
X175498017Y-104607938D01*
X175473013Y-104599536D01*
X175467413Y-104597686D01*
X175408487Y-104575944D01*
X175352370Y-104550788D01*
X175300593Y-104523096D01*
X175254687Y-104493744D01*
X175216185Y-104463609D01*
X175192267Y-104440113D01*
X175166533Y-104407664D01*
X175143737Y-104371724D01*
X175126307Y-104336245D01*
X175122583Y-104326551D01*
X175117386Y-104309575D01*
X175113713Y-104291049D01*
X175111218Y-104268414D01*
X175109557Y-104239111D01*
X175109095Y-104226360D01*
X175108335Y-104197265D01*
X175108471Y-104174985D01*
X175109846Y-104156188D01*
X175112802Y-104137545D01*
X175117681Y-104115726D01*
X175122414Y-104096820D01*
X175144079Y-104028048D01*
X175171995Y-103966816D01*
X175206008Y-103913321D01*
X175245959Y-103867760D01*
X175291695Y-103830330D01*
X175343060Y-103801230D01*
X175361600Y-103793339D01*
X175381913Y-103785697D01*
X175399742Y-103780040D01*
X175417954Y-103775734D01*
X175439412Y-103772147D01*
X175466983Y-103768647D01*
X175480421Y-103767124D01*
X175530663Y-103761540D01*
X175550163Y-103689962D01*
X176258529Y-103689962D01*
X176261895Y-103791336D01*
X176271636Y-103892988D01*
X176274346Y-103913129D01*
X176278096Y-103939626D01*
X176281698Y-103957978D01*
X176286886Y-103970028D01*
X176295395Y-103977614D01*
X176308959Y-103982577D01*
X176329312Y-103986758D01*
X176346659Y-103989866D01*
X176386746Y-103995551D01*
X176423166Y-103996844D01*
X176461357Y-103993860D01*
X176471580Y-103992493D01*
X176531148Y-103979097D01*
X176590407Y-103956203D01*
X176648031Y-103924425D01*
X176698727Y-103887650D01*
X176742402Y-103848109D01*
X176784378Y-103802862D01*
X176823448Y-103753678D01*
X176858407Y-103702325D01*
X176888049Y-103650573D01*
X176911168Y-103600190D01*
X176926367Y-103553717D01*
X176935687Y-103497964D01*
X176936026Y-103443364D01*
X176927913Y-103390861D01*
X176911873Y-103341397D01*
X176888436Y-103295916D01*
X176858128Y-103255359D01*
X176821475Y-103220671D01*
X176779007Y-103192793D01*
X176731248Y-103172668D01*
X176710011Y-103166819D01*
X176677917Y-103161805D01*
X176639452Y-103159722D01*
X176597929Y-103160423D01*
X176556660Y-103163761D01*
X176518956Y-103169589D01*
X176491900Y-103176483D01*
X176438971Y-103198350D01*
X176393437Y-103227180D01*
X176355291Y-103262984D01*
X176324522Y-103305771D01*
X176301123Y-103355552D01*
X176286223Y-103406954D01*
X176270739Y-103495828D01*
X176261492Y-103590812D01*
X176258529Y-103689962D01*
X175550163Y-103689962D01*
X175559726Y-103654860D01*
X175591431Y-103541884D01*
X175622422Y-103438449D01*
X175652899Y-103343979D01*
X175683061Y-103257895D01*
X175713111Y-103179621D01*
X175743248Y-103108578D01*
X175768116Y-103055420D01*
X175799795Y-102995081D01*
X175831044Y-102944499D01*
X175862205Y-102903296D01*
X175893620Y-102871098D01*
X175925633Y-102847531D01*
X175958585Y-102832218D01*
X175976280Y-102827377D01*
X175985666Y-102823202D01*
X176000533Y-102814171D01*
X176018464Y-102801819D01*
X176029467Y-102793621D01*
X176111002Y-102736972D01*
X176195365Y-102690051D01*
X176282805Y-102652760D01*
X176373574Y-102624998D01*
X176467921Y-102606668D01*
X176514760Y-102601170D01*
X176558926Y-102598119D01*
X176610038Y-102596373D01*
X176664966Y-102595934D01*
X176720580Y-102596803D01*
G36*
X171429225Y-102644670D02*
G01*
X171459578Y-102647201D01*
X171485256Y-102652037D01*
X171508959Y-102659685D01*
X171533008Y-102670462D01*
X171569026Y-102693906D01*
X171598847Y-102725158D01*
X171622108Y-102763708D01*
X171638442Y-102809046D01*
X171641719Y-102822854D01*
X171643868Y-102834367D01*
X171645630Y-102847471D01*
X171647038Y-102863240D01*
X171648130Y-102882746D01*
X171648940Y-102907060D01*
X171649506Y-102937256D01*
X171649861Y-102974406D01*
X171650044Y-103019582D01*
X171650089Y-103073200D01*
X171650030Y-103117714D01*
X171649844Y-103159026D01*
X171649494Y-103198178D01*
X171648942Y-103236212D01*
X171648151Y-103274172D01*
X171647083Y-103313101D01*
X171645699Y-103354040D01*
X171643963Y-103398034D01*
X171641836Y-103446125D01*
X171639282Y-103499356D01*
X171636261Y-103558769D01*
X171632738Y-103625407D01*
X171628673Y-103700314D01*
X171625022Y-103766589D01*
X171618131Y-103898653D01*
X171612625Y-104021031D01*
X171608507Y-104134103D01*
X171605782Y-104238249D01*
X171604454Y-104333849D01*
X171604527Y-104421283D01*
X171606005Y-104500931D01*
X171608892Y-104573173D01*
X171613192Y-104638389D01*
X171618910Y-104696958D01*
X171626049Y-104749261D01*
X171634613Y-104795678D01*
X171636195Y-104802940D01*
X171640556Y-104820972D01*
X171644563Y-104834951D01*
X171647396Y-104842028D01*
X171647530Y-104842192D01*
X171652432Y-104840465D01*
X171663593Y-104833207D01*
X171679534Y-104821474D01*
X171698779Y-104806325D01*
X171706676Y-104799871D01*
X171771225Y-104748513D01*
X171833047Y-104703164D01*
X171891517Y-104664206D01*
X171946012Y-104632022D01*
X171995907Y-104606992D01*
X172040578Y-104589500D01*
X172059399Y-104584039D01*
X172083201Y-104579806D01*
X172108202Y-104579336D01*
X172136454Y-104582861D01*
X172170007Y-104590614D01*
X172202879Y-104600276D01*
X172264077Y-104623459D01*
X172316735Y-104652022D01*
X172361042Y-104686146D01*
X172397189Y-104726012D01*
X172425363Y-104771802D01*
X172445755Y-104823697D01*
X172449218Y-104835960D01*
X172454404Y-104864449D01*
X172457292Y-104899913D01*
X172457915Y-104939438D01*
X172456308Y-104980112D01*
X172452507Y-105019019D01*
X172446640Y-105052824D01*
X172426326Y-105122354D01*
X172397519Y-105188238D01*
X172360082Y-105250592D01*
X172313878Y-105309529D01*
X172258771Y-105365161D01*
X172194623Y-105417604D01*
X172121298Y-105466969D01*
X172038659Y-105513372D01*
X171946569Y-105556924D01*
X171844891Y-105597741D01*
X171750618Y-105630436D01*
X171672945Y-105653489D01*
X171600021Y-105670749D01*
X171532574Y-105682104D01*
X171471333Y-105687443D01*
X171417027Y-105686657D01*
X171395486Y-105684337D01*
X171329249Y-105670587D01*
X171268688Y-105648699D01*
X171213542Y-105618478D01*
X171163548Y-105579728D01*
X171118444Y-105532253D01*
X171077968Y-105475858D01*
X171049681Y-105426019D01*
X171023124Y-105369924D01*
X171000611Y-105312327D01*
X170981486Y-105251115D01*
X170965093Y-105184175D01*
X170950776Y-105109394D01*
X170950067Y-105105200D01*
X170941978Y-105053037D01*
X170935253Y-105000430D01*
X170929835Y-104946194D01*
X170925670Y-104889146D01*
X170922703Y-104828102D01*
X170920878Y-104761879D01*
X170920141Y-104689292D01*
X170920435Y-104609158D01*
X170921706Y-104520294D01*
X170922021Y-104503956D01*
X170925156Y-104379081D01*
X170929524Y-104261793D01*
X170935311Y-104149572D01*
X170942703Y-104039899D01*
X170951885Y-103930254D01*
X170963043Y-103818118D01*
X170976362Y-103700973D01*
X170988100Y-103606600D01*
X171004010Y-103488014D01*
X171020299Y-103376949D01*
X171036903Y-103273719D01*
X171053760Y-103178640D01*
X171070807Y-103092029D01*
X171087978Y-103014200D01*
X171105213Y-102945470D01*
X171122446Y-102886154D01*
X171139615Y-102836568D01*
X171145743Y-102821220D01*
X171170273Y-102773951D01*
X171202076Y-102731229D01*
X171239658Y-102694692D01*
X171281527Y-102665976D01*
X171292435Y-102660238D01*
X171306382Y-102653552D01*
X171317999Y-102649001D01*
X171329775Y-102646173D01*
X171344199Y-102644660D01*
X171363761Y-102644052D01*
X171390951Y-102643940D01*
X171391495Y-102643940D01*
X171429225Y-102644670D01*
X171429225Y-102644670D01*
G37*
X171429225Y-102644670D02*
X171459578Y-102647201D01*
X171485256Y-102652037D01*
X171508959Y-102659685D01*
X171533008Y-102670462D01*
X171569026Y-102693906D01*
X171598847Y-102725158D01*
X171622108Y-102763708D01*
X171638442Y-102809046D01*
X171641719Y-102822854D01*
X171643868Y-102834367D01*
X171645630Y-102847471D01*
X171647038Y-102863240D01*
X171648130Y-102882746D01*
X171648940Y-102907060D01*
X171649506Y-102937256D01*
X171649861Y-102974406D01*
X171650044Y-103019582D01*
X171650089Y-103073200D01*
X171650030Y-103117714D01*
X171649844Y-103159026D01*
X171649494Y-103198178D01*
X171648942Y-103236212D01*
X171648151Y-103274172D01*
X171647083Y-103313101D01*
X171645699Y-103354040D01*
X171643963Y-103398034D01*
X171641836Y-103446125D01*
X171639282Y-103499356D01*
X171636261Y-103558769D01*
X171632738Y-103625407D01*
X171628673Y-103700314D01*
X171625022Y-103766589D01*
X171618131Y-103898653D01*
X171612625Y-104021031D01*
X171608507Y-104134103D01*
X171605782Y-104238249D01*
X171604454Y-104333849D01*
X171604527Y-104421283D01*
X171606005Y-104500931D01*
X171608892Y-104573173D01*
X171613192Y-104638389D01*
X171618910Y-104696958D01*
X171626049Y-104749261D01*
X171634613Y-104795678D01*
X171636195Y-104802940D01*
X171640556Y-104820972D01*
X171644563Y-104834951D01*
X171647396Y-104842028D01*
X171647530Y-104842192D01*
X171652432Y-104840465D01*
X171663593Y-104833207D01*
X171679534Y-104821474D01*
X171698779Y-104806325D01*
X171706676Y-104799871D01*
X171771225Y-104748513D01*
X171833047Y-104703164D01*
X171891517Y-104664206D01*
X171946012Y-104632022D01*
X171995907Y-104606992D01*
X172040578Y-104589500D01*
X172059399Y-104584039D01*
X172083201Y-104579806D01*
X172108202Y-104579336D01*
X172136454Y-104582861D01*
X172170007Y-104590614D01*
X172202879Y-104600276D01*
X172264077Y-104623459D01*
X172316735Y-104652022D01*
X172361042Y-104686146D01*
X172397189Y-104726012D01*
X172425363Y-104771802D01*
X172445755Y-104823697D01*
X172449218Y-104835960D01*
X172454404Y-104864449D01*
X172457292Y-104899913D01*
X172457915Y-104939438D01*
X172456308Y-104980112D01*
X172452507Y-105019019D01*
X172446640Y-105052824D01*
X172426326Y-105122354D01*
X172397519Y-105188238D01*
X172360082Y-105250592D01*
X172313878Y-105309529D01*
X172258771Y-105365161D01*
X172194623Y-105417604D01*
X172121298Y-105466969D01*
X172038659Y-105513372D01*
X171946569Y-105556924D01*
X171844891Y-105597741D01*
X171750618Y-105630436D01*
X171672945Y-105653489D01*
X171600021Y-105670749D01*
X171532574Y-105682104D01*
X171471333Y-105687443D01*
X171417027Y-105686657D01*
X171395486Y-105684337D01*
X171329249Y-105670587D01*
X171268688Y-105648699D01*
X171213542Y-105618478D01*
X171163548Y-105579728D01*
X171118444Y-105532253D01*
X171077968Y-105475858D01*
X171049681Y-105426019D01*
X171023124Y-105369924D01*
X171000611Y-105312327D01*
X170981486Y-105251115D01*
X170965093Y-105184175D01*
X170950776Y-105109394D01*
X170950067Y-105105200D01*
X170941978Y-105053037D01*
X170935253Y-105000430D01*
X170929835Y-104946194D01*
X170925670Y-104889146D01*
X170922703Y-104828102D01*
X170920878Y-104761879D01*
X170920141Y-104689292D01*
X170920435Y-104609158D01*
X170921706Y-104520294D01*
X170922021Y-104503956D01*
X170925156Y-104379081D01*
X170929524Y-104261793D01*
X170935311Y-104149572D01*
X170942703Y-104039899D01*
X170951885Y-103930254D01*
X170963043Y-103818118D01*
X170976362Y-103700973D01*
X170988100Y-103606600D01*
X171004010Y-103488014D01*
X171020299Y-103376949D01*
X171036903Y-103273719D01*
X171053760Y-103178640D01*
X171070807Y-103092029D01*
X171087978Y-103014200D01*
X171105213Y-102945470D01*
X171122446Y-102886154D01*
X171139615Y-102836568D01*
X171145743Y-102821220D01*
X171170273Y-102773951D01*
X171202076Y-102731229D01*
X171239658Y-102694692D01*
X171281527Y-102665976D01*
X171292435Y-102660238D01*
X171306382Y-102653552D01*
X171317999Y-102649001D01*
X171329775Y-102646173D01*
X171344199Y-102644660D01*
X171363761Y-102644052D01*
X171390951Y-102643940D01*
X171391495Y-102643940D01*
X171429225Y-102644670D01*
D13*
X184263000Y-79099000D02*
X187263000Y-79099000D01*
X174263000Y-79099000D02*
X181263000Y-79099000D01*
X168263000Y-79099000D02*
X171263000Y-79099000D01*
X187763000Y-77099000D02*
X167763000Y-77099000D01*
X167763000Y-77099000D02*
X167763000Y-96099000D01*
X167763000Y-96099000D02*
X187763000Y-96099000D01*
X187763000Y-96099000D02*
X187763000Y-77099000D01*
D14*
X195651000Y-127318000D02*
X195651000Y-77028540D01*
X195651000Y-77028540D02*
X204541000Y-77028540D01*
X195651000Y-127318000D02*
X204541000Y-127318000D01*
D15*
X173010000Y-100931000D02*
X173010000Y-100775000D01*
X173010000Y-98615000D02*
X173010000Y-98459000D01*
X169777665Y-100773608D02*
G75*
G03X173010000Y-100930516I1672335J1078608D01*
G01*
X169777665Y-98616392D02*
G75*
G02X173010000Y-98459484I1672335J-1078608D01*
G01*
X170408870Y-100774837D02*
G75*
G03X172490961Y-100775000I1041130J1079837D01*
G01*
X170408870Y-98615163D02*
G75*
G02X172490961Y-98615000I1041130J-1079837D01*
G01*
D14*
X149950000Y-114875000D02*
X189150000Y-114875000D01*
X189150000Y-114875000D02*
X189150000Y-127295000D01*
X149950000Y-127295000D02*
X149950000Y-114875000D01*
X189150000Y-127295000D02*
X149950000Y-127295000D01*
X143531000Y-77032000D02*
X143531000Y-127321460D01*
X143531000Y-127321460D02*
X134641000Y-127321460D01*
X143531000Y-77032000D02*
X134641000Y-77032000D01*
D15*
X155176000Y-111994000D02*
X153846000Y-111994000D01*
X155176000Y-110664000D02*
X155176000Y-111994000D01*
X152576000Y-111994000D02*
X149976000Y-111994000D01*
X152576000Y-109394000D02*
X152576000Y-111994000D01*
X155176000Y-109394000D02*
X152576000Y-109394000D01*
X149976000Y-111994000D02*
X149976000Y-81394000D01*
X155176000Y-109394000D02*
X155176000Y-81394000D01*
X155176000Y-81394000D02*
X149976000Y-81394000D01*
D13*
X166266000Y-81295000D02*
X166266000Y-79895000D01*
X166266000Y-77495000D02*
X166266000Y-77345000D01*
X166266000Y-77345000D02*
X165966000Y-77345000D01*
X165966000Y-77345000D02*
X165966000Y-76895000D01*
X158266000Y-76895000D02*
X158266000Y-77345000D01*
X158266000Y-77345000D02*
X157966000Y-77345000D01*
X157966000Y-77345000D02*
X157966000Y-77495000D01*
X157966000Y-79895000D02*
X157966000Y-81295000D01*
X163191000Y-83470000D02*
X163916000Y-83470000D01*
X163916000Y-83470000D02*
X163916000Y-83045000D01*
X163916000Y-83045000D02*
X164916000Y-83045000D01*
X160316000Y-83045000D02*
X159316000Y-83045000D01*
X166545380Y-87102333D02*
X167259666Y-87102333D01*
X167402523Y-87149952D01*
X167497761Y-87245190D01*
X167545380Y-87388047D01*
X167545380Y-87483285D01*
X167545380Y-86102333D02*
X167545380Y-86673761D01*
X167545380Y-86388047D02*
X166545380Y-86388047D01*
X166688238Y-86483285D01*
X166783476Y-86578523D01*
X166831095Y-86673761D01*
D16*
X157643701Y-117690711D02*
X157072272Y-117690711D01*
X157357987Y-117690711D02*
X157357987Y-116690711D01*
X157262748Y-116833569D01*
X157167510Y-116928807D01*
X157072272Y-116976426D01*
D13*
X161782666Y-79144880D02*
X161782666Y-79859166D01*
X161735047Y-80002023D01*
X161639809Y-80097261D01*
X161496952Y-80144880D01*
X161401714Y-80144880D01*
X162211238Y-79240119D02*
X162258857Y-79192500D01*
X162354095Y-79144880D01*
X162592190Y-79144880D01*
X162687428Y-79192500D01*
X162735047Y-79240119D01*
X162782666Y-79335357D01*
X162782666Y-79430595D01*
X162735047Y-79573452D01*
X162163619Y-80144880D01*
X162782666Y-80144880D01*
M02*
